<svg xmlns="http://www.w3.org/2000/svg" xmlns:xlink="http://www.w3.org/1999/xlink" width="1366" zoomAndPan="magnify" viewBox="0 0 1024.5 541.499989" height="768" preserveAspectRatio="xMidYMid meet" version="1.0"><defs><g/><clipPath id="f6abc36ca2"><path d="M 0.222656 0 L 1023.777344 0 L 1023.777344 541 L 0.222656 541 Z M 0.222656 0 " clip-rule="nonzero"/></clipPath></defs><g clip-path="url(#f6abc36ca2)"><path fill="#ffffff" d="M 0.222656 0 L 1024.277344 0 L 1024.277344 548.011719 L 0.222656 548.011719 Z M 0.222656 0 " fill-opacity="1" fill-rule="nonzero"/><path fill="#ffffff" d="M 0.222656 0 L 1024.277344 0 L 1024.277344 541.265625 L 0.222656 541.265625 Z M 0.222656 0 " fill-opacity="1" fill-rule="nonzero"/><path fill="#f79630" d="M 0.222656 0 L 1024.277344 0 L 1024.277344 541.265625 L 0.222656 541.265625 Z M 0.222656 0 " fill-opacity="1" fill-rule="nonzero"/></g><g fill="#ffffff" fill-opacity="1"><g transform="translate(56.978694, 74.424156)"><g><path d="M 16.296875 -22.03125 L 16.296875 -17.734375 L 7.3125 -17.734375 L 7.3125 -13.09375 L 14.03125 -13.09375 L 14.03125 -8.921875 L 7.3125 -8.921875 L 7.3125 0 L 1.953125 0 L 1.953125 -22.03125 Z M 16.296875 -22.03125 "/></g></g></g><g fill="#ffffff" fill-opacity="1"><g transform="translate(74.150334, 74.424156)"><g><path d="M 7.3125 -17.734375 L 7.3125 -13.28125 L 14.5 -13.28125 L 14.5 -9.140625 L 7.3125 -9.140625 L 7.3125 -4.296875 L 15.4375 -4.296875 L 15.4375 0 L 1.953125 0 L 1.953125 -22.03125 L 15.4375 -22.03125 L 15.4375 -17.734375 Z M 7.3125 -17.734375 "/></g></g></g><g fill="#ffffff" fill-opacity="1"><g transform="translate(91.133623, 74.424156)"><g><path d="M 15.65625 -3.890625 L 7.4375 -3.890625 L 6.125 0 L 0.5 0 L 8.46875 -22.03125 L 14.6875 -22.03125 L 22.65625 0 L 16.984375 0 Z M 14.28125 -8.03125 L 11.546875 -16.109375 L 8.859375 -8.03125 Z M 14.28125 -8.03125 "/></g></g></g><g fill="#ffffff" fill-opacity="1"><g transform="translate(114.269819, 74.424156)"><g><path d="M 17.796875 -22.03125 L 17.796875 -17.734375 L 11.953125 -17.734375 L 11.953125 0 L 6.59375 0 L 6.59375 -17.734375 L 0.75 -17.734375 L 0.75 -22.03125 Z M 17.796875 -22.03125 "/></g></g></g><g fill="#ffffff" fill-opacity="1"><g transform="translate(132.822728, 74.424156)"><g><path d="M 7.21875 -22.03125 L 7.21875 -8.859375 C 7.21875 -7.535156 7.539062 -6.515625 8.1875 -5.796875 C 8.84375 -5.085938 9.796875 -4.734375 11.046875 -4.734375 C 12.304688 -4.734375 13.269531 -5.085938 13.9375 -5.796875 C 14.601562 -6.515625 14.9375 -7.535156 14.9375 -8.859375 L 14.9375 -22.03125 L 20.3125 -22.03125 L 20.3125 -8.890625 C 20.3125 -6.921875 19.890625 -5.253906 19.046875 -3.890625 C 18.210938 -2.535156 17.085938 -1.507812 15.671875 -0.8125 C 14.265625 -0.125 12.691406 0.21875 10.953125 0.21875 C 9.210938 0.21875 7.65625 -0.117188 6.28125 -0.796875 C 4.914062 -1.484375 3.835938 -2.507812 3.046875 -3.875 C 2.253906 -5.25 1.859375 -6.921875 1.859375 -8.890625 L 1.859375 -22.03125 Z M 7.21875 -22.03125 "/></g></g></g><g fill="#ffffff" fill-opacity="1"><g transform="translate(154.954369, 74.424156)"><g><path d="M 13.1875 0 L 8.59375 -8.3125 L 7.3125 -8.3125 L 7.3125 0 L 1.953125 0 L 1.953125 -22.03125 L 10.953125 -22.03125 C 12.691406 -22.03125 14.171875 -21.726562 15.390625 -21.125 C 16.617188 -20.519531 17.535156 -19.6875 18.140625 -18.625 C 18.742188 -17.570312 19.046875 -16.394531 19.046875 -15.09375 C 19.046875 -13.632812 18.632812 -12.328125 17.8125 -11.171875 C 16.988281 -10.023438 15.769531 -9.210938 14.15625 -8.734375 L 19.25 0 Z M 7.3125 -12.109375 L 10.640625 -12.109375 C 11.617188 -12.109375 12.351562 -12.347656 12.84375 -12.828125 C 13.34375 -13.316406 13.59375 -14 13.59375 -14.875 C 13.59375 -15.71875 13.34375 -16.378906 12.84375 -16.859375 C 12.351562 -17.335938 11.617188 -17.578125 10.640625 -17.578125 L 7.3125 -17.578125 Z M 7.3125 -12.109375 "/></g></g></g><g fill="#ffffff" fill-opacity="1"><g transform="translate(175.422214, 74.424156)"><g><path d="M 7.3125 -17.734375 L 7.3125 -13.28125 L 14.5 -13.28125 L 14.5 -9.140625 L 7.3125 -9.140625 L 7.3125 -4.296875 L 15.4375 -4.296875 L 15.4375 0 L 1.953125 0 L 1.953125 -22.03125 L 15.4375 -22.03125 L 15.4375 -17.734375 Z M 7.3125 -17.734375 "/></g></g></g><g fill="#ffffff" fill-opacity="1"><g transform="translate(192.405498, 74.424156)"><g><path d="M 10.203125 -22.03125 C 12.523438 -22.03125 14.550781 -21.570312 16.28125 -20.65625 C 18.019531 -19.738281 19.363281 -18.445312 20.3125 -16.78125 C 21.269531 -15.113281 21.75 -13.191406 21.75 -11.015625 C 21.75 -8.859375 21.269531 -6.941406 20.3125 -5.265625 C 19.363281 -3.597656 18.015625 -2.300781 16.265625 -1.375 C 14.523438 -0.457031 12.503906 0 10.203125 0 L 1.953125 0 L 1.953125 -22.03125 Z M 9.859375 -4.640625 C 11.890625 -4.640625 13.46875 -5.191406 14.59375 -6.296875 C 15.726562 -7.410156 16.296875 -8.984375 16.296875 -11.015625 C 16.296875 -13.046875 15.726562 -14.625 14.59375 -15.75 C 13.46875 -16.882812 11.890625 -17.453125 9.859375 -17.453125 L 7.3125 -17.453125 L 7.3125 -4.640625 Z M 9.859375 -4.640625 "/></g></g></g><g fill="#ffffff" fill-opacity="1"><g transform="translate(56.978694, 107.263941)"><g><path d="M 1.03125 -11.046875 C 1.03125 -13.222656 1.5 -15.164062 2.4375 -16.875 C 3.382812 -18.582031 4.703125 -19.910156 6.390625 -20.859375 C 8.078125 -21.804688 9.984375 -22.28125 12.109375 -22.28125 C 14.734375 -22.28125 16.972656 -21.585938 18.828125 -20.203125 C 20.691406 -18.828125 21.9375 -16.945312 22.5625 -14.5625 L 16.671875 -14.5625 C 16.234375 -15.488281 15.609375 -16.191406 14.796875 -16.671875 C 13.992188 -17.148438 13.078125 -17.390625 12.046875 -17.390625 C 10.398438 -17.390625 9.0625 -16.8125 8.03125 -15.65625 C 7.007812 -14.507812 6.5 -12.972656 6.5 -11.046875 C 6.5 -9.117188 7.007812 -7.578125 8.03125 -6.421875 C 9.0625 -5.273438 10.398438 -4.703125 12.046875 -4.703125 C 13.078125 -4.703125 13.992188 -4.941406 14.796875 -5.421875 C 15.609375 -5.910156 16.234375 -6.613281 16.671875 -7.53125 L 22.5625 -7.53125 C 21.9375 -5.144531 20.691406 -3.265625 18.828125 -1.890625 C 16.972656 -0.523438 14.734375 0.15625 12.109375 0.15625 C 9.984375 0.15625 8.078125 -0.316406 6.390625 -1.265625 C 4.703125 -2.222656 3.382812 -3.546875 2.4375 -5.234375 C 1.5 -6.929688 1.03125 -8.867188 1.03125 -11.046875 Z M 1.03125 -11.046875 "/></g></g></g><g fill="#ffffff" fill-opacity="1"><g transform="translate(80.8997, 107.263941)"><g><path d="M 12.375 0.21875 C 10.300781 0.21875 8.398438 -0.257812 6.671875 -1.21875 C 4.941406 -2.1875 3.566406 -3.53125 2.546875 -5.25 C 1.535156 -6.976562 1.03125 -8.921875 1.03125 -11.078125 C 1.03125 -13.234375 1.535156 -15.171875 2.546875 -16.890625 C 3.566406 -18.609375 4.941406 -19.945312 6.671875 -20.90625 C 8.398438 -21.863281 10.300781 -22.34375 12.375 -22.34375 C 14.4375 -22.34375 16.332031 -21.863281 18.0625 -20.90625 C 19.789062 -19.945312 21.148438 -18.609375 22.140625 -16.890625 C 23.140625 -15.171875 23.640625 -13.234375 23.640625 -11.078125 C 23.640625 -8.921875 23.132812 -6.976562 22.125 -5.25 C 21.125 -3.53125 19.765625 -2.1875 18.046875 -1.21875 C 16.328125 -0.257812 14.4375 0.21875 12.375 0.21875 Z M 12.375 -4.671875 C 14.125 -4.671875 15.523438 -5.253906 16.578125 -6.421875 C 17.640625 -7.597656 18.171875 -9.148438 18.171875 -11.078125 C 18.171875 -13.023438 17.640625 -14.578125 16.578125 -15.734375 C 15.523438 -16.898438 14.125 -17.484375 12.375 -17.484375 C 10.59375 -17.484375 9.171875 -16.90625 8.109375 -15.75 C 7.054688 -14.601562 6.53125 -13.046875 6.53125 -11.078125 C 6.53125 -9.128906 7.054688 -7.570312 8.109375 -6.40625 C 9.171875 -5.25 10.59375 -4.671875 12.375 -4.671875 Z M 12.375 -4.671875 "/></g></g></g><g fill="#ffffff" fill-opacity="1"><g transform="translate(105.574127, 107.263941)"><g><path d="M 21.65625 0 L 16.296875 0 L 7.3125 -13.59375 L 7.3125 0 L 1.953125 0 L 1.953125 -22.03125 L 7.3125 -22.03125 L 16.296875 -8.375 L 16.296875 -22.03125 L 21.65625 -22.03125 Z M 21.65625 0 "/></g></g></g><g fill="#ffffff" fill-opacity="1"><g transform="translate(129.181211, 107.263941)"><g><path d="M 17.796875 -22.03125 L 17.796875 -17.734375 L 11.953125 -17.734375 L 11.953125 0 L 6.59375 0 L 6.59375 -17.734375 L 0.75 -17.734375 L 0.75 -22.03125 Z M 17.796875 -22.03125 "/></g></g></g><g fill="#ffffff" fill-opacity="1"><g transform="translate(147.734115, 107.263941)"><g><path d="M 7.3125 -17.734375 L 7.3125 -13.28125 L 14.5 -13.28125 L 14.5 -9.140625 L 7.3125 -9.140625 L 7.3125 -4.296875 L 15.4375 -4.296875 L 15.4375 0 L 1.953125 0 L 1.953125 -22.03125 L 15.4375 -22.03125 L 15.4375 -17.734375 Z M 7.3125 -17.734375 "/></g></g></g><g fill="#ffffff" fill-opacity="1"><g transform="translate(164.717409, 107.263941)"><g><path d="M 21.65625 0 L 16.296875 0 L 7.3125 -13.59375 L 7.3125 0 L 1.953125 0 L 1.953125 -22.03125 L 7.3125 -22.03125 L 16.296875 -8.375 L 16.296875 -22.03125 L 21.65625 -22.03125 Z M 21.65625 0 "/></g></g></g><g fill="#ffffff" fill-opacity="1"><g transform="translate(188.324493, 107.263941)"><g><path d="M 17.796875 -22.03125 L 17.796875 -17.734375 L 11.953125 -17.734375 L 11.953125 0 L 6.59375 0 L 6.59375 -17.734375 L 0.75 -17.734375 L 0.75 -22.03125 Z M 17.796875 -22.03125 "/></g></g></g><g fill="#ffffff" fill-opacity="1"><g transform="translate(206.877397, 107.263941)"><g><path d="M 9.921875 0.21875 C 8.304688 0.21875 6.859375 -0.0390625 5.578125 -0.5625 C 4.304688 -1.082031 3.285156 -1.851562 2.515625 -2.875 C 1.753906 -3.90625 1.351562 -5.144531 1.3125 -6.59375 L 7.03125 -6.59375 C 7.113281 -5.78125 7.394531 -5.15625 7.875 -4.71875 C 8.351562 -4.289062 8.984375 -4.078125 9.765625 -4.078125 C 10.554688 -4.078125 11.179688 -4.257812 11.640625 -4.625 C 12.109375 -4.988281 12.34375 -5.5 12.34375 -6.15625 C 12.34375 -6.695312 12.15625 -7.144531 11.78125 -7.5 C 11.414062 -7.851562 10.96875 -8.144531 10.4375 -8.375 C 9.90625 -8.613281 9.144531 -8.878906 8.15625 -9.171875 C 6.738281 -9.609375 5.578125 -10.046875 4.671875 -10.484375 C 3.773438 -10.921875 3 -11.566406 2.34375 -12.421875 C 1.695312 -13.285156 1.375 -14.410156 1.375 -15.796875 C 1.375 -17.835938 2.117188 -19.4375 3.609375 -20.59375 C 5.097656 -21.757812 7.035156 -22.34375 9.421875 -22.34375 C 11.847656 -22.34375 13.800781 -21.757812 15.28125 -20.59375 C 16.769531 -19.4375 17.566406 -17.828125 17.671875 -15.765625 L 11.859375 -15.765625 C 11.816406 -16.472656 11.554688 -17.03125 11.078125 -17.4375 C 10.597656 -17.84375 9.984375 -18.046875 9.234375 -18.046875 C 8.578125 -18.046875 8.050781 -17.875 7.65625 -17.53125 C 7.257812 -17.1875 7.0625 -16.691406 7.0625 -16.046875 C 7.0625 -15.328125 7.394531 -14.769531 8.0625 -14.375 C 8.738281 -13.976562 9.785156 -13.550781 11.203125 -13.09375 C 12.628906 -12.613281 13.785156 -12.148438 14.671875 -11.703125 C 15.566406 -11.265625 16.335938 -10.625 16.984375 -9.78125 C 17.628906 -8.945312 17.953125 -7.875 17.953125 -6.5625 C 17.953125 -5.300781 17.632812 -4.15625 17 -3.125 C 16.363281 -2.101562 15.4375 -1.289062 14.21875 -0.6875 C 13.007812 -0.0820312 11.578125 0.21875 9.921875 0.21875 Z M 9.921875 0.21875 "/></g></g></g></svg>