<svg xmlns="http://www.w3.org/2000/svg" xmlns:xlink="http://www.w3.org/1999/xlink" width="1366" zoomAndPan="magnify" viewBox="0 0 1024.5 770.249981" height="768" preserveAspectRatio="xMidYMid meet" version="1.0"><defs><g/><clipPath id="828badd591"><path d="M 0.25 0 L 1023.75 0 L 1023.75 769.5 L 0.25 769.5 Z M 0.25 0 " clip-rule="nonzero"/></clipPath></defs><g clip-path="url(#828badd591)"><path fill="#ffffff" d="M 0.25 0 L 1024.25 0 L 1024.25 776.621094 L 0.25 776.621094 Z M 0.25 0 " fill-opacity="1" fill-rule="nonzero"/><path fill="#ffffff" d="M 0.25 0 L 1024.25 0 L 1024.25 769.875 L 0.25 769.875 Z M 0.25 0 " fill-opacity="1" fill-rule="nonzero"/><path fill="#f79630" d="M 0.25 0 L 1024.25 0 L 1024.25 769.875 L 0.25 769.875 Z M 0.25 0 " fill-opacity="1" fill-rule="nonzero"/></g><g fill="#ffffff" fill-opacity="1"><g transform="translate(77.249936, 96.55006)"><g><path d="M 14.71875 0 L 7.3125 -9.734375 L 7.3125 0 L 1.953125 0 L 1.953125 -22.03125 L 7.3125 -22.03125 L 7.3125 -12.375 L 14.65625 -22.03125 L 20.96875 -22.03125 L 12.4375 -11.234375 L 21.28125 0 Z M 14.71875 0 "/></g></g></g><g fill="#ffffff" fill-opacity="1"><g transform="translate(99.124922, 96.55006)"><g><path d="M 21.65625 0 L 16.296875 0 L 7.3125 -13.59375 L 7.3125 0 L 1.953125 0 L 1.953125 -22.03125 L 7.3125 -22.03125 L 16.296875 -8.375 L 16.296875 -22.03125 L 21.65625 -22.03125 Z M 21.65625 0 "/></g></g></g><g fill="#ffffff" fill-opacity="1"><g transform="translate(122.726058, 96.55006)"><g><path d="M 12.375 0.21875 C 10.300781 0.21875 8.398438 -0.257812 6.671875 -1.21875 C 4.941406 -2.1875 3.566406 -3.53125 2.546875 -5.25 C 1.535156 -6.976562 1.03125 -8.921875 1.03125 -11.078125 C 1.03125 -13.234375 1.535156 -15.171875 2.546875 -16.890625 C 3.566406 -18.609375 4.941406 -19.945312 6.671875 -20.90625 C 8.398438 -21.863281 10.300781 -22.34375 12.375 -22.34375 C 14.4375 -22.34375 16.332031 -21.863281 18.0625 -20.90625 C 19.789062 -19.945312 21.148438 -18.609375 22.140625 -16.890625 C 23.140625 -15.171875 23.640625 -13.234375 23.640625 -11.078125 C 23.640625 -8.921875 23.132812 -6.976562 22.125 -5.25 C 21.125 -3.53125 19.765625 -2.1875 18.046875 -1.21875 C 16.328125 -0.257812 14.4375 0.21875 12.375 0.21875 Z M 12.375 -4.671875 C 14.125 -4.671875 15.523438 -5.253906 16.578125 -6.421875 C 17.640625 -7.597656 18.171875 -9.148438 18.171875 -11.078125 C 18.171875 -13.023438 17.640625 -14.578125 16.578125 -15.734375 C 15.523438 -16.898438 14.125 -17.484375 12.375 -17.484375 C 10.59375 -17.484375 9.171875 -16.90625 8.109375 -15.75 C 7.054688 -14.601562 6.53125 -13.046875 6.53125 -11.078125 C 6.53125 -9.128906 7.054688 -7.570312 8.109375 -6.40625 C 9.171875 -5.25 10.59375 -4.671875 12.375 -4.671875 Z M 12.375 -4.671875 "/></g></g></g><g fill="#ffffff" fill-opacity="1"><g transform="translate(147.394265, 96.55006)"><g><path d="M 32.265625 -22.03125 L 26.53125 0 L 20.03125 0 L 16.515625 -14.5 L 12.875 0 L 6.375 0 L 0.78125 -22.03125 L 6.53125 -22.03125 L 9.703125 -6 L 13.625 -22.03125 L 19.53125 -22.03125 L 23.296875 -6 L 26.5 -22.03125 Z M 32.265625 -22.03125 "/></g></g></g><g fill="#ffffff" fill-opacity="1"><g transform="translate(180.410743, 96.55006)"><g><path d="M 7.3125 -4.140625 L 14.34375 -4.140625 L 14.34375 0 L 1.953125 0 L 1.953125 -22.03125 L 7.3125 -22.03125 Z M 7.3125 -4.140625 "/></g></g></g><g fill="#ffffff" fill-opacity="1"><g transform="translate(195.381143, 96.55006)"><g><path d="M 7.3125 -17.734375 L 7.3125 -13.28125 L 14.5 -13.28125 L 14.5 -9.140625 L 7.3125 -9.140625 L 7.3125 -4.296875 L 15.4375 -4.296875 L 15.4375 0 L 1.953125 0 L 1.953125 -22.03125 L 15.4375 -22.03125 L 15.4375 -17.734375 Z M 7.3125 -17.734375 "/></g></g></g><g fill="#ffffff" fill-opacity="1"><g transform="translate(212.36015, 96.55006)"><g><path d="M 10.203125 -22.03125 C 12.523438 -22.03125 14.550781 -21.570312 16.28125 -20.65625 C 18.019531 -19.738281 19.363281 -18.445312 20.3125 -16.78125 C 21.269531 -15.113281 21.75 -13.191406 21.75 -11.015625 C 21.75 -8.859375 21.269531 -6.941406 20.3125 -5.265625 C 19.363281 -3.597656 18.015625 -2.300781 16.265625 -1.375 C 14.523438 -0.457031 12.503906 0 10.203125 0 L 1.953125 0 L 1.953125 -22.03125 Z M 9.859375 -4.640625 C 11.890625 -4.640625 13.46875 -5.191406 14.59375 -6.296875 C 15.726562 -7.410156 16.296875 -8.984375 16.296875 -11.015625 C 16.296875 -13.046875 15.726562 -14.625 14.59375 -15.75 C 13.46875 -16.882812 11.890625 -17.453125 9.859375 -17.453125 L 7.3125 -17.453125 L 7.3125 -4.640625 Z M 9.859375 -4.640625 "/></g></g></g><g fill="#ffffff" fill-opacity="1"><g transform="translate(235.176679, 96.55006)"><g><path d="M 16.578125 -15.0625 C 16.179688 -15.800781 15.609375 -16.363281 14.859375 -16.75 C 14.117188 -17.132812 13.25 -17.328125 12.25 -17.328125 C 10.507812 -17.328125 9.113281 -16.753906 8.0625 -15.609375 C 7.019531 -14.472656 6.5 -12.953125 6.5 -11.046875 C 6.5 -9.015625 7.046875 -7.425781 8.140625 -6.28125 C 9.242188 -5.144531 10.757812 -4.578125 12.6875 -4.578125 C 14 -4.578125 15.109375 -4.910156 16.015625 -5.578125 C 16.929688 -6.253906 17.597656 -7.21875 18.015625 -8.46875 L 11.203125 -8.46875 L 11.203125 -12.4375 L 22.890625 -12.4375 L 22.890625 -7.4375 C 22.484375 -6.101562 21.804688 -4.859375 20.859375 -3.703125 C 19.910156 -2.554688 18.703125 -1.625 17.234375 -0.90625 C 15.765625 -0.195312 14.113281 0.15625 12.28125 0.15625 C 10.101562 0.15625 8.160156 -0.316406 6.453125 -1.265625 C 4.742188 -2.222656 3.410156 -3.546875 2.453125 -5.234375 C 1.503906 -6.929688 1.03125 -8.867188 1.03125 -11.046875 C 1.03125 -13.222656 1.503906 -15.164062 2.453125 -16.875 C 3.410156 -18.582031 4.738281 -19.910156 6.4375 -20.859375 C 8.132812 -21.804688 10.070312 -22.28125 12.25 -22.28125 C 14.882812 -22.28125 17.101562 -21.640625 18.90625 -20.359375 C 20.71875 -19.085938 21.914062 -17.320312 22.5 -15.0625 Z M 16.578125 -15.0625 "/></g></g></g><g fill="#ffffff" fill-opacity="1"><g transform="translate(259.091649, 96.55006)"><g><path d="M 7.3125 -17.734375 L 7.3125 -13.28125 L 14.5 -13.28125 L 14.5 -9.140625 L 7.3125 -9.140625 L 7.3125 -4.296875 L 15.4375 -4.296875 L 15.4375 0 L 1.953125 0 L 1.953125 -22.03125 L 15.4375 -22.03125 L 15.4375 -17.734375 Z M 7.3125 -17.734375 "/></g></g></g><g fill="#ffffff" fill-opacity="1"><g transform="translate(77.249936, 129.144053)"><g><path d="M 26.90625 -22.03125 L 26.90625 0 L 21.53125 0 L 21.53125 -13.21875 L 16.609375 0 L 12.28125 0 L 7.3125 -13.25 L 7.3125 0 L 1.953125 0 L 1.953125 -22.03125 L 8.28125 -22.03125 L 14.46875 -6.78125 L 20.59375 -22.03125 Z M 26.90625 -22.03125 "/></g></g></g><g fill="#ffffff" fill-opacity="1"><g transform="translate(106.060893, 129.144053)"><g><path d="M 15.65625 -3.890625 L 7.4375 -3.890625 L 6.125 0 L 0.5 0 L 8.46875 -22.03125 L 14.6875 -22.03125 L 22.65625 0 L 16.984375 0 Z M 14.28125 -8.03125 L 11.546875 -16.109375 L 8.859375 -8.03125 Z M 14.28125 -8.03125 "/></g></g></g><g fill="#ffffff" fill-opacity="1"><g transform="translate(129.191256, 129.144053)"><g><path d="M 17.796875 -22.03125 L 17.796875 -17.734375 L 11.953125 -17.734375 L 11.953125 0 L 6.59375 0 L 6.59375 -17.734375 L 0.75 -17.734375 L 0.75 -22.03125 Z M 17.796875 -22.03125 "/></g></g></g><g fill="#ffffff" fill-opacity="1"><g transform="translate(147.739484, 129.144053)"><g><path d="M 7.3125 -17.734375 L 7.3125 -13.28125 L 14.5 -13.28125 L 14.5 -9.140625 L 7.3125 -9.140625 L 7.3125 -4.296875 L 15.4375 -4.296875 L 15.4375 0 L 1.953125 0 L 1.953125 -22.03125 L 15.4375 -22.03125 L 15.4375 -17.734375 Z M 7.3125 -17.734375 "/></g></g></g><g fill="#ffffff" fill-opacity="1"><g transform="translate(164.718491, 129.144053)"><g><path d="M 13.1875 0 L 8.59375 -8.3125 L 7.3125 -8.3125 L 7.3125 0 L 1.953125 0 L 1.953125 -22.03125 L 10.953125 -22.03125 C 12.691406 -22.03125 14.171875 -21.726562 15.390625 -21.125 C 16.617188 -20.519531 17.535156 -19.6875 18.140625 -18.625 C 18.742188 -17.570312 19.046875 -16.394531 19.046875 -15.09375 C 19.046875 -13.632812 18.632812 -12.328125 17.8125 -11.171875 C 16.988281 -10.023438 15.769531 -9.210938 14.15625 -8.734375 L 19.25 0 Z M 7.3125 -12.109375 L 10.640625 -12.109375 C 11.617188 -12.109375 12.351562 -12.347656 12.84375 -12.828125 C 13.34375 -13.316406 13.59375 -14 13.59375 -14.875 C 13.59375 -15.71875 13.34375 -16.378906 12.84375 -16.859375 C 12.351562 -17.335938 11.617188 -17.578125 10.640625 -17.578125 L 7.3125 -17.578125 Z M 7.3125 -12.109375 "/></g></g></g><g fill="#ffffff" fill-opacity="1"><g transform="translate(185.181176, 129.144053)"><g><path d="M 7.3125 -22.03125 L 7.3125 0 L 1.953125 0 L 1.953125 -22.03125 Z M 7.3125 -22.03125 "/></g></g></g><g fill="#ffffff" fill-opacity="1"><g transform="translate(194.439597, 129.144053)"><g><path d="M 15.65625 -3.890625 L 7.4375 -3.890625 L 6.125 0 L 0.5 0 L 8.46875 -22.03125 L 14.6875 -22.03125 L 22.65625 0 L 16.984375 0 Z M 14.28125 -8.03125 L 11.546875 -16.109375 L 8.859375 -8.03125 Z M 14.28125 -8.03125 "/></g></g></g><g fill="#ffffff" fill-opacity="1"><g transform="translate(217.569961, 129.144053)"><g><path d="M 7.3125 -4.140625 L 14.34375 -4.140625 L 14.34375 0 L 1.953125 0 L 1.953125 -22.03125 L 7.3125 -22.03125 Z M 7.3125 -4.140625 "/></g></g></g></svg>