<svg xmlns="http://www.w3.org/2000/svg" xmlns:xlink="http://www.w3.org/1999/xlink" width="1080" zoomAndPan="magnify" viewBox="0 0 810 809.999993" height="1080" preserveAspectRatio="xMidYMid meet" version="1.0"><defs><g/><clipPath id="701f3dca01"><path d="M 443 580 L 459 580 L 459 647.609375 L 443 647.609375 Z M 443 580 " clip-rule="nonzero"/></clipPath><clipPath id="32a6360a7a"><path d="M 284 508 L 300 508 L 300 647.609375 L 284 647.609375 Z M 284 508 " clip-rule="nonzero"/></clipPath><clipPath id="9ae436c657"><path d="M 276.195312 491 L 468.195312 491 L 468.195312 510 L 276.195312 510 Z M 276.195312 491 " clip-rule="nonzero"/></clipPath><clipPath id="33e3e04214"><path d="M 489 563 L 561 563 L 561 647.027344 L 489 647.027344 Z M 489 563 " clip-rule="nonzero"/></clipPath><clipPath id="3885b2801e"><path d="M 515 514.277344 L 541 514.277344 L 541 541 L 515 541 Z M 515 514.277344 " clip-rule="nonzero"/></clipPath><clipPath id="20d7e3c1f0"><path d="M 556 525 L 589.875 525 L 589.875 545 L 556 545 Z M 556 525 " clip-rule="nonzero"/></clipPath><clipPath id="76e543a47c"><path d="M 468.375 521 L 500 521 L 500 543 L 468.375 543 Z M 468.375 521 " clip-rule="nonzero"/></clipPath><clipPath id="6974503987"><path d="M 194 658.085938 L 562 658.085938 L 562 729.335938 L 194 729.335938 Z M 194 658.085938 " clip-rule="nonzero"/></clipPath></defs><path fill="#d59667" d="M 330.460938 138.785156 C 330.460938 104.113281 348.078125 78.371094 381.8125 69.214844 C 412.136719 60.988281 449.296875 73.878906 464.625 101.371094 C 479.957031 128.863281 472.695312 167.226562 447.75 186.371094 C 431.125 199.132812 408.992188 205.398438 388.265625 202.398438 C 329.941406 193.960938 330.460938 138.785156 330.460938 138.785156 Z M 330.460938 138.785156 " fill-opacity="1" fill-rule="nonzero"/><path fill="#fbdbc0" d="M 398.671875 192.339844 C 395.703125 192.34375 392.746094 192.132812 389.804688 191.710938 C 369.375 188.753906 355.039062 179.003906 347.1875 162.726562 C 343.578125 155.1875 341.589844 147.242188 341.230469 138.886719 L 341.230469 138.785156 C 341.230469 123.625 344.925781 110.835938 352.203125 100.773438 C 359.574219 90.589844 370.480469 83.480469 384.625 79.640625 C 389.890625 78.234375 395.25 77.539062 400.695312 77.5625 C 423.613281 77.5625 445.523438 89.246094 455.222656 106.640625 C 461.421875 117.757812 463.371094 131.355469 460.71875 144.921875 C 458.0625 158.5 451.132812 170.175781 441.203125 177.796875 C 429.164062 187.039062 413.660156 192.339844 398.671875 192.339844 Z M 398.671875 192.339844 " fill-opacity="1" fill-rule="nonzero"/><path fill="#c18053" d="M 347.65625 137.378906 C 348.5625 137.40625 348.558594 135.996094 347.65625 135.96875 C 345.535156 135.90625 343.410156 135.863281 341.285156 135.800781 C 341.269531 136.265625 341.265625 136.742188 341.257812 137.210938 C 343.390625 137.269531 345.523438 137.3125 347.65625 137.378906 Z M 347.65625 137.378906 " fill-opacity="1" fill-rule="nonzero"/><path fill="#c18053" d="M 455.78125 133.726562 C 457.8125 133.691406 459.84375 133.664062 461.871094 133.628906 C 461.875 133.160156 461.875 132.691406 461.867188 132.222656 C 459.839844 132.253906 457.808594 132.28125 455.78125 132.316406 C 454.878906 132.335938 454.878906 133.742188 455.78125 133.726562 Z M 455.78125 133.726562 " fill-opacity="1" fill-rule="nonzero"/><path fill="#c18053" d="M 401.769531 77.574219 C 401.769531 80.1875 401.769531 82.796875 401.769531 85.40625 C 401.769531 85.601562 401.835938 85.769531 401.972656 85.90625 C 402.109375 86.042969 402.277344 86.113281 402.46875 86.113281 C 402.664062 86.113281 402.828125 86.042969 402.96875 85.90625 C 403.105469 85.769531 403.171875 85.601562 403.171875 85.40625 C 403.171875 82.808594 403.171875 80.207031 403.171875 77.609375 C 402.707031 77.59375 402.238281 77.585938 401.769531 77.574219 Z M 401.769531 77.574219 " fill-opacity="1" fill-rule="nonzero"/><path fill="#989b6d" d="M 402.707031 130.523438 C 403.703125 125.949219 404.699219 121.808594 405.695312 117.234375 C 405.835938 116.324219 406.140625 115.472656 406.617188 114.683594 C 407.359375 113.617188 408.621094 113.066406 409.820312 112.5625 L 422.753906 107.140625 C 422.875 107.089844 422.996094 107.082031 423.121094 107.117188 C 423.246094 107.148438 423.351562 107.21875 423.429688 107.320312 C 423.507812 107.425781 423.546875 107.542969 423.550781 107.671875 C 423.550781 107.804688 423.507812 107.917969 423.429688 108.023438 C 420.296875 112.234375 418.070312 116.882812 416.753906 121.96875 C 412.269531 123.675781 407.605469 127.964844 404.625 131.734375 Z M 402.707031 130.523438 " fill-opacity="1" fill-rule="nonzero"/><path fill="#989b6d" d="M 400.496094 139.457031 C 397.710938 145.632812 394.488281 160.632812 394.488281 160.632812 C 394.488281 160.632812 397.789062 170.96875 399.558594 177.96875 C 399.59375 178.101562 399.664062 178.207031 399.769531 178.285156 C 399.878906 178.367188 400 178.40625 400.132812 178.402344 C 400.269531 178.398438 400.386719 178.351562 400.488281 178.261719 C 400.589844 178.175781 400.652344 178.066406 400.679688 177.933594 C 401.859375 171.953125 403.710938 166.1875 406.226562 160.636719 C 404.773438 154.03125 403.472656 146.179688 402.707031 139.457031 Z M 400.496094 139.457031 " fill-opacity="1" fill-rule="nonzero"/><path fill="#c18053" d="M 401.519531 184.839844 C 401.4375 187.316406 401.71875 189.789062 401.730469 192.265625 C 402.199219 192.242188 402.667969 192.214844 403.136719 192.183594 C 403.117188 189.734375 402.84375 187.289062 402.925781 184.839844 C 402.953125 183.933594 401.546875 183.933594 401.519531 184.839844 Z M 401.519531 184.839844 " fill-opacity="1" fill-rule="nonzero"/><path fill="#b67f56" d="M 401.285156 140.148438 C 401.015625 140.148438 400.75 140.128906 400.480469 140.09375 C 398.632812 139.824219 397.332031 138.941406 396.621094 137.464844 C 396.292969 136.785156 396.113281 136.0625 396.082031 135.308594 L 396.082031 135.296875 C 396.035156 134.039062 396.367188 132.894531 397.078125 131.855469 C 397.824219 130.863281 398.804688 130.222656 400.011719 129.941406 C 400.488281 129.8125 400.976562 129.75 401.46875 129.753906 C 403.542969 129.753906 405.53125 130.8125 406.40625 132.386719 C 406.996094 133.480469 407.160156 134.636719 406.90625 135.855469 C 406.691406 137.070312 406.101562 138.0625 405.136719 138.832031 C 404 139.699219 402.714844 140.136719 401.285156 140.148438 Z M 401.285156 140.148438 " fill-opacity="1" fill-rule="nonzero"/><g fill="#845b3c" fill-opacity="1"><g transform="translate(254.390393, 399.671162)"><g><path d="M 75.574219 -64.675781 C 77.183594 -64.675781 78.792969 -65.390625 80.398438 -65.390625 C 80.578125 -65.390625 80.757812 -65.390625 80.933594 -65.390625 C 81.113281 -65.390625 81.472656 -65.570312 81.648438 -65.75 C 82.722656 -66.285156 84.152344 -66.464844 85.402344 -66.820312 C 87.546875 -67.535156 89.511719 -68.429688 91.476562 -69.320312 C 91.65625 -69.320312 91.65625 -69.679688 91.832031 -69.859375 C 91.65625 -69.859375 91.476562 -70.035156 91.296875 -70.035156 C 89.511719 -69.320312 81.113281 -67.535156 78.96875 -67.535156 C 76.46875 -67.355469 73.96875 -66.820312 71.464844 -66.820312 C 70.929688 -66.820312 70.394531 -66.820312 69.859375 -66.820312 C 66.820312 -65.925781 63.605469 -66.105469 60.390625 -65.925781 C 60.03125 -65.925781 59.675781 -65.925781 59.316406 -65.75 C 58.421875 -65.390625 57.351562 -65.390625 56.457031 -65.390625 C 55.921875 -65.390625 55.386719 -65.390625 55.027344 -65.390625 C 54.492188 -65.390625 54.136719 -65.390625 53.597656 -65.210938 C 50.917969 -64.675781 48.238281 -64.675781 45.558594 -64.675781 C 45.203125 -64.675781 44.84375 -64.675781 44.488281 -64.675781 C 43.953125 -64.675781 43.59375 -64.675781 43.238281 -64.5 C 41.808594 -63.960938 40.199219 -64.140625 38.769531 -63.960938 C 38.414062 -63.960938 37.878906 -63.960938 37.519531 -63.960938 C 36.089844 -63.960938 34.660156 -63.960938 33.230469 -63.960938 C 31.625 -63.960938 30.195312 -63.960938 28.585938 -63.425781 C 28.050781 -63.246094 27.515625 -63.785156 27.515625 -64.5 C 27.691406 -65.210938 27.691406 -65.925781 27.871094 -66.464844 C 28.230469 -67.894531 28.765625 -69.144531 28.945312 -70.394531 C 29.300781 -73.96875 33.589844 -92.371094 34.839844 -95.050781 C 35.554688 -96.480469 35.910156 -98.085938 35.910156 -99.695312 C 35.734375 -101.480469 36.625 -103.089844 36.984375 -104.699219 C 37.164062 -105.414062 37.699219 -105.769531 38.414062 -105.949219 C 41.449219 -106.839844 44.488281 -107.734375 47.523438 -108.628906 C 50.382812 -109.523438 53.0625 -110.59375 55.921875 -111.308594 C 59.851562 -112.378906 63.960938 -113.09375 67.894531 -113.988281 C 69.5 -114.523438 71.289062 -114.882812 73.253906 -114.882812 C 73.789062 -114.882812 74.324219 -114.882812 74.859375 -115.058594 C 76.648438 -115.953125 77.539062 -116.132812 79.507812 -116.132812 C 80.042969 -116.132812 80.757812 -116.488281 81.472656 -116.667969 C 82.722656 -117.027344 83.972656 -117.742188 85.402344 -117.742188 C 85.582031 -117.742188 85.9375 -118.277344 85.757812 -118.453125 C 85.582031 -118.632812 85.222656 -118.8125 85.222656 -118.8125 C 84.152344 -118.277344 83.257812 -118.277344 82.1875 -118.277344 C 81.113281 -118.453125 80.21875 -117.5625 79.148438 -117.5625 C 78.792969 -117.5625 78.253906 -117.5625 77.898438 -117.5625 C 77.363281 -117.5625 77.003906 -117.5625 76.46875 -117.742188 C 76.824219 -118.453125 77.183594 -118.8125 77.71875 -118.8125 C 78.433594 -118.8125 78.96875 -118.8125 79.507812 -118.8125 C 80.21875 -118.8125 80.757812 -118.8125 81.113281 -118.992188 C 81.648438 -119.347656 87.011719 -120.242188 88.082031 -120.242188 C 88.617188 -120.242188 89.332031 -120.242188 90.046875 -120.242188 C 90.40625 -120.242188 90.582031 -120.242188 90.941406 -120.242188 C 91.121094 -120.421875 91.296875 -120.421875 91.65625 -120.421875 C 91.832031 -120.421875 92.011719 -120.421875 92.191406 -120.421875 C 93.441406 -120.957031 94.691406 -120.957031 95.941406 -120.957031 C 96.65625 -120.957031 97.371094 -120.957031 97.910156 -121.136719 C 99.160156 -121.671875 100.230469 -121.492188 101.304688 -121.671875 C 102.375 -121.671875 103.625 -122.207031 104.699219 -122.207031 C 107.199219 -122.207031 109.34375 -123.101562 111.84375 -123.101562 C 112.023438 -123.101562 112.203125 -123.101562 112.378906 -123.101562 C 112.203125 -123.992188 111.84375 -124.351562 111.308594 -124.351562 C 110.414062 -124.351562 109.34375 -124.53125 108.449219 -124.53125 C 107.378906 -124.53125 106.484375 -124.351562 105.414062 -123.992188 C 102.910156 -123.816406 88.261719 -122.921875 86.832031 -122.386719 C 86.652344 -122.386719 86.472656 -122.386719 86.296875 -122.386719 C 85.9375 -122.386719 85.582031 -122.386719 85.222656 -122.386719 C 84.507812 -122.386719 83.972656 -122.386719 83.4375 -122.207031 C 82.1875 -121.671875 80.933594 -121.671875 79.683594 -121.671875 C 78.96875 -121.671875 78.433594 -121.671875 77.71875 -121.671875 C 77.539062 -121.671875 77.183594 -121.671875 76.824219 -121.671875 C 76.46875 -121.671875 76.289062 -121.671875 75.933594 -121.492188 C 72.894531 -120.597656 69.859375 -120.242188 66.640625 -119.707031 C 63.425781 -119.167969 60.210938 -118.453125 56.992188 -117.917969 C 53.597656 -117.5625 50.382812 -116.3125 47.167969 -115.417969 C 43.953125 -114.34375 40.734375 -113.273438 37.519531 -112.203125 C 36.804688 -112.203125 36.269531 -112.203125 35.734375 -112.917969 C 34.839844 -114.703125 33.589844 -114.882812 31.800781 -114.882812 C 30.195312 -114.703125 29.121094 -113.632812 28.945312 -111.84375 C 28.945312 -110.773438 28.945312 -109.34375 28.765625 -108.269531 C 27.871094 -104.699219 27.515625 -101.304688 26.800781 -97.910156 C 26.265625 -95.050781 25.726562 -92.191406 25.191406 -89.152344 C 24.65625 -86.832031 23.941406 -84.6875 23.582031 -82.363281 C 23.226562 -80.21875 22.691406 -78.078125 22.332031 -75.933594 C 21.441406 -72.003906 20.546875 -67.894531 19.117188 -64.140625 C 18.9375 -63.960938 18.582031 -63.605469 18.402344 -63.605469 C 16.972656 -64.320312 15.363281 -63.785156 13.9375 -64.320312 C 12.507812 -64.675781 11.257812 -65.210938 10.71875 -66.820312 C 10.363281 -67.894531 9.828125 -68.785156 8.574219 -68.785156 C 8.039062 -69.320312 7.683594 -69.5 7.148438 -69.5 C 5.003906 -69.5 2.144531 -67 2.144531 -64.855469 C 2.324219 -61.640625 1.25 -58.421875 1.429688 -55.027344 C 1.429688 -54.671875 1.429688 -54.3125 1.25 -54.136719 C 0.714844 -52.886719 0.894531 -51.632812 0.894531 -50.382812 C 0.714844 -48.0625 0.714844 -45.738281 0.714844 -43.59375 C 0.714844 -42.878906 0.894531 -42.34375 0.714844 -41.808594 C 0 -40.558594 0.179688 -39.128906 0.179688 -37.878906 C 0.179688 -36.625 0.179688 -35.195312 0.179688 -33.945312 C 0.179688 -32.875 0.179688 -27.15625 0.535156 -26.621094 C 0.714844 -26.441406 0.714844 -26.085938 0.535156 -25.726562 C 0 -24.476562 0.179688 -23.226562 0.535156 -21.976562 C 0.714844 -21.261719 0.714844 -20.546875 0.714844 -19.652344 C 0.714844 -13.398438 0.714844 -7.148438 0.714844 -0.894531 C 0.714844 -0.179688 0.894531 0.355469 0.535156 0.894531 C -0.179688 2.324219 0.535156 3.394531 1.429688 4.109375 C 2.5 5.179688 3.753906 6.074219 4.824219 6.96875 C 5.179688 7.148438 5.539062 6.96875 5.71875 6.96875 C 6.609375 6.609375 7.148438 6.253906 7.683594 5.539062 C 8.21875 4.824219 8.753906 4.109375 9.289062 3.394531 C 9.828125 2.679688 10.003906 1.785156 9.648438 1.070312 C 9.113281 0 8.933594 -1.429688 9.289062 -2.5 C 9.828125 -3.753906 9.46875 -5.359375 10.71875 -6.253906 C 11.078125 -6.789062 11.078125 -7.324219 11.078125 -7.859375 C 11.078125 -8.933594 11.433594 -9.648438 11.792969 -10.542969 C 12.328125 -11.433594 12.683594 -12.328125 13.042969 -13.222656 C 13.9375 -15.542969 14.472656 -17.867188 15.363281 -20.011719 C 16.078125 -22.332031 16.078125 -24.835938 17.152344 -26.976562 C 17.152344 -28.585938 17.6875 -30.015625 18.582031 -31.445312 C 18.761719 -31.800781 18.582031 -32.339844 18.761719 -32.695312 C 19.117188 -34.480469 19.296875 -36.449219 19.832031 -38.054688 C 20.367188 -39.484375 20.546875 -40.914062 21.261719 -42.164062 C 21.617188 -43.058594 21.261719 -44.128906 21.441406 -45.023438 C 21.976562 -46.273438 22.15625 -47.882812 22.867188 -49.132812 C 23.761719 -50.5625 23.226562 -52.347656 23.761719 -53.777344 C 23.941406 -53.957031 24.121094 -54.3125 24.121094 -54.671875 C 24.296875 -55.742188 24.835938 -56.636719 24.835938 -57.707031 C 24.835938 -58.421875 25.726562 -59.136719 26.441406 -59.136719 C 26.976562 -59.136719 27.335938 -59.136719 27.871094 -59.136719 C 30.550781 -59.136719 33.054688 -59.136719 35.734375 -59.136719 C 36.089844 -59.136719 36.449219 -59.136719 36.804688 -59.136719 C 37.164062 -59.136719 37.519531 -59.136719 37.699219 -59.316406 C 38.949219 -59.851562 40.378906 -59.851562 41.628906 -59.851562 C 42.164062 -59.851562 42.878906 -59.851562 43.414062 -59.851562 C 44.128906 -59.851562 44.84375 -60.03125 45.558594 -60.210938 C 45.738281 -60.210938 45.917969 -60.390625 45.917969 -60.390625 C 46.453125 -60.390625 46.808594 -60.03125 47.167969 -60.03125 C 47.347656 -60.03125 47.523438 -60.210938 47.703125 -60.210938 C 48.238281 -60.566406 48.777344 -60.566406 49.3125 -60.566406 C 49.847656 -60.566406 50.382812 -60.566406 50.742188 -60.746094 C 51.277344 -60.925781 51.8125 -60.925781 52.347656 -60.925781 C 52.886719 -60.925781 53.421875 -60.925781 53.957031 -60.925781 C 54.3125 -60.925781 54.492188 -60.925781 54.851562 -60.925781 C 55.386719 -60.925781 55.921875 -60.925781 56.28125 -61.460938 C 56.101562 -61.28125 59.851562 -61.640625 60.925781 -61.996094 C 61.816406 -62.890625 63.070312 -63.070312 64.320312 -63.246094 Z M 24.121094 -68.785156 C 24.121094 -68.429688 24.121094 -67.894531 24.121094 -67.355469 C 24.296875 -67.355469 24.65625 -67.179688 24.65625 -67 C 24.65625 -66.285156 24.65625 -65.570312 24.65625 -64.675781 C 24.65625 -64.320312 23.941406 -63.960938 23.40625 -64.140625 C 22.867188 -64.320312 22.867188 -64.675781 22.867188 -65.210938 C 22.867188 -66.285156 24.121094 -66.464844 24.121094 -67.535156 C 23.40625 -68.070312 23.40625 -68.25 24.121094 -68.785156 C 24.296875 -69.320312 24.65625 -69.5 25.011719 -69.5 C 25.191406 -69.5 25.371094 -69.320312 25.726562 -69.320312 C 25.191406 -68.964844 24.65625 -68.785156 24.121094 -68.785156 Z M 9.648438 -20.726562 C 9.648438 -20.546875 9.648438 -20.1875 9.46875 -19.652344 C 9.46875 -19.832031 9.113281 -20.011719 9.289062 -20.1875 C 9.289062 -20.367188 9.648438 -20.546875 9.828125 -20.726562 C 9.828125 -21.261719 9.828125 -21.617188 9.828125 -22.15625 C 9.828125 -22.332031 10.183594 -22.332031 10.183594 -22.511719 C 10.183594 -22.332031 10.363281 -22.332031 10.363281 -22.15625 C 10.363281 -21.617188 10.542969 -21.082031 9.648438 -20.726562 Z M 9.648438 -12.507812 C 9.648438 -12.328125 9.648438 -11.96875 9.648438 -11.613281 C 9.289062 -11.613281 9.113281 -11.792969 9.113281 -11.96875 C 9.289062 -12.148438 9.648438 -12.328125 9.828125 -12.507812 C 9.648438 -13.9375 9.648438 -15.363281 10.542969 -16.617188 C 10.542969 -16.792969 10.71875 -16.972656 10.898438 -16.972656 C 10.898438 -16.792969 11.078125 -16.617188 11.078125 -16.4375 C 10.898438 -15.1875 10.542969 -14.113281 10.183594 -12.863281 C 10.183594 -12.863281 9.828125 -12.683594 9.648438 -12.507812 Z M 8.039062 -22.691406 C 7.324219 -25.011719 6.96875 -26.800781 6.96875 -28.585938 C 7.148438 -30.550781 6.96875 -32.695312 6.96875 -34.660156 C 6.96875 -35.910156 6.789062 -36.984375 6.433594 -38.054688 C 6.074219 -39.128906 7.148438 -40.019531 7.148438 -41.273438 C 6.96875 -43.058594 6.96875 -44.667969 6.96875 -46.453125 C 6.96875 -47.882812 6.789062 -49.3125 7.503906 -50.742188 C 7.683594 -51.097656 7.683594 -51.632812 7.683594 -52.171875 C 7.503906 -55.207031 7.859375 -58.246094 8.398438 -61.28125 C 8.574219 -61.460938 8.753906 -61.640625 8.933594 -61.816406 C 10.363281 -61.28125 11.96875 -60.566406 13.578125 -60.210938 C 14.652344 -60.03125 15.542969 -59.851562 16.617188 -59.851562 C 17.867188 -59.675781 18.222656 -59.136719 17.867188 -58.066406 C 16.078125 -53.242188 15.902344 -48.238281 13.9375 -43.59375 C 12.683594 -36.984375 10.183594 -29.300781 8.039062 -22.691406 Z M 16.792969 -38.054688 C 16.257812 -40.378906 16.972656 -42.34375 17.867188 -44.308594 C 18.402344 -45.558594 18.761719 -46.632812 18.761719 -47.882812 C 18.761719 -49.488281 20.726562 -56.457031 21.441406 -57.53125 C 21.441406 -57.886719 21.796875 -58.066406 21.976562 -58.246094 C 22.15625 -58.421875 22.511719 -58.246094 22.511719 -58.246094 C 22.332031 -57.171875 23.046875 -55.921875 22.332031 -55.027344 C 21.082031 -53.777344 21.082031 -52.171875 20.726562 -50.5625 C 20.726562 -50.027344 20.726562 -49.488281 20.367188 -49.3125 C 18.9375 -48.417969 19.117188 -46.988281 19.652344 -45.738281 C 19.832031 -45.203125 19.652344 -45.023438 19.296875 -44.667969 C 18.582031 -44.128906 18.046875 -43.414062 18.402344 -42.34375 C 18.582031 -42.164062 18.402344 -41.628906 18.222656 -41.449219 C 18.046875 -40.914062 17.6875 -40.558594 17.507812 -40.019531 C 17.332031 -39.664062 17.6875 -39.128906 17.6875 -38.769531 C 17.6875 -38.589844 17.152344 -38.414062 16.792969 -38.054688 Z M 29.660156 -87.1875 C 29.480469 -86.832031 29.660156 -86.652344 29.480469 -86.472656 C 28.40625 -85.757812 28.230469 -85.222656 28.765625 -83.972656 C 29.300781 -82.902344 28.765625 -81.828125 28.050781 -80.757812 C 28.050781 -80.757812 27.691406 -80.933594 27.515625 -80.933594 C 27.15625 -81.292969 26.800781 -81.648438 26.976562 -82.1875 C 27.15625 -83.972656 27.515625 -85.9375 28.40625 -87.546875 C 28.585938 -87.722656 28.765625 -87.902344 28.945312 -87.902344 C 29.480469 -87.722656 29.660156 -87.546875 29.660156 -87.1875 Z M 27.335938 -78.96875 C 27.691406 -77.71875 27.691406 -76.648438 27.515625 -75.574219 C 27.335938 -75.21875 26.976562 -74.859375 26.621094 -74.503906 C 26.621094 -74.503906 26.265625 -74.503906 26.085938 -74.503906 C 25.90625 -74.503906 25.726562 -74.683594 25.550781 -74.859375 C 25.371094 -76.46875 25.550781 -78.078125 27.335938 -78.96875 Z M 2.5 -43.414062 C 2.679688 -42.878906 2.859375 -42.699219 2.859375 -42.523438 C 2.859375 -40.378906 2.859375 -38.234375 2.859375 -36.089844 C 2.859375 -35.910156 2.679688 -35.734375 2.5 -35.375 C 2.144531 -36.625 2.324219 -37.878906 2.324219 -39.128906 C 2.324219 -40.558594 2.144531 -41.808594 2.5 -43.414062 Z M 3.039062 -48.0625 C 3.039062 -50.5625 3.039062 -52.886719 3.039062 -55.386719 C 3.753906 -54.136719 3.574219 -52.886719 3.574219 -51.632812 C 3.574219 -50.382812 3.574219 -49.132812 3.039062 -48.0625 Z M 13.578125 -23.40625 C 13.578125 -23.226562 13.398438 -22.867188 13.222656 -22.867188 C 12.683594 -22.691406 12.507812 -22.15625 12.507812 -21.617188 C 12.328125 -21.261719 12.148438 -20.902344 11.792969 -20.902344 C 11.078125 -21.082031 11.613281 -21.617188 11.792969 -21.976562 C 11.792969 -22.511719 11.792969 -23.046875 11.96875 -23.582031 C 11.96875 -23.941406 12.328125 -24.296875 12.683594 -24.65625 C 12.863281 -24.65625 13.578125 -23.761719 13.578125 -23.40625 Z M 16.972656 -35.554688 C 16.617188 -35.019531 16.257812 -34.480469 16.078125 -33.945312 C 15.722656 -33.230469 15.902344 -32.515625 15.1875 -32.160156 C 15.1875 -32.160156 15.007812 -31.980469 14.828125 -31.980469 C 14.828125 -31.980469 14.652344 -32.160156 14.652344 -32.339844 C 14.828125 -33.054688 15.363281 -35.734375 15.902344 -35.734375 C 16.078125 -35.734375 16.4375 -35.734375 16.972656 -35.554688 Z M 13.757812 -26.621094 C 13.578125 -26.621094 13.578125 -26.621094 13.222656 -26.800781 C 13.222656 -28.230469 13.9375 -29.300781 14.472656 -30.550781 C 14.472656 -30.730469 14.828125 -30.730469 15.007812 -30.730469 C 14.652344 -29.480469 14.652344 -28.40625 14.292969 -27.335938 C 14.292969 -26.976562 13.9375 -26.800781 13.757812 -26.621094 Z M 2.5 -27.15625 C 3.039062 -26.085938 2.859375 -25.011719 2.679688 -23.941406 C 2.144531 -25.011719 2.5 -26.085938 2.5 -27.15625 Z M 26.800781 -72.894531 C 26.621094 -72.894531 26.621094 -72.539062 26.441406 -72.539062 C 26.265625 -72.359375 26.085938 -72.359375 25.90625 -72.359375 C 25.550781 -72.359375 25.371094 -72.359375 25.191406 -72.539062 C 25.011719 -72.539062 25.011719 -72.894531 25.011719 -73.074219 C 25.191406 -73.609375 25.550781 -73.609375 26.085938 -73.609375 C 26.441406 -73.609375 26.621094 -73.429688 26.800781 -72.894531 Z M 71.824219 -116.847656 C 72.894531 -117.382812 73.253906 -117.742188 73.609375 -117.917969 C 73.789062 -117.917969 74.144531 -117.917969 74.144531 -117.742188 C 74.324219 -117.742188 74.503906 -117.5625 74.503906 -117.382812 C 74.683594 -117.203125 74.324219 -117.027344 74.324219 -117.027344 C 73.789062 -116.847656 73.253906 -116.847656 71.824219 -116.847656 Z M 3.214844 -14.828125 C 2.859375 -15.542969 2.859375 -16.257812 3.214844 -16.972656 C 3.574219 -16.257812 3.574219 -15.722656 3.214844 -14.828125 Z M 12.507812 -29.480469 C 12.507812 -29.300781 12.507812 -29.121094 12.328125 -29.121094 C 12.328125 -28.945312 12.148438 -28.765625 12.148438 -28.585938 C 11.96875 -28.945312 11.96875 -29.121094 11.96875 -29.300781 C 11.96875 -29.480469 12.148438 -29.835938 12.148438 -30.015625 C 12.328125 -29.835938 12.328125 -29.660156 12.507812 -29.480469 Z M 11.433594 -25.90625 C 11.078125 -26.085938 11.078125 -26.976562 11.433594 -27.15625 C 11.433594 -27.335938 11.613281 -27.335938 11.613281 -27.15625 C 11.792969 -26.976562 11.792969 -26.265625 11.613281 -26.085938 C 11.613281 -25.90625 11.433594 -25.90625 11.433594 -25.90625 Z M 8.933594 -16.257812 C 8.753906 -16.4375 8.574219 -16.4375 8.574219 -16.4375 C 8.574219 -16.617188 8.398438 -16.972656 8.574219 -17.332031 C 8.574219 -17.507812 8.753906 -17.507812 8.753906 -17.6875 C 8.933594 -17.507812 8.933594 -17.332031 8.933594 -17.152344 C 9.113281 -16.972656 8.933594 -16.617188 8.933594 -16.257812 Z M 17.332031 -47.167969 C 17.332031 -46.988281 17.332031 -46.808594 17.152344 -46.808594 C 17.152344 -46.632812 17.152344 -46.632812 16.972656 -46.453125 C 16.972656 -46.632812 16.792969 -46.808594 16.792969 -46.988281 C 16.792969 -47.347656 16.792969 -47.523438 16.972656 -47.882812 C 17.152344 -47.523438 17.152344 -47.347656 17.332031 -47.167969 Z M 14.472656 -35.734375 C 14.113281 -35.734375 13.9375 -35.910156 13.9375 -35.910156 C 13.9375 -36.269531 14.113281 -36.625 14.113281 -36.984375 C 14.472656 -36.449219 14.472656 -36.089844 14.472656 -35.734375 Z M 29.480469 -92.011719 C 29.121094 -92.011719 29.121094 -92.191406 29.121094 -92.371094 C 29.480469 -92.371094 29.480469 -92.191406 29.480469 -92.011719 Z M 68.429688 -116.667969 C 68.429688 -116.488281 68.429688 -116.488281 68.429688 -116.3125 C 68.25 -116.132812 67.535156 -116.3125 67.714844 -116.488281 C 68.070312 -116.667969 68.25 -116.667969 68.429688 -116.667969 Z M 14.652344 -39.128906 C 14.652344 -39.304688 14.828125 -39.484375 15.007812 -39.664062 C 15.1875 -39.304688 15.007812 -38.949219 14.828125 -38.949219 C 14.828125 -38.949219 14.652344 -39.128906 14.652344 -39.128906 Z M 13.398438 -33.589844 C 13.398438 -33.769531 13.398438 -33.945312 13.757812 -34.125 C 13.9375 -33.945312 13.757812 -33.410156 13.578125 -33.410156 C 13.398438 -33.410156 13.398438 -33.589844 13.398438 -33.589844 Z M 17.6875 -50.027344 C 17.6875 -49.847656 17.867188 -49.667969 17.867188 -49.667969 C 17.867188 -49.488281 17.6875 -49.3125 17.6875 -49.132812 C 17.507812 -49.3125 17.332031 -49.3125 17.507812 -49.488281 C 17.507812 -49.667969 17.507812 -49.847656 17.6875 -50.027344 Z M 18.402344 -52.707031 C 18.402344 -52.347656 18.402344 -52.171875 18.402344 -51.992188 C 18.222656 -51.992188 18.046875 -52.171875 18.222656 -52.171875 C 18.222656 -52.347656 18.222656 -52.527344 18.402344 -52.707031 Z M 15.542969 -41.808594 C 15.722656 -41.628906 15.722656 -41.449219 15.722656 -41.273438 C 15.722656 -41.09375 15.722656 -41.09375 15.542969 -40.914062 C 15.542969 -41.273438 15.542969 -41.449219 15.542969 -41.808594 Z M 24.476562 -71.289062 C 24.65625 -71.109375 24.835938 -70.929688 24.65625 -70.929688 C 24.65625 -70.75 24.65625 -70.574219 24.476562 -70.394531 C 24.476562 -70.75 24.476562 -70.929688 24.476562 -71.289062 Z M 12.683594 -31.980469 C 12.863281 -31.980469 13.042969 -31.800781 13.042969 -31.625 C 13.042969 -31.445312 12.863281 -31.445312 12.863281 -31.265625 C 12.683594 -31.625 12.683594 -31.800781 12.683594 -31.980469 Z M 2.5 -28.585938 C 2.5 -28.765625 2.5 -28.945312 2.324219 -29.121094 C 2.324219 -29.300781 2.5 -29.300781 2.5 -29.480469 C 2.679688 -29.300781 2.679688 -29.121094 2.859375 -28.945312 C 2.859375 -28.765625 2.679688 -28.765625 2.5 -28.585938 Z M 11.078125 -24.121094 C 10.898438 -23.941406 10.898438 -23.941406 10.71875 -23.761719 C 10.71875 -24.121094 10.71875 -24.296875 10.71875 -24.65625 C 10.898438 -24.476562 10.898438 -24.296875 11.078125 -24.121094 Z M 69.859375 -116.488281 L 69.679688 -116.488281 L 69.859375 -116.667969 Z M 18.9375 -54.851562 L 19.117188 -54.851562 L 18.9375 -54.671875 Z M 19.652344 -58.246094 L 19.832031 -58.246094 L 19.652344 -58.066406 Z M 16.257812 -44.488281 L 16.4375 -44.488281 L 16.257812 -44.308594 Z M 2.679688 -45.917969 L 2.679688 -45.738281 L 2.5 -45.917969 Z M 89.511719 -118.632812 C 88.796875 -118.632812 88.082031 -118.632812 87.546875 -118.632812 C 87.722656 -118.453125 87.902344 -118.277344 88.082031 -118.277344 C 88.4375 -118.277344 88.796875 -118.453125 89.511719 -118.632812 Z M 114.34375 -123.992188 C 114.167969 -124.171875 113.988281 -124.171875 113.808594 -124.171875 C 113.808594 -123.992188 113.988281 -123.816406 113.988281 -123.816406 C 114.167969 -123.816406 114.34375 -123.992188 114.34375 -123.992188 Z M 114.34375 -123.992188 "/></g></g></g><g fill="#845b3c" fill-opacity="1"><g transform="translate(314.42153, 399.671162)"><g><path d="M 29.300781 -46.988281 C 29.835938 -48.238281 30.015625 -49.488281 30.015625 -50.742188 C 30.910156 -51.277344 31.980469 -52.171875 32.160156 -53.421875 C 32.695312 -55.027344 34.304688 -55.921875 35.019531 -57.351562 C 37.164062 -58.421875 39.304688 -60.210938 41.808594 -60.925781 C 44.667969 -61.996094 47.703125 -62.890625 50.742188 -63.425781 C 53.421875 -63.785156 56.28125 -64.5 58.78125 -65.390625 C 60.746094 -66.285156 62.710938 -66.285156 64.855469 -66.285156 C 65.75 -66.285156 66.464844 -66.285156 67.355469 -66.640625 C 67.894531 -67 68.429688 -67 69.144531 -67 C 69.679688 -67 70.035156 -67 70.394531 -67 C 71.824219 -67 72.179688 -66.820312 71.824219 -64.140625 C 71.824219 -63.960938 71.644531 -63.785156 71.644531 -63.425781 C 72.179688 -61.28125 71.824219 -59.136719 72.003906 -56.992188 C 72.003906 -54.492188 72.179688 -52.171875 72.003906 -49.667969 C 72.003906 -46.988281 73.074219 -44.667969 72.714844 -41.984375 C 73.429688 -40.019531 73.429688 -37.878906 73.429688 -35.734375 C 73.429688 -35.554688 73.429688 -35.195312 73.789062 -35.019531 C 74.683594 -33.054688 73.96875 -30.730469 74.859375 -28.945312 C 75.039062 -25.550781 76.46875 -19.117188 77.003906 -15.902344 C 77.363281 -13.042969 79.863281 -6.789062 79.863281 -3.929688 C 80.042969 -3.574219 80.21875 -3.039062 80.398438 -2.679688 C 81.828125 1.609375 83.972656 5.71875 86.472656 9.46875 C 87.367188 11.257812 89.332031 11.433594 91.476562 11.613281 C 91.832031 11.433594 92.191406 11.257812 92.191406 10.898438 C 92.371094 10.363281 92.191406 10.183594 91.832031 10.003906 C 91.476562 9.648438 90.941406 9.46875 90.40625 9.289062 C 86.832031 8.039062 83.257812 -2.5 82.542969 -5.71875 C 80.933594 -9.828125 82.007812 -11.078125 80.398438 -14.652344 C 79.863281 -15.363281 80.757812 -15.902344 80.398438 -16.4375 C 80.042969 -17.507812 80.21875 -21.261719 80.21875 -22.332031 C 80.042969 -23.046875 79.507812 -23.941406 79.507812 -25.011719 C 79.507812 -27.691406 79.148438 -30.375 78.078125 -32.875 C 78.253906 -34.660156 77.183594 -35.910156 77.183594 -37.519531 C 77.363281 -39.128906 77.539062 -40.914062 76.648438 -42.699219 C 76.46875 -42.878906 76.648438 -43.59375 76.824219 -43.953125 C 77.003906 -44.488281 77.183594 -45.023438 77.003906 -45.382812 C 76.46875 -46.273438 76.46875 -47.347656 76.46875 -48.238281 C 76.46875 -53.597656 76.648438 -58.960938 76.46875 -64.675781 C 76.46875 -66.464844 76.824219 -68.070312 78.253906 -69.5 C 78.433594 -69.5 78.433594 -69.859375 78.433594 -70.214844 C 78.253906 -70.574219 78.253906 -71.289062 77.898438 -71.644531 C 76.824219 -73.253906 76.289062 -74.859375 77.183594 -77.003906 C 77.71875 -78.078125 77.003906 -79.863281 77.898438 -81.113281 C 78.078125 -81.292969 77.898438 -82.007812 77.898438 -82.363281 C 77.71875 -84.507812 78.253906 -86.296875 79.148438 -88.261719 C 79.148438 -88.796875 79.328125 -89.152344 79.328125 -89.867188 C 79.863281 -95.40625 86.652344 -117.5625 88.976562 -121.136719 C 90.226562 -123.636719 91.296875 -126.316406 91.65625 -129.53125 C 91.832031 -130.78125 92.011719 -132.035156 91.476562 -133.285156 C 91.296875 -134 91.476562 -135.070312 90.761719 -135.785156 C 89.511719 -137.570312 87.367188 -137.929688 85.402344 -138.464844 C 84.6875 -138.109375 83.792969 -138.109375 83.078125 -137.570312 C 81.472656 -135.785156 79.507812 -134.535156 77.71875 -132.925781 C 75.574219 -130.78125 73.253906 -128.640625 72.179688 -125.957031 C 72.003906 -125.78125 71.824219 -125.78125 71.824219 -125.78125 C 71.824219 -125.78125 71.464844 -126.136719 71.644531 -126.136719 C 72.894531 -128.101562 71.644531 -130.066406 70.929688 -131.675781 C 70.574219 -132.75 69.679688 -133.460938 68.785156 -134 C 68.429688 -134.355469 68.070312 -134.355469 67.714844 -134.355469 C 66.820312 -134.355469 66.285156 -133.820312 66.285156 -132.75 C 66.285156 -130.78125 65.570312 -128.816406 64.855469 -127.210938 C 64.320312 -125.957031 63.960938 -124.886719 63.425781 -123.636719 C 62.890625 -122.207031 62.355469 -120.777344 61.640625 -119.167969 C 60.390625 -117.027344 58.960938 -114.703125 57.707031 -112.378906 C 54.851562 -106.664062 51.992188 -101.125 48.777344 -95.765625 C 47.703125 -93.800781 46.632812 -92.011719 45.558594 -90.046875 C 44.308594 -87.546875 42.699219 -85.222656 41.808594 -82.542969 C 40.914062 -80.933594 39.84375 -79.507812 39.128906 -77.71875 C 36.625 -73.609375 34.125 -69.5 32.160156 -65.035156 C 31.085938 -63.070312 30.195312 -60.925781 28.050781 -60.03125 C 26.441406 -59.136719 24.835938 -57.886719 22.867188 -57.53125 C 21.796875 -57.351562 20.902344 -57.171875 20.1875 -56.28125 C 19.472656 -55.566406 18.046875 -56.101562 17.152344 -55.386719 C 16.792969 -55.207031 16.078125 -55.027344 15.722656 -54.851562 C 15.007812 -53.957031 14.113281 -53.777344 13.222656 -53.421875 C 11.96875 -53.0625 10.71875 -52.527344 9.648438 -51.632812 C 2.859375 -48.417969 -3.394531 -43.773438 -6.609375 -36.804688 C -7.148438 -35.554688 -7.324219 -33.945312 -6.789062 -32.695312 C -6.789062 -32.339844 -6.074219 -31.800781 -5.71875 -31.625 C -5.359375 -31.445312 -4.824219 -32.160156 -4.824219 -32.695312 L -4.824219 -34.660156 C -4.824219 -35.375 -4.464844 -35.910156 -3.929688 -36.449219 C -2.324219 -37.699219 -0.535156 -38.589844 0.179688 -40.558594 C 0.355469 -40.734375 0.535156 -40.914062 0.714844 -40.914062 C 4.644531 -43.238281 8.039062 -46.09375 12.148438 -47.882812 C 13.9375 -48.417969 15.1875 -50.027344 16.972656 -50.382812 C 17.332031 -50.382812 17.507812 -50.5625 17.507812 -50.742188 C 18.046875 -52.171875 19.296875 -52.347656 20.546875 -52.347656 C 21.082031 -52.347656 21.796875 -52.707031 22.332031 -53.0625 C 23.046875 -53.421875 24.121094 -53.777344 25.011719 -53.777344 C 25.371094 -53.777344 25.726562 -53.777344 25.90625 -53.597656 C 24.476562 -50.742188 22.691406 -47.703125 20.902344 -44.84375 C 19.832031 -42.699219 18.9375 -40.734375 17.507812 -38.769531 C 14.828125 -34.660156 12.328125 -30.195312 10.003906 -25.726562 C 8.933594 -23.582031 8.398438 -21.082031 6.609375 -19.296875 C 6.074219 -18.9375 5.71875 -18.402344 5.894531 -18.046875 C 6.074219 -17.152344 5.539062 -16.4375 5.003906 -15.902344 C 2.5 -11.792969 0.179688 -7.683594 -0.714844 -2.859375 C -1.785156 -0.714844 -0.714844 1.429688 -0.179688 3.574219 C 0.179688 4.289062 1.070312 4.644531 1.785156 4.644531 C 2.324219 4.644531 2.859375 4.464844 3.214844 4.109375 C 3.574219 3.929688 3.929688 3.394531 4.289062 2.859375 C 5.179688 1.964844 5.179688 0.179688 6.074219 -0.714844 C 7.683594 -2.324219 8.398438 -3.929688 8.574219 -5.894531 C 8.933594 -6.609375 9.113281 -7.683594 9.289062 -8.398438 C 9.46875 -9.289062 9.828125 -10.363281 10.71875 -10.898438 C 12.148438 -11.433594 12.683594 -12.863281 13.398438 -14.113281 C 14.472656 -15.542969 14.472656 -17.332031 15.542969 -18.402344 C 15.542969 -18.402344 15.363281 -18.761719 15.1875 -18.9375 C 14.472656 -19.117188 14.828125 -19.652344 15.007812 -20.011719 C 15.1875 -21.082031 16.078125 -20.546875 16.617188 -20.902344 C 17.507812 -23.046875 18.582031 -25.011719 19.472656 -26.800781 C 20.1875 -28.765625 20.902344 -30.550781 21.976562 -32.160156 C 23.046875 -33.945312 24.121094 -35.734375 24.65625 -37.699219 C 25.011719 -38.414062 25.191406 -39.128906 25.550781 -39.84375 C 27.15625 -41.984375 28.050781 -44.488281 29.300781 -46.988281 Z M 72.894531 -82.007812 C 73.074219 -78.433594 71.824219 -75.398438 72.179688 -71.644531 C 59.851562 -70.214844 50.742188 -68.070312 39.128906 -64.140625 C 39.128906 -64.855469 38.949219 -65.035156 39.128906 -65.210938 C 40.558594 -68.070312 41.628906 -71.109375 43.414062 -73.609375 C 43.773438 -73.789062 43.773438 -73.789062 43.773438 -73.96875 C 43.953125 -75.753906 44.84375 -77.183594 45.917969 -78.433594 C 46.988281 -79.863281 47.523438 -81.292969 48.777344 -82.722656 C 49.132812 -82.902344 49.3125 -83.257812 49.3125 -83.613281 C 49.488281 -83.972656 53.242188 -92.191406 53.242188 -92.191406 C 55.386719 -95.585938 57.707031 -98.980469 59.851562 -102.554688 C 60.746094 -103.984375 61.640625 -105.589844 62.355469 -107.378906 C 63.425781 -109.878906 65.035156 -112.023438 67 -113.988281 C 68.429688 -115.597656 69.859375 -117.5625 71.289062 -119.527344 C 72.179688 -120.597656 73.074219 -122.027344 74.683594 -122.742188 C 75.039062 -122.742188 75.21875 -123.101562 75.398438 -123.277344 L 78.792969 -126.671875 C 79.683594 -128.101562 81.292969 -128.816406 82.007812 -130.246094 C 82.722656 -131.496094 84.328125 -131.320312 85.402344 -132.035156 C 85.582031 -132.035156 85.757812 -131.496094 85.9375 -131.320312 L 85.9375 -130.78125 C 85.402344 -128.640625 84.867188 -126.496094 83.972656 -124.53125 C 79.683594 -115.953125 75.933594 -99.515625 74.324219 -90.40625 C 74.144531 -89.152344 73.789062 -87.902344 73.429688 -86.472656 C 73.429688 -85.222656 73.429688 -83.792969 72.894531 -82.542969 C 72.714844 -82.363281 72.714844 -82.1875 72.894531 -82.007812 Z M 75.933594 -82.007812 L 75.933594 -82.363281 L 76.289062 -82.363281 Z M 75.574219 -74.859375 L 75.21875 -74.683594 L 75.398438 -75.039062 Z M 75.574219 -74.859375 "/></g></g></g><g fill="#845b3c" fill-opacity="1"><g transform="translate(406.254869, 399.671162)"><g><path d="M 51.097656 -0.894531 C 50.5625 -0.894531 50.5625 -0.535156 50.382812 -0.179688 C 50.203125 0 49.847656 0.179688 49.488281 0.355469 C 49.3125 1.25 48.417969 1.25 48.0625 1.964844 C 47.882812 2.5 47.523438 2.5 46.988281 2.5 C 46.808594 2.5 46.632812 2.5 46.453125 2.5 C 45.917969 2.5 45.382812 2.5 44.84375 2.5 C 45.558594 1.609375 46.632812 1.429688 46.808594 0.355469 C 45.917969 0.355469 45.023438 0.355469 43.773438 0.355469 C 43.773438 0.894531 43.59375 1.070312 43.238281 1.070312 C 43.058594 1.070312 42.878906 0.894531 42.699219 0.894531 C 42.878906 0.894531 42.878906 0.714844 43.058594 0.714844 C 43.238281 0.714844 43.59375 0.355469 43.953125 0.355469 C 44.667969 -0.714844 45.917969 -0.535156 46.988281 -0.894531 C 47.167969 -1.070312 47.523438 -0.894531 47.882812 -0.714844 C 47.523438 -0.179688 46.808594 -0.179688 46.808594 0.355469 C 47.703125 0.355469 48.597656 0.355469 49.488281 0.355469 C 49.488281 0 49.488281 -0.355469 49.3125 -0.535156 C 49.3125 -0.894531 49.132812 -1.25 49.132812 -1.429688 C 49.3125 -1.785156 49.488281 -1.964844 50.027344 -2.144531 C 50.5625 -2.5 51.457031 -2.324219 51.992188 -2.859375 C 53.0625 -4.289062 54.851562 -5.179688 56.457031 -6.253906 C 58.246094 -7.324219 60.390625 -8.039062 61.816406 -9.648438 C 62.175781 -10.183594 62.53125 -10.363281 63.070312 -10.363281 C 63.425781 -10.363281 63.605469 -10.183594 63.960938 -10.183594 C 66.105469 -8.933594 68.070312 -8.933594 70.035156 -8.21875 C 70.929688 -7.859375 72.003906 -7.859375 72.714844 -7.503906 C 76.824219 -5.359375 80.398438 -3.574219 84.152344 -0.714844 C 84.6875 -0.355469 85.222656 0.179688 85.582031 0.894531 C 86.652344 2.5 87.546875 3.929688 87.367188 5.71875 C 87.367188 6.433594 87.546875 6.96875 87.722656 7.503906 C 87.902344 8.574219 88.082031 9.648438 87.546875 10.542969 C 87.367188 11.257812 87.1875 11.792969 87.722656 12.328125 C 88.617188 11.792969 89.332031 10.898438 89.332031 9.828125 C 89.511719 9.289062 89.511719 8.753906 89.691406 8.21875 C 90.226562 6.96875 90.046875 5.539062 89.691406 4.289062 C 88.796875 2.144531 88.082031 -0.355469 86.832031 -2.5 C 86.652344 -2.859375 86.296875 -3.574219 85.9375 -3.929688 C 82.722656 -7.859375 79.328125 -10.363281 74.859375 -12.507812 C 73.789062 -12.863281 73.96875 -14.113281 73.074219 -14.472656 C 72.894531 -14.292969 72.894531 -14.113281 72.714844 -13.9375 C 72.359375 -14.472656 72.894531 -14.292969 73.074219 -14.292969 C 73.429688 -15.363281 73.96875 -16.078125 74.859375 -16.4375 C 75.574219 -16.078125 76.289062 -15.722656 77.003906 -15.542969 C 78.253906 -17.6875 80.398438 -19.117188 82.1875 -21.261719 C 81.828125 -21.796875 80.757812 -21.796875 80.933594 -22.511719 C 81.292969 -23.582031 82.1875 -23.582031 83.078125 -23.582031 C 83.613281 -23.582031 83.972656 -23.582031 84.507812 -23.582031 C 85.9375 -23.761719 85.582031 -25.011719 86.117188 -25.371094 C 87.011719 -26.085938 87.546875 -26.441406 88.082031 -27.15625 C 88.617188 -27.515625 88.796875 -28.050781 88.796875 -28.765625 C 88.617188 -28.765625 88.4375 -28.945312 88.261719 -28.945312 C 88.617188 -29.300781 88.617188 -28.765625 88.617188 -28.585938 C 89.867188 -29.121094 90.761719 -29.835938 91.296875 -31.265625 C 91.65625 -32.515625 92.546875 -33.410156 93.800781 -34.125 C 94.335938 -34.480469 94.691406 -35.195312 95.050781 -35.734375 C 95.765625 -37.519531 96.835938 -38.949219 97.730469 -40.734375 C 98.265625 -42.34375 99.335938 -43.773438 99.875 -45.382812 C 100.050781 -45.738281 100.230469 -46.09375 100.410156 -46.273438 C 101.304688 -46.632812 101.304688 -47.347656 101.480469 -48.0625 C 101.660156 -48.777344 101.839844 -49.667969 102.195312 -50.203125 C 103.269531 -51.277344 103.804688 -52.527344 103.625 -53.957031 C 103.625 -54.3125 103.804688 -54.851562 104.160156 -55.027344 C 105.054688 -55.921875 105.234375 -57.171875 105.414062 -58.421875 C 105.769531 -59.496094 105.949219 -60.746094 106.664062 -61.816406 C 107.734375 -63.785156 107.019531 -65.75 108.449219 -67.355469 C 108.628906 -67.535156 108.449219 -68.070312 108.628906 -68.25 C 108.984375 -70.75 109.34375 -73.429688 109.34375 -75.933594 C 109.34375 -76.824219 109.523438 -77.71875 109.699219 -78.792969 C 110.234375 -80.578125 110.234375 -82.363281 109.699219 -84.328125 C 109.34375 -86.652344 108.984375 -89.152344 108.808594 -91.476562 C 108.449219 -93.621094 107.734375 -95.765625 106.484375 -97.550781 C 105.589844 -99.335938 104.699219 -101.304688 103.625 -103.089844 C 100.945312 -108.269531 93.085938 -116.847656 87.902344 -118.632812 C 87.011719 -118.8125 86.117188 -119.347656 85.757812 -119.882812 C 84.867188 -121.3125 83.792969 -121.847656 82.1875 -121.847656 C 80.933594 -121.847656 80.042969 -122.386719 78.96875 -122.5625 C 78.433594 -122.742188 77.898438 -123.101562 77.363281 -123.101562 C 73.96875 -123.636719 71.644531 -123.816406 68.25 -123.816406 C 67.535156 -123.816406 66.640625 -123.816406 65.925781 -124.171875 C 65.210938 -124.351562 64.5 -124.53125 63.960938 -124.53125 C 63.070312 -124.53125 62.355469 -124.351562 61.640625 -124.171875 C 60.746094 -123.992188 60.210938 -123.816406 59.496094 -123.816406 C 58.78125 -123.816406 58.066406 -123.992188 56.992188 -124.351562 C 57.886719 -125.421875 58.78125 -126.496094 60.390625 -127.03125 C 61.28125 -127.566406 62.355469 -127.925781 63.246094 -128.640625 C 64.5 -129.710938 65.75 -130.78125 67.355469 -131.320312 C 69.144531 -133.105469 71.824219 -133.460938 74.144531 -134.175781 C 74.859375 -134.355469 75.398438 -134.355469 76.109375 -134.355469 C 77.539062 -134.355469 78.792969 -134 79.863281 -132.75 C 80.21875 -132.570312 80.578125 -132.210938 80.933594 -131.855469 C 81.472656 -131.675781 81.828125 -131.675781 82.007812 -131.675781 C 82.363281 -131.675781 82.722656 -131.675781 83.078125 -131.855469 C 83.792969 -132.035156 83.792969 -132.75 83.792969 -133.285156 C 83.613281 -134.175781 83.972656 -135.070312 83.257812 -135.785156 C 81.828125 -137.570312 79.863281 -138.464844 77.71875 -138.824219 C 77.539062 -138.824219 77.363281 -138.824219 77.183594 -138.824219 C 75.753906 -138.824219 74.324219 -138.285156 72.894531 -138.109375 C 71.464844 -138.109375 70.035156 -137.570312 68.785156 -137.035156 C 64.320312 -134.890625 60.03125 -132.390625 55.921875 -129.890625 C 52.707031 -127.925781 50.203125 -125.246094 47.167969 -123.101562 C 46.09375 -122.386719 45.023438 -121.492188 43.414062 -121.136719 C 42.34375 -120.777344 41.273438 -120.0625 40.378906 -119.527344 C 38.769531 -118.453125 37.164062 -117.5625 35.554688 -116.667969 C 33.054688 -115.417969 30.910156 -113.453125 28.765625 -112.023438 C 26.621094 -110.773438 25.011719 -108.984375 24.121094 -106.839844 C 24.296875 -106.664062 24.65625 -106.664062 25.191406 -106.484375 C 25.011719 -106.304688 24.835938 -106.128906 24.65625 -106.304688 C 24.476562 -106.304688 24.296875 -106.664062 24.121094 -106.839844 C 23.761719 -106.664062 23.046875 -106.664062 22.691406 -106.484375 C 21.617188 -105.769531 20.726562 -104.875 20.011719 -103.625 C 18.582031 -100.765625 16.972656 -97.730469 15.902344 -94.871094 C 15.542969 -93.441406 15.1875 -92.191406 14.828125 -91.121094 C 13.757812 -87.011719 13.042969 -82.722656 12.507812 -78.613281 C 12.507812 -75.21875 8.574219 -66.640625 6.96875 -63.785156 C 5.003906 -59.136719 3.929688 -54.3125 2.144531 -49.488281 C 1.964844 -49.132812 1.964844 -48.777344 1.964844 -48.597656 C 1.609375 -46.453125 1.070312 -44.667969 0.894531 -42.699219 C 0.535156 -40.199219 -0.179688 -38.054688 -0.179688 -35.554688 C -0.179688 -31.800781 -0.179688 -27.871094 -0.179688 -23.941406 C -0.179688 -23.226562 -0.355469 -22.511719 0 -21.796875 C 0.535156 -20.1875 0.179688 -18.402344 0.714844 -16.972656 C 1.429688 -15.363281 1.070312 -13.757812 1.25 -12.148438 C 1.429688 -11.433594 1.609375 -10.71875 1.964844 -10.183594 C 2.679688 -8.753906 3.574219 -7.683594 3.929688 -6.253906 C 4.644531 -4.109375 7.324219 -0.355469 8.933594 1.25 C 11.078125 2.859375 13.222656 4.644531 15.363281 6.253906 C 15.722656 6.609375 16.078125 6.789062 16.617188 6.789062 C 17.507812 6.789062 18.582031 7.148438 19.296875 7.683594 C 20.011719 8.21875 20.726562 8.398438 21.441406 8.398438 C 21.796875 8.398438 22.15625 8.21875 22.511719 8.21875 C 22.332031 7.859375 22.332031 7.503906 22.15625 6.96875 C 23.941406 6.96875 25.371094 6.96875 26.800781 6.96875 C 27.335938 6.96875 27.515625 7.503906 27.335938 8.039062 C 27.15625 8.398438 26.976562 8.933594 27.691406 8.933594 C 28.230469 8.933594 29.121094 8.398438 29.480469 8.574219 C 29.660156 8.574219 29.835938 8.753906 30.015625 8.753906 C 30.550781 8.753906 30.910156 8.21875 31.265625 7.859375 C 31.625 7.503906 31.800781 6.789062 32.160156 6.433594 C 32.339844 6.074219 32.695312 5.539062 33.054688 5.359375 C 34.125 5.359375 35.195312 5.359375 36.089844 5.359375 C 36.449219 5.359375 36.984375 5.359375 37.339844 5.359375 C 38.054688 5.539062 38.769531 6.433594 39.664062 6.789062 C 39.664062 6.789062 40.199219 6.609375 40.199219 6.609375 C 40.019531 5.894531 40.019531 5.359375 40.378906 5.359375 C 40.558594 5.359375 40.734375 5.539062 40.914062 5.539062 C 41.273438 5.894531 41.449219 6.074219 41.808594 6.074219 C 41.984375 6.074219 42.34375 5.894531 42.699219 5.539062 C 43.238281 5.003906 43.773438 3.929688 44.667969 4.109375 C 45.738281 4.109375 46.632812 3.394531 47.523438 3.394531 C 47.703125 3.394531 48.0625 3.394531 48.238281 3.574219 C 48.597656 3.929688 48.953125 3.574219 49.132812 3.214844 C 50.027344 1.609375 51.457031 1.429688 52.886719 0.894531 C 52.707031 0.179688 52.347656 0 51.992188 -0.179688 C 51.632812 -0.355469 51.097656 -0.535156 51.097656 -1.070312 Z M 69.5 -15.902344 C 69.5 -16.4375 69.679688 -16.617188 70.214844 -16.617188 C 70.394531 -17.6875 71.289062 -18.046875 72.359375 -18.046875 C 72.359375 -18.402344 72.714844 -18.582031 73.074219 -18.761719 C 73.789062 -20.1875 75.039062 -21.261719 76.46875 -22.15625 C 76.648438 -22.332031 77.003906 -22.332031 77.363281 -22.332031 C 77.363281 -22.691406 77.71875 -22.867188 78.078125 -23.046875 C 78.078125 -23.40625 78.253906 -23.582031 78.792969 -23.582031 C 78.96875 -24.476562 79.328125 -24.835938 80.042969 -25.011719 C 80.578125 -26.265625 81.472656 -26.800781 82.363281 -27.335938 C 82.363281 -27.691406 82.722656 -27.871094 83.078125 -27.871094 C 83.078125 -28.050781 83.257812 -28.230469 83.257812 -28.40625 C 83.613281 -27.871094 83.078125 -28.050781 82.902344 -28.050781 C 82.902344 -27.515625 82.722656 -27.335938 82.363281 -27.335938 C 82.007812 -25.550781 81.828125 -25.371094 80.042969 -25.011719 C 79.863281 -23.941406 79.863281 -23.941406 78.613281 -23.761719 C 78.613281 -23.226562 78.433594 -23.046875 78.078125 -23.046875 C 77.898438 -22.511719 77.71875 -22.332031 77.363281 -22.332031 C 76.648438 -20.902344 75.039062 -19.832031 73.96875 -18.9375 C 73.789062 -18.761719 73.429688 -18.761719 73.074219 -18.761719 C 73.074219 -18.222656 72.714844 -18.046875 72.359375 -18.046875 C 72.003906 -16.972656 71.289062 -16.617188 70.035156 -16.617188 C 70.035156 -16.257812 69.859375 -16.078125 69.5 -15.902344 C 69.320312 -15.722656 69.144531 -15.722656 69.144531 -15.542969 C 68.785156 -16.078125 69.320312 -15.902344 69.5 -15.902344 Z M 22.15625 -102.195312 C 22.867188 -102.375 23.40625 -102.554688 23.761719 -102.910156 C 24.121094 -102.554688 23.582031 -102.730469 23.226562 -102.554688 C 23.226562 -102.195312 23.046875 -102.019531 22.691406 -102.019531 C 22.511719 -102.019531 22.332031 -102.019531 22.15625 -102.195312 Z M 90.761719 -40.019531 C 90.582031 -38.589844 89.867188 -37.878906 88.617188 -37.339844 C 88.617188 -36.984375 88.617188 -36.449219 88.4375 -36.089844 C 87.722656 -35.195312 87.1875 -34.125 85.757812 -33.589844 C 85.757812 -33.230469 85.402344 -33.054688 85.042969 -33.054688 C 85.042969 -32.339844 85.042969 -31.625 84.328125 -31.625 C 82.363281 -31.625 81.472656 -30.195312 80.21875 -28.945312 C 78.253906 -26.441406 74.503906 -22.691406 72.179688 -20.902344 C 71.464844 -20.1875 70.929688 -19.652344 70.214844 -19.117188 C 69.679688 -18.761719 69.320312 -18.222656 68.964844 -17.867188 C 67.535156 -16.617188 66.640625 -16.078125 65.75 -16.078125 C 65.035156 -16.078125 64.140625 -16.4375 62.890625 -16.792969 C 60.390625 -17.6875 57.53125 -17.867188 54.671875 -18.761719 C 53.242188 -19.117188 51.632812 -19.472656 50.027344 -19.832031 C 49.132812 -20.011719 48.238281 -20.011719 47.523438 -20.1875 C 45.738281 -20.1875 43.773438 -20.367188 41.808594 -20.367188 C 37.699219 -20.1875 33.589844 -20.1875 29.835938 -18.582031 C 29.121094 -18.402344 28.230469 -18.046875 27.515625 -17.507812 C 26.976562 -17.152344 26.441406 -16.792969 25.726562 -16.617188 C 24.476562 -16.4375 23.761719 -15.542969 23.226562 -14.292969 C 22.691406 -13.042969 21.617188 -11.96875 21.796875 -10.363281 C 21.796875 -9.828125 21.976562 -9.289062 21.976562 -8.933594 C 22.332031 -8.398438 23.046875 -8.21875 23.582031 -8.21875 C 23.941406 -8.21875 24.296875 -8.574219 24.476562 -8.574219 C 27.515625 -8.574219 29.835938 -9.46875 32.515625 -10.898438 C 34.660156 -11.792969 36.984375 -12.148438 39.304688 -12.863281 C 40.019531 -12.863281 40.734375 -12.863281 41.449219 -13.042969 C 43.058594 -13.042969 44.667969 -13.042969 46.273438 -13.042969 C 46.808594 -13.042969 47.347656 -13.042969 47.882812 -13.042969 C 48.777344 -13.042969 49.847656 -13.042969 50.917969 -12.507812 C 51.097656 -12.328125 51.277344 -12.328125 51.632812 -12.328125 C 51.992188 -12.328125 52.171875 -12.328125 52.527344 -12.328125 C 52.707031 -12.328125 52.707031 -12.328125 52.886719 -12.328125 C 54.671875 -11.96875 56.636719 -11.613281 58.421875 -11.257812 C 58.601562 -11.257812 58.601562 -10.898438 58.601562 -10.71875 C 58.246094 -10.363281 57.707031 -9.828125 57.171875 -9.648438 C 51.097656 -5.539062 43.59375 -2.859375 36.625 -0.714844 C 36.089844 -0.179688 26.800781 0.535156 25.550781 0.535156 C 24.65625 0.535156 23.941406 0.535156 23.226562 0.355469 C 10.183594 -1.070312 3.929688 -10.183594 2.859375 -22.867188 C 2.679688 -26.441406 2.5 -30.015625 3.394531 -33.410156 C 3.574219 -33.769531 3.394531 -34.125 3.394531 -34.480469 C 3.394531 -36.449219 3.753906 -38.054688 4.109375 -39.664062 C 4.289062 -41.449219 4.644531 -43.238281 5.179688 -44.84375 C 6.433594 -49.667969 8.21875 -54.492188 9.828125 -59.316406 C 10.003906 -59.851562 10.363281 -60.566406 10.542969 -61.101562 C 11.078125 -63.246094 13.042969 -64.855469 13.398438 -66.820312 C 13.9375 -68.964844 15.007812 -70.75 15.722656 -72.714844 C 16.617188 -75.21875 18.402344 -77.363281 19.652344 -79.863281 C 20.011719 -80.757812 20.726562 -81.648438 21.082031 -82.542969 C 23.226562 -86.832031 26.085938 -90.941406 29.660156 -95.226562 C 30.375 -96.121094 30.910156 -97.195312 31.625 -98.265625 C 32.695312 -100.050781 33.769531 -101.660156 35.195312 -103.269531 C 36.269531 -105.054688 37.699219 -106.304688 38.949219 -107.734375 C 40.019531 -108.984375 40.914062 -110.234375 41.808594 -111.488281 C 42.699219 -112.558594 44.128906 -112.917969 45.023438 -114.167969 C 45.558594 -115.417969 46.632812 -115.773438 47.523438 -115.953125 C 48.953125 -116.132812 50.382812 -116.667969 51.632812 -117.027344 C 51.992188 -117.203125 52.347656 -117.382812 52.527344 -117.382812 C 52.707031 -117.382812 53.0625 -117.382812 53.242188 -117.382812 C 55.921875 -117.382812 58.601562 -118.097656 61.28125 -118.097656 C 61.640625 -118.097656 62.175781 -118.097656 62.53125 -118.097656 C 63.425781 -117.917969 64.320312 -117.917969 65.210938 -117.742188 C 65.570312 -117.742188 65.925781 -117.742188 66.105469 -117.742188 C 66.285156 -117.742188 66.464844 -117.742188 66.640625 -117.742188 C 67.535156 -118.097656 68.429688 -118.097656 69.5 -118.097656 C 72.359375 -118.097656 79.328125 -116.132812 82.007812 -114.882812 C 83.078125 -114.167969 84.507812 -114.167969 85.9375 -113.808594 C 89.152344 -113.09375 92.191406 -112.023438 94.691406 -109.523438 C 95.765625 -108.628906 97.195312 -108.269531 98.085938 -107.019531 C 99.335938 -104.875 101.125 -102.910156 102.019531 -100.589844 C 103.269531 -97.371094 104.339844 -94.335938 104.339844 -90.941406 C 104.339844 -88.261719 104.339844 -85.582031 104.339844 -82.722656 C 104.339844 -80.757812 104.519531 -78.792969 103.625 -76.824219 C 103.625 -76.648438 103.625 -76.648438 103.625 -76.46875 C 102.910156 -70.035156 101.839844 -67 99.695312 -61.28125 C 98.980469 -59.316406 97.910156 -57.171875 97.910156 -54.851562 C 98.085938 -55.027344 98.265625 -55.027344 98.265625 -55.027344 C 99.335938 -57.886719 100.945312 -60.390625 101.480469 -63.425781 C 101.660156 -64.140625 101.839844 -65.210938 102.910156 -65.570312 C 102.910156 -65.925781 102.910156 -66.285156 102.910156 -66.820312 C 102.910156 -67.179688 103.269531 -67.535156 103.625 -67.535156 C 103.269531 -70.035156 104.519531 -72.003906 104.339844 -74.324219 C 105.414062 -75.753906 104.699219 -77.539062 105.414062 -79.148438 C 105.949219 -80.757812 105.589844 -82.363281 105.769531 -84.152344 C 105.769531 -84.867188 105.769531 -85.757812 105.769531 -86.472656 C 106.484375 -86.296875 106.304688 -85.757812 106.304688 -85.582031 C 106.304688 -83.4375 106.484375 -81.472656 106.304688 -79.507812 C 106.128906 -78.078125 105.949219 -76.824219 105.589844 -75.753906 C 105.054688 -73.074219 104.699219 -70.394531 103.984375 -68.070312 C 103.804688 -67.714844 103.625 -67.714844 103.625 -67.714844 C 103.625 -67.355469 103.625 -66.820312 103.625 -66.464844 C 103.625 -65.925781 103.269531 -65.75 102.910156 -65.570312 C 102.910156 -64.5 102.910156 -63.425781 102.195312 -62.175781 C 101.480469 -60.566406 101.125 -58.960938 100.410156 -57.171875 C 99.160156 -54.3125 97.910156 -51.277344 96.300781 -48.417969 C 95.40625 -46.453125 94.15625 -44.667969 93.085938 -42.878906 C 92.90625 -42.523438 92.546875 -42.523438 92.191406 -42.34375 C 92.191406 -41.09375 91.65625 -40.378906 90.761719 -40.019531 Z M 28.230469 -109.523438 C 28.40625 -110.234375 28.945312 -110.59375 29.660156 -110.949219 C 29.660156 -109.699219 30.375 -108.808594 29.121094 -108.269531 C 28.585938 -107.734375 28.230469 -107.554688 27.691406 -107.554688 C 27.335938 -107.554688 26.976562 -107.734375 26.621094 -107.734375 C 26.441406 -108.09375 26.441406 -108.449219 26.441406 -108.628906 C 26.976562 -108.984375 27.691406 -109.164062 28.230469 -109.523438 Z M 56.816406 -120.242188 C 56.101562 -120.242188 55.566406 -120.242188 54.851562 -120.242188 C 54.136719 -120.242188 53.242188 -120.0625 52.886719 -119.167969 C 52.707031 -118.992188 52.347656 -119.347656 52.171875 -119.527344 C 51.8125 -120.0625 51.8125 -120.421875 52.171875 -120.957031 C 52.886719 -121.492188 53.777344 -121.671875 54.671875 -121.671875 C 56.28125 -121.671875 57.886719 -121.847656 59.316406 -121.847656 C 61.996094 -121.847656 64.5 -121.847656 67.179688 -121.671875 C 67.535156 -121.671875 68.070312 -121.671875 68.605469 -121.671875 C 69.144531 -121.671875 69.859375 -121.671875 70.574219 -121.3125 C 70.929688 -121.136719 71.289062 -120.957031 71.644531 -121.136719 C 71.824219 -121.136719 72.003906 -121.136719 72.003906 -121.136719 C 73.429688 -121.136719 74.859375 -120.421875 76.824219 -119.882812 C 75.574219 -119.527344 75.039062 -119.347656 74.324219 -119.167969 C 74.144531 -119.167969 73.96875 -119.167969 73.789062 -119.347656 C 73.429688 -120.242188 72.714844 -120.242188 72.179688 -120.242188 C 71.464844 -120.0625 70.574219 -119.882812 70.035156 -119.707031 C 69.5 -120.242188 68.964844 -120.242188 68.25 -120.242188 C 67.894531 -120.242188 67.535156 -120.242188 67.179688 -120.242188 C 66.820312 -120.242188 66.464844 -120.242188 66.105469 -120.421875 C 65.570312 -120.777344 64.855469 -120.957031 64.320312 -120.957031 C 63.605469 -120.957031 63.070312 -120.597656 62.53125 -120.0625 C 62.175781 -119.707031 61.996094 -119.882812 61.640625 -120.242188 C 61.28125 -120.777344 60.925781 -121.136719 60.390625 -121.136719 C 59.851562 -121.136719 59.316406 -120.777344 58.78125 -120.421875 C 58.421875 -120.242188 58.066406 -119.882812 57.707031 -119.707031 C 57.351562 -119.527344 56.816406 -119.707031 56.636719 -120.242188 Z M 15.542969 -82.542969 C 15.542969 -82.363281 15.542969 -82.1875 15.363281 -82.007812 C 15.363281 -81.828125 15.1875 -81.648438 15.007812 -81.648438 C 15.007812 -81.828125 15.007812 -82.007812 15.007812 -82.1875 C 15.1875 -82.363281 15.363281 -82.363281 15.542969 -82.542969 C 14.828125 -84.6875 15.363281 -86.472656 16.792969 -87.902344 C 17.507812 -88.4375 17.6875 -89.152344 17.152344 -89.867188 C 16.972656 -90.226562 17.332031 -90.40625 17.507812 -90.761719 C 17.867188 -91.296875 18.402344 -91.832031 18.761719 -92.546875 C 19.117188 -93.085938 18.9375 -93.441406 18.761719 -93.976562 C 18.582031 -94.691406 19.117188 -95.226562 19.296875 -95.226562 C 20.902344 -95.226562 21.082031 -95.40625 21.796875 -96.835938 C 21.976562 -97.730469 24.835938 -101.660156 25.726562 -102.019531 C 26.265625 -102.195312 26.800781 -102.730469 26.800781 -103.269531 C 26.800781 -104.160156 27.15625 -104.519531 28.050781 -104.519531 C 28.765625 -104.875 28.945312 -105.234375 29.121094 -105.589844 C 29.835938 -106.484375 30.550781 -107.199219 31.265625 -107.914062 C 31.625 -108.09375 32.160156 -108.09375 32.515625 -108.09375 C 32.695312 -108.269531 32.695312 -108.449219 32.875 -108.628906 C 33.230469 -108.09375 32.695312 -108.269531 32.515625 -108.269531 C 32.515625 -107.914062 32.515625 -107.378906 32.339844 -107.199219 C 30.910156 -105.234375 29.660156 -103.089844 27.871094 -101.304688 C 23.582031 -95.765625 20.011719 -89.511719 16.4375 -83.4375 C 16.257812 -83.078125 15.902344 -82.902344 15.542969 -82.542969 Z M 30.550781 -111.308594 C 31.265625 -112.378906 31.980469 -113.09375 32.875 -113.632812 C 35.195312 -114.882812 37.339844 -116.132812 39.664062 -117.382812 C 39.84375 -117.382812 40.019531 -117.382812 40.019531 -117.203125 C 39.664062 -116.488281 39.304688 -115.953125 38.589844 -115.597656 C 37.699219 -114.882812 36.804688 -114.34375 35.734375 -113.988281 C 35.019531 -113.632812 34.480469 -113.273438 33.769531 -112.558594 C 33.230469 -111.664062 32.515625 -111.128906 31.625 -111.128906 C 31.265625 -111.128906 30.910156 -111.128906 30.550781 -111.308594 Z M 37.878906 2.144531 C 37.519531 2.5 37.164062 2.5 36.804688 2.5 C 36.449219 2.5 36.089844 2.5 35.734375 2.144531 C 36.089844 1.964844 36.625 1.964844 36.984375 1.964844 C 37.339844 1.964844 37.519531 1.964844 37.878906 2.144531 Z M 77.003906 -17.6875 C 77.003906 -17.6875 76.824219 -17.867188 76.824219 -18.046875 C 76.824219 -18.222656 77.003906 -18.222656 77.183594 -18.222656 C 77.183594 -18.046875 77.183594 -17.867188 77.003906 -17.6875 Z M 106.128906 -88.4375 L 106.128906 -88.796875 Z M 50.027344 -118.453125 L 50.027344 -118.632812 L 50.203125 -118.453125 Z M 78.433594 -119.167969 L 78.253906 -119.167969 L 78.433594 -119.347656 Z M 93.261719 -36.089844 L 93.441406 -36.089844 L 93.261719 -35.910156 Z M 78.433594 -19.832031 L 78.433594 -19.652344 L 78.253906 -19.652344 Z M 67 -8.039062 C 66.464844 -8.039062 65.570312 -8.21875 65.035156 -8.21875 C 64.5 -8.21875 63.960938 -8.039062 63.605469 -7.859375 C 62.890625 -7.503906 62.355469 -6.609375 61.640625 -5.894531 C 61.28125 -5.539062 60.925781 -5.179688 60.566406 -4.824219 C 60.925781 -4.644531 61.101562 -4.464844 61.460938 -4.464844 C 61.816406 -4.464844 61.996094 -4.644531 62.175781 -5.003906 C 63.246094 -6.253906 64.855469 -6.609375 66.464844 -7.324219 C 66.640625 -7.324219 67 -7.503906 67 -8.039062 Z M 54.136719 -0.535156 C 54.851562 -1.070312 55.386719 -1.070312 55.921875 -1.070312 C 56.101562 -1.070312 56.28125 -1.070312 56.457031 -1.070312 C 56.816406 -1.070312 57.351562 -1.070312 57.707031 -1.25 C 57.707031 -1.25 57.707031 -1.609375 57.707031 -1.785156 C 57.351562 -1.964844 56.992188 -2.324219 56.816406 -2.324219 C 55.921875 -1.964844 54.851562 -1.609375 53.957031 -1.25 C 53.957031 -1.25 53.957031 -1.070312 53.957031 -0.894531 C 53.957031 -0.894531 53.957031 -0.714844 54.136719 -0.535156 Z M 34.660156 8.039062 C 34.839844 7.683594 35.019531 7.503906 35.195312 7.324219 C 35.019531 7.148438 34.839844 6.96875 34.660156 6.96875 C 34.304688 6.96875 34.125 7.324219 34.125 7.683594 C 34.125 7.683594 34.480469 7.859375 34.660156 8.039062 Z M 22.511719 8.21875 C 22.691406 8.398438 22.867188 8.753906 23.226562 8.753906 C 23.226562 8.933594 23.761719 8.574219 23.761719 8.574219 C 23.046875 8.398438 22.867188 8.398438 22.511719 8.21875 Z M 51.097656 -1.070312 C 51.277344 -1.070312 51.632812 -1.070312 51.992188 -1.070312 C 51.992188 -1.070312 52.171875 -1.25 52.171875 -1.429688 C 51.992188 -1.429688 51.8125 -1.609375 51.632812 -1.609375 C 51.277344 -1.609375 51.097656 -1.25 51.097656 -0.894531 Z M 97.910156 -55.027344 C 96.480469 -54.136719 96.300781 -52.886719 96.300781 -51.277344 C 97.910156 -52.347656 97.910156 -53.597656 97.910156 -55.027344 Z M 95.050781 -48.597656 C 93.976562 -48.238281 93.621094 -47.523438 93.621094 -46.273438 C 94.691406 -46.632812 95.050781 -47.523438 95.050781 -48.597656 Z M 90.761719 -41.449219 C 89.867188 -41.09375 89.332031 -40.199219 89.332031 -39.304688 C 89.867188 -39.484375 90.226562 -39.664062 90.761719 -40.019531 C 90.761719 -40.378906 90.761719 -40.914062 90.761719 -41.449219 Z M 88.617188 -38.589844 C 87.722656 -38.234375 87.1875 -37.519531 87.367188 -36.625 C 87.722656 -36.804688 88.261719 -36.984375 88.617188 -37.164062 C 88.617188 -37.699219 88.617188 -38.234375 88.617188 -38.589844 Z M 92.371094 -42.164062 C 92.371094 -42.699219 92.371094 -43.238281 92.371094 -43.59375 C 91.121094 -43.238281 90.761719 -42.523438 90.761719 -41.273438 C 91.121094 -41.808594 91.65625 -41.984375 92.371094 -42.164062 Z M 93.085938 -45.023438 C 92.191406 -44.84375 92.371094 -44.128906 92.191406 -43.59375 C 93.085938 -43.773438 92.90625 -44.488281 93.085938 -45.023438 Z M 93.621094 -46.453125 C 92.90625 -46.09375 93.085938 -45.558594 92.90625 -45.023438 C 93.621094 -45.203125 93.621094 -45.738281 93.621094 -46.453125 Z M 95.765625 -50.027344 C 94.871094 -49.847656 95.050781 -49.132812 95.050781 -48.597656 C 95.765625 -48.777344 95.765625 -49.3125 95.765625 -50.027344 Z M 96.480469 -51.277344 C 95.585938 -51.097656 95.765625 -50.5625 95.765625 -49.847656 C 96.480469 -50.203125 96.480469 -50.742188 96.480469 -51.277344 Z M 84.328125 -32.875 C 84.328125 -32.875 83.613281 -32.875 84.152344 -32.515625 C 84.152344 -32.695312 84.328125 -32.875 84.328125 -33.054688 Z M 85.042969 -33.589844 C 84.6875 -33.589844 84.507812 -33.410156 84.328125 -32.875 L 84.328125 -33.054688 C 84.6875 -33.054688 84.867188 -32.875 85.042969 -32.875 C 85.042969 -33.230469 85.042969 -33.410156 85.042969 -33.589844 Z M 85.757812 -33.589844 C 85.402344 -34.304688 85.402344 -34.304688 85.042969 -33.589844 C 85.222656 -33.589844 85.582031 -33.589844 85.757812 -33.589844 Z M 87.367188 -36.625 C 87.1875 -36.449219 86.652344 -36.625 87.011719 -35.910156 C 87.1875 -36.089844 87.1875 -36.449219 87.367188 -36.625 Z M 89.332031 -39.304688 C 88.976562 -39.304688 88.796875 -38.949219 88.617188 -38.589844 C 89.152344 -38.589844 89.332031 -38.949219 89.332031 -39.304688 Z M 56.636719 -120.242188 C 56.816406 -120.421875 57.351562 -120.242188 56.992188 -120.777344 C 56.992188 -120.421875 56.816406 -120.421875 56.816406 -120.242188 Z M 28.230469 -109.523438 C 28.230469 -108.984375 28.230469 -108.269531 29.121094 -108.09375 C 29.121094 -108.808594 29.121094 -109.34375 28.230469 -109.523438 Z M 28.230469 -109.523438 "/></g></g></g><g fill="#845b3c" fill-opacity="1"><g transform="translate(510.237358, 399.671162)"><g><path d="M 11.792969 -37.519531 C 14.113281 -35.910156 16.792969 -34.660156 19.472656 -33.230469 C 18.761719 -32.515625 18.402344 -32.160156 18.222656 -31.625 C 18.046875 -30.730469 17.6875 -29.835938 16.257812 -29.660156 C 15.363281 -29.660156 15.007812 -29.121094 14.472656 -28.765625 C 14.472656 -28.40625 14.113281 -27.871094 13.9375 -27.871094 C 13.578125 -27.871094 13.222656 -28.050781 13.042969 -28.050781 C 11.96875 -28.050781 11.613281 -27.335938 11.257812 -26.621094 C 11.433594 -26.265625 11.257812 -26.085938 10.898438 -26.085938 C 9.289062 -25.550781 8.398438 -24.476562 7.503906 -23.582031 C 6.789062 -23.226562 6.253906 -22.867188 5.894531 -22.511719 C 2.859375 -21.261719 0.535156 -19.652344 -0.535156 -16.972656 C -1.785156 -15.363281 -2.144531 -13.578125 -3.574219 -11.613281 C -4.109375 -10.542969 -3.929688 -9.46875 -3.753906 -8.398438 C -2.859375 -4.644531 -1.25 -1.429688 1.609375 1.25 C 3.214844 3.753906 6.433594 4.644531 9.113281 5.003906 C 10.898438 5.003906 12.863281 4.644531 14.113281 4.109375 C 16.792969 3.214844 19.472656 2.144531 21.082031 0 C 21.441406 -0.355469 21.976562 -0.714844 22.691406 -1.25 C 26.441406 -3.929688 27.691406 -4.464844 29.480469 -7.683594 C 30.015625 -8.933594 30.910156 -10.003906 31.625 -10.898438 C 31.980469 -11.433594 31.980469 -11.96875 32.339844 -12.683594 C 34.125 -15.363281 34.480469 -18.402344 35.195312 -21.617188 L 35.195312 -22.511719 C 35.019531 -24.835938 33.054688 -27.335938 32.160156 -29.480469 C 31.800781 -30.910156 30.550781 -31.980469 29.480469 -32.875 C 28.765625 -33.589844 28.945312 -33.945312 29.480469 -34.304688 C 29.835938 -34.660156 29.835938 -34.839844 30.375 -35.019531 C 33.769531 -36.625 50.203125 -40.378906 53.777344 -41.273438 C 54.671875 -41.449219 55.566406 -41.808594 56.28125 -42.164062 C 56.816406 -42.34375 56.816406 -42.523438 56.816406 -42.699219 C 56.457031 -43.058594 55.921875 -43.414062 55.386719 -43.414062 L 54.671875 -43.414062 C 52.886719 -42.34375 50.742188 -42.34375 48.953125 -41.628906 C 47.347656 -40.914062 32.875 -37.878906 30.910156 -37.164062 C 30.015625 -36.984375 29.300781 -36.625 28.40625 -36.089844 C 27.691406 -35.734375 26.976562 -35.554688 26.265625 -35.554688 C 25.371094 -35.554688 24.476562 -35.910156 23.582031 -36.449219 C 21.617188 -37.164062 18.9375 -38.769531 17.332031 -40.019531 C 15.363281 -41.273438 15.007812 -42.878906 15.722656 -44.308594 C 16.617188 -45.558594 17.6875 -46.808594 18.582031 -48.417969 C 19.117188 -50.027344 20.367188 -51.097656 22.511719 -51.8125 C 23.582031 -52.171875 24.835938 -52.886719 25.550781 -53.597656 C 27.691406 -55.027344 29.480469 -55.921875 31.980469 -56.28125 C 35.019531 -56.457031 36.984375 -57.53125 39.128906 -58.421875 C 40.019531 -58.601562 42.878906 -59.136719 43.414062 -59.136719 C 43.953125 -59.136719 44.84375 -59.136719 45.203125 -59.316406 C 46.453125 -59.675781 46.988281 -60.03125 46.988281 -60.746094 C 46.988281 -61.640625 45.917969 -62.175781 45.203125 -62.53125 C 43.59375 -63.070312 42.34375 -63.605469 40.734375 -63.605469 C 39.304688 -63.605469 38.054688 -63.785156 36.625 -63.960938 C 33.410156 -64.5 31.800781 -64.855469 30.550781 -64.855469 C 29.480469 -64.855469 28.585938 -64.5 26.800781 -64.140625 C 25.371094 -63.785156 23.582031 -62.890625 22.15625 -62.355469 C 16.617188 -59.851562 12.507812 -56.101562 9.828125 -51.277344 C 8.574219 -49.667969 8.039062 -47.167969 7.503906 -45.203125 C 7.324219 -44.667969 7.503906 -44.128906 8.039062 -43.59375 C 8.933594 -42.523438 10.003906 -41.449219 10.003906 -39.84375 C 10.003906 -38.949219 11.078125 -38.234375 11.792969 -37.519531 Z M 25.371094 -29.121094 C 25.90625 -28.585938 25.90625 -28.050781 26.085938 -27.515625 C 26.621094 -23.941406 26.085938 -20.726562 24.296875 -17.6875 C 20.726562 -11.433594 15.007812 -5.003906 8.21875 -2.324219 C 7.503906 -2.144531 6.789062 -1.785156 5.894531 -1.785156 C 5.539062 -1.785156 5.179688 -1.785156 4.824219 -1.785156 C 4.109375 -1.785156 3.394531 -1.785156 2.324219 -2.324219 C 1.429688 -3.039062 1.429688 -4.289062 0.535156 -5.359375 C 0.535156 -5.359375 0.535156 -5.539062 0.355469 -5.71875 C 1.429688 -7.859375 0.535156 -10.183594 1.429688 -12.683594 C 2.859375 -16.972656 6.789062 -22.15625 11.078125 -23.941406 C 11.433594 -24.296875 11.96875 -24.65625 12.863281 -25.011719 C 14.828125 -25.726562 16.4375 -26.976562 18.222656 -28.230469 C 19.296875 -29.121094 21.261719 -29.660156 22.511719 -30.550781 C 22.691406 -30.550781 22.867188 -30.730469 23.046875 -30.730469 C 23.941406 -30.730469 25.011719 -30.015625 25.371094 -29.121094 Z M 17.507812 -4.109375 C 17.332031 -4.109375 16.972656 -4.109375 17.332031 -4.464844 C 17.332031 -4.464844 16.617188 -4.644531 16.792969 -4.824219 C 17.507812 -6.96875 19.296875 -8.398438 21.082031 -9.648438 C 21.441406 -9.828125 20.726562 -9.648438 21.441406 -9.46875 C 21.441406 -9.46875 21.976562 -8.933594 21.617188 -8.933594 C 20.367188 -7.503906 19.117188 -5.894531 17.507812 -4.109375 Z M 23.761719 -12.148438 C 23.40625 -11.613281 23.226562 -11.078125 22.511719 -10.71875 L 21.976562 -10.71875 L 21.796875 -10.898438 C 21.976562 -11.433594 22.15625 -12.148438 22.511719 -13.042969 C 22.691406 -13.398438 23.761719 -13.757812 23.761719 -13.398438 C 24.121094 -13.042969 24.121094 -12.863281 23.761719 -12.148438 Z M 11.613281 -0.355469 C 11.433594 -0.355469 11.257812 -0.355469 11.078125 -0.535156 C 11.078125 -1.429688 11.792969 -1.785156 13.222656 -1.785156 C 13.398438 -0.535156 13.398438 -0.535156 11.613281 -0.355469 Z M 25.371094 -14.828125 C 25.191406 -14.652344 25.011719 -14.472656 24.835938 -14.472656 C 24.65625 -14.472656 24.65625 -14.652344 24.296875 -14.652344 C 24.65625 -14.828125 24.835938 -15.1875 24.835938 -15.363281 L 25.191406 -15.363281 C 25.371094 -15.1875 25.371094 -14.828125 25.371094 -14.828125 Z M 9.46875 0 C 9.648438 -0.179688 9.648438 -0.355469 9.648438 -0.355469 L 10.898438 -0.355469 C 10.898438 -0.179688 10.898438 0 10.542969 0 Z M 15.902344 -4.289062 L 16.078125 -4.109375 L 15.902344 -4.109375 Z M 11.96875 1.964844 L 11.792969 1.964844 L 11.792969 1.785156 Z M 11.96875 1.964844 "/></g></g></g><g clip-path="url(#701f3dca01)"><path fill="#fbdbc0" d="M 457.941406 580.910156 C 457.941406 580.910156 458.050781 625.617188 458.035156 641.753906 C 458.035156 642.140625 457.996094 642.519531 457.921875 642.898438 C 457.847656 643.273438 457.734375 643.640625 457.589844 643.996094 C 457.441406 644.351562 457.261719 644.691406 457.046875 645.007812 C 456.835938 645.328125 456.59375 645.625 456.320312 645.898438 C 456.050781 646.167969 455.753906 646.410156 455.433594 646.625 C 455.117188 646.839844 454.777344 647.019531 454.425781 647.167969 C 454.070312 647.3125 453.703125 647.425781 453.328125 647.5 C 452.953125 647.574219 452.570312 647.609375 452.1875 647.609375 L 450.121094 647.609375 C 449.738281 647.609375 449.359375 647.574219 448.984375 647.5 C 448.609375 647.425781 448.246094 647.316406 447.894531 647.167969 C 447.539062 647.023438 447.203125 646.84375 446.886719 646.632812 C 446.570312 646.421875 446.273438 646.179688 446.003906 645.910156 C 445.730469 645.640625 445.488281 645.347656 445.273438 645.03125 C 445.0625 644.710938 444.878906 644.375 444.730469 644.023438 C 444.582031 643.671875 444.472656 643.304688 444.394531 642.929688 C 444.316406 642.554688 444.277344 642.175781 444.273438 641.792969 C 444.152344 625.6875 443.699219 581.234375 443.699219 581.234375 Z M 457.941406 580.910156 " fill-opacity="1" fill-rule="nonzero"/></g><path fill="#fbdbc0" d="M 365.273438 507.921875 L 365.273438 576.429688 C 365.273438 576.820312 365.308594 577.207031 365.382812 577.589844 C 365.460938 577.976562 365.570312 578.347656 365.71875 578.710938 C 365.867188 579.070312 366.050781 579.414062 366.265625 579.738281 C 366.480469 580.066406 366.726562 580.367188 367.003906 580.644531 C 367.277344 580.921875 367.578125 581.167969 367.902344 581.386719 C 368.226562 581.601562 368.566406 581.785156 368.929688 581.9375 C 369.289062 582.085938 369.660156 582.199219 370.042969 582.277344 C 370.425781 582.351562 370.8125 582.390625 371.199219 582.390625 C 399.671875 582.359375 457.945312 581.710938 457.945312 581.710938 L 457.726562 508.941406 Z M 365.273438 507.921875 " fill-opacity="1" fill-rule="nonzero"/><g clip-path="url(#32a6360a7a)"><path fill="#fbdbc0" d="M 299.007812 508.246094 C 299.007812 508.246094 298.488281 615.40625 298.542969 641.734375 C 298.546875 642.121094 298.507812 642.503906 298.433594 642.882812 C 298.359375 643.261719 298.25 643.628906 298.101562 643.984375 C 297.957031 644.339844 297.777344 644.679688 297.5625 645 C 297.351562 645.320312 297.109375 645.617188 296.835938 645.890625 C 296.566406 646.164062 296.269531 646.40625 295.949219 646.621094 C 295.628906 646.835938 295.292969 647.015625 294.9375 647.164062 C 294.582031 647.3125 294.214844 647.421875 293.839844 647.5 C 293.460938 647.574219 293.082031 647.609375 292.699219 647.609375 L 290.675781 647.609375 C 290.292969 647.609375 289.914062 647.574219 289.539062 647.5 C 289.160156 647.425781 288.796875 647.3125 288.441406 647.167969 C 288.089844 647.019531 287.75 646.839844 287.433594 646.625 C 287.113281 646.414062 286.816406 646.171875 286.546875 645.898438 C 286.273438 645.625 286.03125 645.332031 285.820312 645.011719 C 285.605469 644.691406 285.425781 644.355469 285.277344 644 C 285.128906 643.644531 285.019531 643.277344 284.945312 642.902344 C 284.867188 642.523438 284.832031 642.144531 284.828125 641.757812 C 284.769531 615.46875 285.292969 508.246094 285.292969 508.246094 Z M 299.007812 508.246094 " fill-opacity="1" fill-rule="nonzero"/></g><g clip-path="url(#9ae436c657)"><path fill="#d59667" d="M 285.359375 491.167969 C 333.125 490.84375 430.636719 491.425781 459.035156 491.632812 C 459.628906 491.636719 460.21875 491.699219 460.800781 491.820312 C 461.382812 491.9375 461.945312 492.113281 462.496094 492.347656 C 463.042969 492.578125 463.5625 492.859375 464.054688 493.191406 C 464.546875 493.527344 465 493.90625 465.421875 494.328125 C 465.839844 494.75 466.210938 495.210938 466.539062 495.707031 C 466.867188 496.203125 467.144531 496.730469 467.371094 497.28125 C 467.597656 497.832031 467.769531 498.398438 467.882812 498.984375 C 468 499.570312 468.054688 500.160156 468.054688 500.753906 C 468.054688 501.359375 467.996094 501.960938 467.875 502.554688 C 467.753906 503.144531 467.578125 503.722656 467.347656 504.28125 C 467.113281 504.835938 466.824219 505.367188 466.488281 505.867188 C 466.148438 506.367188 465.765625 506.832031 465.335938 507.253906 C 464.902344 507.679688 464.4375 508.058594 463.929688 508.386719 C 463.425781 508.71875 462.894531 508.996094 462.332031 509.21875 C 461.773438 509.445312 461.195312 509.609375 460.601562 509.71875 C 460.007812 509.828125 459.410156 509.878906 458.808594 509.867188 C 403.722656 508.996094 340.558594 509.554688 285.464844 509.710938 C 284.871094 509.714844 284.28125 509.65625 283.699219 509.542969 C 283.113281 509.429688 282.546875 509.257812 281.996094 509.035156 C 281.445312 508.808594 280.921875 508.53125 280.425781 508.203125 C 279.929688 507.875 279.46875 507.5 279.046875 507.082031 C 278.621094 506.660156 278.246094 506.207031 277.910156 505.710938 C 277.574219 505.21875 277.292969 504.695312 277.058594 504.148438 C 276.828125 503.597656 276.652344 503.03125 276.527344 502.449219 C 276.40625 501.863281 276.34375 501.273438 276.335938 500.675781 L 276.335938 500.382812 C 276.328125 499.78125 276.378906 499.1875 276.492188 498.597656 C 276.601562 498.007812 276.769531 497.4375 276.992188 496.878906 C 277.214844 496.324219 277.492188 495.792969 277.820312 495.292969 C 278.148438 494.789062 278.519531 494.324219 278.9375 493.894531 C 279.359375 493.46875 279.816406 493.085938 280.308594 492.746094 C 280.804688 492.410156 281.328125 492.125 281.878906 491.890625 C 282.429688 491.65625 282.996094 491.480469 283.582031 491.355469 C 284.167969 491.234375 284.761719 491.171875 285.359375 491.167969 Z M 285.359375 491.167969 " fill-opacity="1" fill-rule="nonzero"/></g><path fill="#c18053" d="M 395.238281 528.898438 L 394.988281 524.769531 C 394.96875 524.441406 395.015625 524.121094 395.128906 523.8125 C 395.238281 523.5 395.40625 523.226562 395.632812 522.984375 C 395.859375 522.746094 396.121094 522.558594 396.425781 522.429688 C 396.726562 522.300781 397.042969 522.234375 397.371094 522.234375 C 406.707031 522.234375 416.046875 522.152344 425.367188 522.679688 C 425.675781 522.699219 425.976562 522.777344 426.257812 522.914062 C 426.539062 523.050781 426.785156 523.234375 426.992188 523.46875 C 427.203125 523.703125 427.359375 523.964844 427.464844 524.261719 C 427.570312 524.558594 427.617188 524.863281 427.601562 525.175781 C 427.539062 526.566406 427.480469 527.824219 427.417969 529.21875 C 427.40625 529.527344 427.332031 529.824219 427.203125 530.109375 C 427.074219 530.390625 426.898438 530.640625 426.671875 530.851562 C 426.449219 531.066406 426.191406 531.230469 425.902344 531.34375 C 425.613281 531.457031 425.316406 531.511719 425.003906 531.507812 L 397.585938 531.144531 C 397.285156 531.140625 396.996094 531.082031 396.71875 530.96875 C 396.4375 530.855469 396.191406 530.691406 395.972656 530.484375 C 395.753906 530.277344 395.582031 530.035156 395.457031 529.761719 C 395.328125 529.488281 395.257812 529.199219 395.238281 528.898438 Z M 395.238281 528.898438 " fill-opacity="1" fill-rule="nonzero"/><path fill="#c18053" d="M 395.109375 563.417969 L 394.863281 559.292969 C 394.839844 558.964844 394.886719 558.644531 395 558.332031 C 395.109375 558.023438 395.277344 557.746094 395.503906 557.507812 C 395.730469 557.265625 395.992188 557.082031 396.296875 556.949219 C 396.597656 556.820312 396.914062 556.753906 397.242188 556.753906 C 406.582031 556.753906 415.917969 556.671875 425.238281 557.199219 C 425.550781 557.21875 425.847656 557.296875 426.128906 557.433594 C 426.410156 557.570312 426.65625 557.753906 426.867188 557.988281 C 427.074219 558.222656 427.230469 558.488281 427.335938 558.78125 C 427.441406 559.078125 427.488281 559.382812 427.472656 559.695312 C 427.414062 561.085938 427.351562 562.347656 427.289062 563.738281 C 427.277344 564.050781 427.207031 564.34375 427.078125 564.628906 C 426.949219 564.910156 426.773438 565.160156 426.546875 565.375 C 426.320312 565.585938 426.0625 565.75 425.773438 565.863281 C 425.488281 565.976562 425.1875 566.03125 424.878906 566.027344 L 397.460938 565.664062 C 397.160156 565.660156 396.867188 565.601562 396.589844 565.488281 C 396.3125 565.375 396.0625 565.214844 395.84375 565.003906 C 395.625 564.796875 395.453125 564.554688 395.328125 564.28125 C 395.199219 564.007812 395.125 563.71875 395.109375 563.417969 Z M 395.109375 563.417969 " fill-opacity="1" fill-rule="nonzero"/><path fill="#c18053" d="M 457.832031 543.964844 L 456.121094 543.960938 L 449.242188 543.941406 L 439.074219 543.914062 L 426.664062 543.882812 L 413.140625 543.84375 L 399.421875 543.808594 L 386.628906 543.773438 L 375.820312 543.746094 L 368.046875 543.722656 C 367.125 543.722656 366.199219 543.707031 365.273438 543.710938 L 365.273438 545.304688 L 366.734375 545.308594 L 373.613281 545.324219 L 383.78125 545.351562 L 396.191406 545.386719 L 409.714844 545.421875 L 423.433594 545.460938 L 436.222656 545.492188 L 447.035156 545.523438 L 454.808594 545.542969 C 455.816406 545.542969 456.828125 545.5625 457.835938 545.554688 Z M 457.832031 543.964844 " fill-opacity="1" fill-rule="nonzero"/><path fill="#d59667" d="M 521.96875 544.96875 C 521.976562 544.921875 521.976562 544.871094 521.972656 544.824219 C 521.816406 542.96875 522.414062 541.082031 523.128906 539.394531 C 523.855469 537.617188 524.820312 535.980469 526.027344 534.488281 C 526.511719 533.902344 525.671875 533.058594 525.183594 533.648438 C 523.878906 535.261719 522.828125 537.023438 522.039062 538.941406 C 521.367188 540.527344 520.789062 542.277344 520.757812 544.023438 C 519.214844 542.925781 517.519531 542.171875 515.664062 541.765625 C 514.613281 541.535156 513.554688 541.449219 512.480469 541.507812 C 512.203125 540.019531 511.699219 538.613281 510.976562 537.28125 C 510.25 535.953125 509.335938 534.769531 508.234375 533.726562 C 506.058594 531.679688 503.207031 530.585938 500.289062 530.085938 C 498.65625 529.777344 497.011719 529.710938 495.359375 529.886719 C 494.609375 529.976562 494.601562 531.160156 495.359375 531.070312 C 498.140625 530.785156 500.835938 531.144531 503.441406 532.152344 C 504.777344 532.65625 505.988281 533.371094 507.070312 534.292969 C 508.15625 535.21875 509.050781 536.296875 509.753906 537.53125 C 510.5 538.820312 511.015625 540.191406 511.300781 541.648438 C 511.160156 541.675781 511.015625 541.699219 510.875 541.734375 C 509.316406 542.121094 507.90625 542.8125 506.648438 543.808594 C 503.839844 545.980469 501.789062 549.414062 501.859375 553.019531 C 501.875 553.78125 503.0625 553.785156 503.046875 553.019531 C 502.992188 550.078125 504.519531 547.296875 506.65625 545.34375 C 507.726562 544.320312 508.96875 543.585938 510.382812 543.136719 C 511.796875 542.6875 513.238281 542.570312 514.703125 542.789062 C 516.210938 543.046875 517.632812 543.550781 518.96875 544.296875 C 520.304688 545.039062 521.476562 545.984375 522.488281 547.128906 C 523.519531 548.296875 524.347656 549.589844 524.972656 551.011719 C 525.59375 552.4375 525.988281 553.921875 526.144531 555.464844 C 526.558594 559.136719 526.230469 562.738281 525.160156 566.273438 C 524.945312 567.007812 526.09375 567.320312 526.308594 566.589844 C 528.199219 560.203125 528.285156 552.382812 523.90625 546.96875 C 523.320312 546.246094 522.675781 545.578125 521.96875 544.96875 Z M 521.96875 544.96875 " fill-opacity="1" fill-rule="nonzero"/><path fill="#d59667" d="M 560.511719 533.125 C 554.828125 531.792969 548.523438 533.683594 544.148438 537.433594 C 542.945312 538.457031 541.921875 539.636719 541.070312 540.96875 C 534.898438 542.578125 531.1875 548.976562 529.539062 554.71875 C 528.480469 558.328125 528.082031 562.007812 528.332031 565.753906 C 528.386719 566.511719 529.578125 566.515625 529.523438 565.753906 C 529.074219 559.738281 530.445312 553.246094 533.765625 548.15625 C 535.449219 545.570312 537.785156 543.292969 540.769531 542.296875 C 542.285156 541.765625 543.835938 541.640625 545.417969 541.921875 C 546.898438 542.238281 548.242188 542.847656 549.449219 543.757812 C 552.445312 545.941406 554.246094 549.316406 555.96875 552.5 C 556.332031 553.171875 557.359375 552.574219 556.996094 551.902344 C 555.34375 548.847656 553.621094 545.683594 550.914062 543.410156 C 548.585938 541.457031 545.746094 540.359375 542.726562 540.664062 C 545.71875 536.6875 550.777344 534.253906 555.695312 533.925781 C 557.214844 533.816406 558.714844 533.929688 560.199219 534.269531 C 560.941406 534.441406 561.261719 533.300781 560.511719 533.125 Z M 560.511719 533.125 " fill-opacity="1" fill-rule="nonzero"/><g clip-path="url(#33e3e04214)"><path fill="#845b3c" d="M 560.222656 571.167969 C 559.9375 571.503906 559.582031 571.738281 559.160156 571.871094 C 551.703125 574.101562 547.929688 582.5625 546.191406 590.222656 C 542.210938 607.753906 543.339844 625.984375 544.492188 643.917969 L 526.507812 646.90625 C 525.910156 647.003906 525.3125 647.050781 524.707031 647.046875 C 524.105469 647.046875 523.503906 646.992188 522.910156 646.886719 L 504.957031 643.714844 C 506.296875 625.789062 507.613281 607.574219 503.820312 590.003906 C 502.164062 582.355469 498.5 573.886719 491.121094 571.546875 C 490.648438 571.390625 490.265625 571.117188 489.972656 570.722656 C 489.777344 570.46875 489.644531 570.191406 489.5625 569.886719 C 489.484375 569.582031 489.464844 569.273438 489.507812 568.960938 C 489.550781 568.644531 489.65625 568.355469 489.816406 568.082031 C 489.976562 567.808594 490.1875 567.578125 490.441406 567.390625 C 492 566.25 494.28125 565.144531 495.140625 564.925781 C 504.742188 562.507812 511.042969 563.351562 518.839844 564.78125 C 520.535156 565.09375 522.222656 565.503906 523.941406 565.574219 C 526.714844 565.683594 529.433594 564.902344 532.15625 564.359375 C 538.804688 563.039062 545.445312 563.097656 552.070312 564.535156 C 554.84375 565.140625 557.695312 566.074219 559.890625 567.796875 C 560.140625 567.996094 560.34375 568.234375 560.5 568.515625 C 560.652344 568.796875 560.746094 569.09375 560.777344 569.414062 C 560.808594 569.730469 560.773438 570.042969 560.679688 570.347656 C 560.582031 570.652344 560.429688 570.925781 560.222656 571.167969 Z M 560.222656 571.167969 " fill-opacity="1" fill-rule="nonzero"/></g><path fill="#ffffff" d="M 525.230469 642.953125 C 524.863281 633.59375 524.660156 624.230469 524.628906 614.863281 C 524.597656 605.53125 524.738281 596.199219 525.046875 586.871094 C 525.222656 581.601562 525.453125 576.332031 525.734375 571.066406 C 525.773438 570.304688 524.585938 570.308594 524.546875 571.066406 C 524.042969 580.421875 523.710938 589.777344 523.550781 599.144531 C 523.386719 608.476562 523.398438 617.808594 523.578125 627.140625 C 523.675781 632.414062 523.832031 637.683594 524.042969 642.949219 C 524.074219 643.710938 525.261719 643.714844 525.230469 642.949219 Z M 525.230469 642.953125 " fill-opacity="1" fill-rule="nonzero"/><path fill="#989b6d" d="M 501.894531 552.246094 C 501.085938 552.207031 500.324219 551.996094 499.613281 551.613281 C 496.25 549.820312 492.273438 549.0625 488.59375 550.023438 C 484.539062 551.082031 481.023438 554.449219 480.382812 558.574219 C 479.867188 561.917969 481.199219 565.285156 482.976562 568.167969 C 484.753906 571.050781 486.992188 573.644531 488.605469 576.621094 C 489.441406 578.195312 490.089844 579.84375 490.550781 581.5625 C 491.011719 583.28125 491.277344 585.03125 491.339844 586.808594 C 491.40625 588.589844 491.269531 590.351562 490.933594 592.101562 C 490.601562 593.851562 490.074219 595.539062 489.355469 597.171875 C 500.679688 591.226562 512.6875 584.613281 518.5 573.257812 C 520.351562 569.644531 521.492188 565.574219 521.085938 561.539062 C 520.679688 557.507812 518.574219 553.535156 515.078125 551.453125 C 511.988281 549.609375 507.804688 549.53125 504.824219 551.464844 C 503.933594 552.03125 502.957031 552.292969 501.898438 552.246094 Z M 501.894531 552.246094 " fill-opacity="1" fill-rule="nonzero"/><path fill="#989b6d" d="M 556.445312 551.929688 C 551.171875 550.03125 544.929688 550.292969 540.335938 553.496094 C 535.742188 556.699219 533.355469 563.101562 535.578125 568.226562 C 537.570312 572.820312 542.503906 575.429688 547.335938 576.789062 C 552.171875 578.144531 557.285156 578.625 561.859375 580.683594 C 566.4375 582.746094 570.550781 587.015625 570.335938 592.011719 C 575.390625 580.632812 580.554688 568.507812 578.867188 556.183594 C 578.253906 551.707031 576.222656 546.816406 571.9375 545.328125 C 569.367188 544.433594 566.472656 544.992188 564.050781 546.226562 C 561.628906 547.460938 559.59375 549.3125 557.585938 551.144531 Z M 556.445312 551.929688 " fill-opacity="1" fill-rule="nonzero"/><g clip-path="url(#3885b2801e)"><path fill="#989b6d" d="M 516.0625 531.519531 C 514.34375 528.9375 514.859375 525.019531 517.304688 523.105469 C 518.714844 522 520.550781 521.632812 522.300781 521.234375 C 528.746094 519.761719 534.871094 517.449219 540.671875 514.292969 C 540.609375 519.71875 540.539062 525.191406 539.304688 530.476562 C 538.726562 532.949219 537.859375 535.421875 536.203125 537.351562 C 534.550781 539.28125 531.976562 540.582031 529.464844 540.167969 C 526.949219 539.757812 524.78125 537.296875 525.203125 534.796875 C 525.203125 534.796875 519.742188 537.054688 516.0625 531.519531 Z M 516.0625 531.519531 " fill-opacity="1" fill-rule="nonzero"/></g><g clip-path="url(#20d7e3c1f0)"><path fill="#989b6d" d="M 561.582031 526.730469 C 564.046875 525.515625 567.019531 525.945312 569.570312 526.964844 C 573.003906 528.339844 575.996094 530.585938 579.210938 532.414062 C 582.425781 534.238281 586.082031 535.675781 589.75 535.179688 L 567.460938 542.875 C 565.441406 543.570312 563.34375 544.277344 561.21875 544.074219 C 558.945312 543.859375 556.679688 542.363281 556.171875 540.148438 C 555.660156 537.933594 557.40625 533.335938 559.671875 533.617188 C 559.675781 533.613281 557.273438 528.855469 561.582031 526.730469 Z M 561.582031 526.730469 " fill-opacity="1" fill-rule="nonzero"/></g><g clip-path="url(#76e543a47c)"><path fill="#989b6d" d="M 496.195312 530.476562 C 497.101562 527.394531 496.957031 523.941406 494.0625 522.527344 C 491.164062 521.113281 487.65625 521.429688 484.671875 522.644531 C 481.683594 523.859375 479.109375 525.875 476.585938 527.875 C 474.0625 529.878906 471.511719 531.917969 468.542969 533.175781 L 484.359375 540.0625 C 486.289062 540.902344 488.242188 541.75 490.324219 542.09375 C 492.40625 542.4375 494.652344 542.230469 496.417969 541.082031 C 499.214844 539.265625 500.101562 535.074219 498.273438 532.289062 Z M 496.195312 530.476562 " fill-opacity="1" fill-rule="nonzero"/></g><path fill="#d59667" d="M 571.515625 566.589844 C 570.042969 565.417969 568.367188 564.84375 566.488281 564.863281 C 565.253906 562.765625 563.675781 560.96875 561.75 559.472656 C 560.378906 558.414062 558.882812 557.570312 557.261719 556.945312 C 556.546875 556.671875 556.238281 557.816406 556.945312 558.089844 C 558.226562 558.589844 559.425781 559.242188 560.542969 560.046875 C 561 561.199219 561.238281 562.390625 561.25 563.628906 C 561.261719 564.867188 561.050781 566.066406 560.613281 567.226562 C 560.570312 567.386719 560.589844 567.535156 560.671875 567.675781 C 560.75 567.820312 560.871094 567.910156 561.027344 567.957031 C 561.1875 567.996094 561.335938 567.976562 561.476562 567.894531 C 561.621094 567.816406 561.714844 567.699219 561.761719 567.542969 C 562.503906 565.539062 562.652344 563.492188 562.203125 561.402344 C 564.117188 563.144531 565.628906 565.78125 565.6875 565.847656 C 566.515625 567.328125 567.125 568.894531 567.507812 570.546875 C 567.871094 572.128906 567.992188 573.726562 567.878906 575.347656 C 567.824219 576.105469 569.011719 576.105469 569.066406 575.347656 C 569.265625 572.082031 568.625 568.988281 567.140625 566.070312 C 568.457031 566.171875 569.632812 566.621094 570.671875 567.429688 C 570.792969 567.539062 570.933594 567.59375 571.09375 567.59375 C 571.257812 567.59375 571.398438 567.539062 571.515625 567.429688 C 571.628906 567.3125 571.6875 567.171875 571.6875 567.007812 C 571.6875 566.847656 571.628906 566.707031 571.515625 566.589844 Z M 571.515625 566.589844 " fill-opacity="1" fill-rule="nonzero"/><path fill="#d59667" d="M 577.277344 536.601562 C 575.132812 535.253906 572.796875 534.484375 570.269531 534.285156 C 571.148438 533.90625 572.066406 533.707031 573.023438 533.683594 C 573.1875 533.683594 573.328125 533.625 573.445312 533.507812 C 573.5625 533.394531 573.617188 533.253906 573.617188 533.089844 C 573.617188 532.925781 573.5625 532.785156 573.445312 532.671875 C 573.328125 532.554688 573.1875 532.496094 573.023438 532.496094 C 572.09375 532.515625 571.191406 532.679688 570.3125 532.980469 C 569.5 533.28125 568.761719 533.710938 568.09375 534.261719 C 566.742188 534.339844 565.425781 534.59375 564.140625 535.023438 C 563.421875 535.269531 563.730469 536.414062 564.460938 536.167969 C 565.46875 535.828125 566.503906 535.605469 567.5625 535.496094 C 568.621094 535.386719 569.679688 535.394531 570.734375 535.519531 C 571.792969 535.648438 572.824219 535.886719 573.824219 536.242188 C 574.828125 536.597656 575.78125 537.058594 576.679688 537.625 C 577.324219 538.035156 577.921875 537.007812 577.277344 536.601562 Z M 577.277344 536.601562 " fill-opacity="1" fill-rule="nonzero"/><path fill="#d59667" d="M 534.527344 520.25 C 531.855469 522.277344 529.59375 524.6875 527.746094 527.476562 C 527.660156 526.363281 527.296875 525.351562 526.660156 524.433594 C 526.574219 524.292969 526.453125 524.207031 526.296875 524.164062 C 526.140625 524.125 525.988281 524.140625 525.847656 524.21875 C 525.707031 524.304688 525.613281 524.421875 525.574219 524.582031 C 525.53125 524.738281 525.550781 524.886719 525.632812 525.03125 C 526.183594 525.804688 526.492188 526.667969 526.566406 527.613281 C 526.644531 528.5625 526.46875 529.460938 526.050781 530.3125 C 526.015625 530.386719 525.652344 531.203125 525.5 531.550781 C 525.1875 532.238281 526.210938 532.84375 526.523438 532.148438 C 527.203125 530.640625 528.96875 527.8125 528.980469 527.800781 C 529.4375 527.332031 529.964844 526.980469 530.570312 526.738281 C 531.179688 526.496094 531.808594 526.386719 532.460938 526.414062 C 532.625 526.414062 532.761719 526.355469 532.878906 526.238281 C 532.996094 526.125 533.054688 525.984375 533.054688 525.820312 C 533.054688 525.65625 532.996094 525.515625 532.878906 525.402344 C 532.761719 525.285156 532.625 525.226562 532.460938 525.226562 C 531.867188 525.226562 531.285156 525.3125 530.714844 525.480469 C 532.03125 523.914062 533.5 522.511719 535.128906 521.273438 C 535.726562 520.816406 535.136719 519.785156 534.527344 520.25 Z M 534.527344 520.25 " fill-opacity="1" fill-rule="nonzero"/><path fill="#d59667" d="M 492.351562 530.511719 C 491.125 530.023438 489.855469 529.679688 488.546875 529.480469 C 488.175781 528.503906 487.621094 527.644531 486.886719 526.902344 C 486.152344 526.15625 485.296875 525.589844 484.324219 525.203125 C 484.164062 525.160156 484.015625 525.179688 483.871094 525.261719 C 483.726562 525.339844 483.632812 525.460938 483.589844 525.617188 C 483.550781 525.773438 483.574219 525.921875 483.652344 526.0625 C 483.734375 526.203125 483.851562 526.300781 484.007812 526.347656 C 485.457031 526.933594 486.523438 527.925781 487.210938 529.324219 C 483.960938 529.050781 480.871094 529.628906 477.9375 531.054688 C 477.25 531.386719 477.851562 532.410156 478.539062 532.078125 C 479.679688 531.527344 480.867188 531.121094 482.105469 530.847656 C 481.675781 531.371094 481.402344 531.964844 481.285156 532.632812 C 481.246094 532.789062 481.265625 532.941406 481.34375 533.085938 C 481.425781 533.226562 481.542969 533.316406 481.699219 533.359375 C 481.980469 533.421875 482.40625 533.277344 482.429688 532.945312 C 482.492188 532.371094 482.710938 531.859375 483.085938 531.410156 C 483.457031 530.964844 483.925781 530.660156 484.484375 530.496094 C 487.089844 530.300781 489.609375 530.6875 492.035156 531.65625 C 492.746094 531.9375 493.054688 530.792969 492.351562 530.511719 Z M 492.351562 530.511719 " fill-opacity="1" fill-rule="nonzero"/><path fill="#d59667" d="M 507.667969 568.328125 C 507.339844 566.886719 506.78125 565.539062 506 564.28125 C 505.214844 563.023438 504.25 561.925781 503.097656 560.992188 C 503.039062 559.082031 502.867188 557.183594 502.59375 555.296875 C 502.480469 554.546875 501.316406 554.867188 501.449219 555.613281 C 502.15625 559.625 501.96875 566.574219 501.863281 569.089844 C 499.035156 571.105469 496.183594 575.632812 494.722656 579.550781 C 494.457031 580.265625 495.605469 580.574219 495.871094 579.867188 C 497.175781 576.390625 499.148438 573.339844 501.789062 570.714844 C 501.683594 572.855469 501.546875 574.992188 501.394531 577.132812 C 501.292969 579.210938 500.953125 581.246094 500.371094 583.246094 C 499.679688 585.4375 498.480469 587.492188 496.480469 588.726562 C 495.832031 589.128906 496.429688 590.152344 497.082031 589.75 C 500.953125 587.355469 502.078125 582.613281 502.484375 578.390625 C 502.960938 573.460938 503.183594 568.515625 503.15625 563.5625 C 503.15625 563.242188 503.152344 562.921875 503.144531 562.605469 C 504.871094 564.285156 505.996094 566.296875 506.523438 568.644531 C 506.6875 569.386719 507.835938 569.074219 507.667969 568.328125 Z M 507.667969 568.328125 " fill-opacity="1" fill-rule="nonzero"/><g clip-path="url(#6974503987)"><path fill="#fbdbc0" d="M 512.582031 697.671875 C 525.535156 695.484375 538.800781 698.816406 551.550781 695.066406 C 538.078125 695.066406 524.605469 694.960938 511.132812 695.066406 C 474.445312 695.484375 437.757812 697.046875 401.277344 702.046875 C 354.226562 708.609375 307.277344 715.691406 260.226562 722.460938 C 244.679688 724.753906 229.136719 726.941406 213.589844 728.816406 C 209.03125 729.335938 204.261719 728.816406 199.597656 728.191406 C 197.835938 727.984375 195.558594 726.316406 195.039062 724.753906 C 194.519531 723.398438 195.660156 720.898438 196.800781 719.648438 C 202.8125 712.984375 210.894531 709.441406 219.289062 707.253906 C 234.316406 703.296875 249.550781 700.273438 264.578125 696.628906 C 300.125 688.191406 336.191406 682.460938 372.464844 677.460938 C 395.058594 674.335938 417.753906 671.421875 440.347656 668.296875 C 442.421875 667.984375 444.390625 667.671875 446.359375 666.628906 C 443.25 666.941406 440.140625 667.359375 437.132812 667.460938 C 431.539062 667.671875 426.046875 667.566406 420.449219 667.878906 C 414.957031 668.191406 409.464844 668.710938 403.972656 669.234375 C 399.515625 669.648438 395.058594 670.273438 390.496094 670.585938 C 384.28125 671.003906 377.957031 670.898438 371.738281 671.523438 C 364.589844 672.253906 357.542969 673.816406 350.390625 674.546875 C 342.515625 675.378906 334.535156 675.484375 326.65625 676.109375 C 321.683594 676.421875 316.605469 677.253906 311.628906 677.460938 C 306.65625 677.671875 301.679688 677.253906 296.707031 677.359375 C 291.628906 677.460938 286.550781 677.671875 281.574219 677.984375 C 279.917969 678.085938 278.363281 678.296875 276.601562 677.671875 C 283.128906 676.734375 289.660156 675.585938 296.1875 674.753906 C 313.703125 672.460938 331.320312 670.171875 348.835938 668.191406 C 358.371094 667.046875 367.90625 666.421875 377.441406 665.378906 C 385.628906 664.546875 393.8125 663.503906 402 662.566406 C 409.980469 661.734375 417.960938 660.691406 426.046875 660.378906 C 448.742188 659.441406 471.542969 658.816406 494.238281 658.191406 C 496.726562 658.085938 499.109375 658.503906 501.597656 658.710938 C 503.980469 658.921875 505.949219 660.273438 505.636719 662.671875 C 505.429688 664.234375 503.773438 666.523438 502.320312 666.835938 C 496 668.398438 489.472656 669.546875 483.046875 670.484375 C 461.179688 673.609375 439.207031 676.523438 417.339844 679.648438 C 386.871094 684.023438 356.296875 688.191406 326.035156 693.191406 C 304.6875 696.734375 283.648438 701.734375 262.402344 706.210938 C 249.242188 709.023438 236.183594 711.941406 223.019531 715.066406 C 219.1875 716.003906 215.558594 717.773438 211.933594 719.753906 C 215.871094 719.753906 219.910156 720.273438 223.746094 719.648438 C 245.511719 716.210938 267.171875 712.566406 288.933594 709.023438 C 296.1875 707.878906 303.648438 707.253906 310.90625 706.109375 C 316.191406 705.273438 321.269531 703.921875 326.554688 703.191406 C 330.804688 702.566406 335.050781 702.671875 339.300781 702.046875 C 345 701.210938 350.597656 699.859375 356.195312 698.921875 C 360.339844 698.296875 364.691406 698.296875 368.835938 697.671875 C 373.292969 697.046875 377.75 696.003906 382.207031 695.378906 C 385.003906 694.960938 387.804688 695.171875 390.601562 694.859375 C 393.605469 694.546875 396.507812 694.023438 399.515625 693.609375 C 402.105469 693.296875 404.695312 692.773438 407.289062 692.671875 C 428.84375 691.109375 450.398438 688.921875 471.957031 688.085938 C 496.207031 687.253906 520.457031 687.566406 544.8125 687.566406 C 549.269531 687.566406 553.726562 688.085938 558.078125 688.816406 C 559.324219 689.023438 560.359375 690.585938 561.601562 691.628906 C 560.566406 692.773438 559.738281 694.546875 558.492188 694.859375 C 551.550781 696.316406 544.605469 698.085938 537.558594 698.609375 C 529.164062 699.234375 520.664062 698.710938 512.269531 698.710938 C 512.582031 698.398438 512.582031 697.984375 512.582031 697.671875 Z M 512.582031 697.671875 " fill-opacity="1" fill-rule="nonzero"/></g></svg>