<svg xmlns="http://www.w3.org/2000/svg" xmlns:xlink="http://www.w3.org/1999/xlink" width="1080" zoomAndPan="magnify" viewBox="0 0 810 809.999993" height="1080" preserveAspectRatio="xMidYMid meet" version="1.0"><defs><g/><clipPath id="82d9cbcd55"><path d="M 514 177 L 520.546875 177 L 520.546875 180 L 514 180 Z M 514 177 " clip-rule="nonzero"/></clipPath><clipPath id="4e30f44e6a"><path d="M 484 200 L 487 200 L 487 215.09375 L 484 215.09375 Z M 484 200 " clip-rule="nonzero"/></clipPath><clipPath id="2f0781030b"><path d="M 322.546875 159 L 335 159 L 335 172 L 322.546875 172 Z M 322.546875 159 " clip-rule="nonzero"/></clipPath><clipPath id="a35e81db0b"><path d="M 475 93.59375 L 486 93.59375 L 486 104 L 475 104 Z M 475 93.59375 " clip-rule="nonzero"/></clipPath><clipPath id="6dfbf8bffe"><path d="M 515 591 L 810 591 L 810 810 L 515 810 Z M 515 591 " clip-rule="nonzero"/></clipPath><clipPath id="eeff079032"><path d="M 440.671875 786.027344 L 835.355469 563.691406 L 1017.199219 886.496094 L 622.515625 1108.832031 Z M 440.671875 786.027344 " clip-rule="nonzero"/></clipPath><clipPath id="13c6f77e15"><path d="M 622.601562 1108.984375 L 1017.285156 886.648438 L 835.441406 563.84375 L 440.757812 786.183594 Z M 622.601562 1108.984375 " clip-rule="nonzero"/></clipPath><clipPath id="1411eb80b8"><path d="M 648 606 L 682 606 L 682 640.910156 L 648 640.910156 Z M 648 606 " clip-rule="nonzero"/></clipPath><clipPath id="f8a4972950"><path d="M 0 0 L 322 0 L 322 185.160156 L 0 185.160156 Z M 0 0 " clip-rule="nonzero"/></clipPath></defs><path fill="#e7a798" d="M 496.464844 177.421875 L 511.980469 177.421875 L 511.980469 179.855469 L 496.464844 179.855469 L 496.464844 177.421875 " fill-opacity="1" fill-rule="nonzero"/><g clip-path="url(#82d9cbcd55)"><path fill="#e7a798" d="M 520.277344 177.421875 L 514.203125 177.421875 L 514.203125 179.855469 L 520.277344 179.855469 L 520.277344 177.421875 " fill-opacity="1" fill-rule="nonzero"/></g><path fill="#e7a798" d="M 342.976562 116.222656 L 328.816406 116.222656 L 328.816406 114.492188 L 342.976562 114.492188 L 342.976562 116.222656 " fill-opacity="1" fill-rule="nonzero"/><path fill="#e7a798" d="M 336.757812 108.289062 L 336.757812 122.425781 L 335.027344 122.425781 L 335.027344 108.289062 L 336.757812 108.289062 " fill-opacity="1" fill-rule="nonzero"/><path fill="#cb8c7d" d="M 512.851562 108.289062 L 498.695312 108.289062 L 498.695312 106.558594 L 512.851562 106.558594 L 512.851562 108.289062 " fill-opacity="1" fill-rule="nonzero"/><path fill="#cb8c7d" d="M 506.640625 100.359375 L 506.640625 114.492188 L 504.90625 114.492188 L 504.90625 100.359375 L 506.640625 100.359375 " fill-opacity="1" fill-rule="nonzero"/><path fill="#e7a798" d="M 492.246094 208.898438 L 478.089844 208.898438 L 478.089844 207.167969 L 492.246094 207.167969 L 492.246094 208.898438 " fill-opacity="1" fill-rule="nonzero"/><g clip-path="url(#4e30f44e6a)"><path fill="#e7a798" d="M 486.03125 200.972656 L 486.03125 215.101562 L 484.300781 215.101562 L 484.300781 200.972656 L 486.03125 200.972656 " fill-opacity="1" fill-rule="nonzero"/></g><g clip-path="url(#2f0781030b)"><path fill="#cb8c7d" d="M 334.847656 165.140625 C 334.847656 168.476562 332.140625 171.175781 328.800781 171.175781 C 325.46875 171.175781 322.75 168.476562 322.75 165.140625 C 322.75 161.808594 325.46875 159.113281 328.800781 159.113281 C 332.140625 159.113281 334.847656 161.808594 334.847656 165.140625 " fill-opacity="1" fill-rule="nonzero"/></g><path fill="#e7a798" d="M 350.527344 143.273438 C 350.527344 145.351562 348.832031 147.035156 346.75 147.035156 C 344.671875 147.035156 342.976562 145.351562 342.976562 143.273438 C 342.976562 141.1875 344.671875 139.503906 346.75 139.503906 C 348.832031 139.503906 350.527344 141.1875 350.527344 143.273438 " fill-opacity="1" fill-rule="nonzero"/><path fill="#cb8c7d" d="M 498.910156 194.796875 C 498.910156 196.875 497.21875 198.558594 495.132812 198.558594 C 493.054688 198.558594 491.359375 196.875 491.359375 194.796875 C 491.359375 192.710938 493.054688 191.03125 495.132812 191.03125 C 497.21875 191.03125 498.910156 192.710938 498.910156 194.796875 " fill-opacity="1" fill-rule="nonzero"/><path fill="#e7a798" d="M 514.195312 191.035156 C 514.195312 192.082031 513.34375 192.941406 512.285156 192.941406 C 511.230469 192.941406 510.371094 192.082031 510.371094 191.035156 C 510.371094 189.980469 511.230469 189.121094 512.285156 189.121094 C 513.34375 189.121094 514.195312 189.980469 514.195312 191.035156 " fill-opacity="1" fill-rule="nonzero"/><g clip-path="url(#a35e81db0b)"><path fill="#e7a798" d="M 475.007812 98.652344 C 475.007812 95.851562 477.285156 93.582031 480.085938 93.582031 C 482.894531 93.582031 485.167969 95.851562 485.167969 98.652344 C 485.167969 101.449219 482.894531 103.714844 480.085938 103.714844 C 477.285156 103.714844 475.007812 101.449219 475.007812 98.652344 " fill-opacity="1" fill-rule="nonzero"/></g><path fill="#e7a798" d="M 500.40625 133.03125 C 500.40625 131.550781 501.605469 130.347656 503.082031 130.347656 C 504.574219 130.347656 505.777344 131.550781 505.777344 133.03125 C 505.777344 134.511719 504.574219 135.703125 503.082031 135.703125 C 501.605469 135.703125 500.40625 134.511719 500.40625 133.03125 " fill-opacity="1" fill-rule="nonzero"/><path fill="#fed2c8" d="M 454.636719 174.671875 C 455.097656 176.003906 454.382812 177.464844 453.046875 177.921875 C 451.714844 178.378906 450.257812 177.664062 449.796875 176.335938 L 429.335938 116.910156 C 428.875 115.578125 429.585938 114.117188 430.921875 113.660156 C 432.257812 113.203125 433.714844 113.914062 434.171875 115.246094 Z M 445.125 173.421875 C 434.820312 169.925781 425.296875 169.96875 418.855469 170.699219 C 413.664062 171.289062 409.714844 172.382812 407.597656 173.070312 L 398.058594 145.363281 C 400.148438 144.609375 403.9375 143.050781 408.394531 140.328125 C 413.925781 136.960938 421.46875 131.152344 427.445312 122.070312 Z M 404.320312 174.214844 L 384.203125 181.109375 L 374.652344 153.367188 L 394.769531 146.472656 Z M 414.859375 202.28125 L 408.949219 204.304688 C 405.613281 205.449219 401.9375 204.058594 400.199219 201.003906 L 389.863281 182.832031 L 401.527344 178.832031 Z M 378.738281 175.890625 L 378.734375 175.898438 C 374.574219 177.324219 370.027344 175.105469 368.597656 170.957031 C 367.164062 166.804688 369.394531 162.265625 373.546875 160.839844 L 373.550781 160.839844 Z M 429.796875 110.382812 C 426.714844 111.441406 425.042969 114.753906 425.992188 117.835938 C 420.207031 127.691406 412.335938 133.859375 406.695312 137.308594 C 400.398438 141.160156 395.425781 142.59375 395.375 142.605469 L 395.328125 142.625 L 395.28125 142.632812 L 371.882812 150.65625 C 370.972656 150.96875 370.492188 151.953125 370.804688 152.859375 L 372.425781 157.5625 L 372.417969 157.5625 C 366.449219 159.613281 363.265625 166.117188 365.316406 172.082031 C 367.367188 178.035156 373.890625 181.214844 379.859375 179.167969 L 379.863281 179.167969 L 381.484375 183.871094 C 381.796875 184.777344 382.785156 185.257812 383.691406 184.949219 L 386.53125 183.976562 L 397.183594 202.710938 C 399.742188 207.214844 405.167969 209.265625 410.074219 207.582031 L 417.960938 204.875 C 418.449219 204.710938 418.84375 204.335938 419.023438 203.847656 C 419.207031 203.367188 419.167969 202.835938 418.914062 202.386719 L 404.863281 177.691406 L 407.09375 176.925781 L 407.136719 176.90625 L 407.175781 176.890625 C 407.230469 176.871094 412.03125 174.945312 419.367188 174.125 C 425.945312 173.394531 435.957031 173.425781 446.589844 177.648438 C 447.742188 180.667969 451.097656 182.253906 454.175781 181.199219 C 457.328125 180.117188 459 176.691406 457.921875 173.550781 L 437.457031 114.117188 C 436.375 110.984375 432.941406 109.304688 429.796875 110.382812 " fill-opacity="1" fill-rule="nonzero"/><path fill="#fed2c8" d="M 450.507812 134.316406 L 462.847656 115.359375 " fill-opacity="1" fill-rule="nonzero"/><path fill="#cb8c7d" d="M 450.503906 136.246094 C 450.140625 136.246094 449.773438 136.144531 449.449219 135.933594 C 448.554688 135.355469 448.300781 134.15625 448.882812 133.265625 L 461.226562 114.304688 C 461.8125 113.410156 463.015625 113.160156 463.902344 113.738281 C 464.796875 114.320312 465.050781 115.515625 464.46875 116.410156 L 452.125 135.371094 C 451.757812 135.9375 451.136719 136.246094 450.503906 136.246094 " fill-opacity="1" fill-rule="nonzero"/><path fill="#fed2c8" d="M 477.871094 151.886719 L 456.917969 150.433594 " fill-opacity="1" fill-rule="nonzero"/><path fill="#cb8c7d" d="M 477.871094 153.816406 L 477.734375 153.816406 L 456.789062 152.363281 C 455.71875 152.285156 454.914062 151.367188 454.988281 150.304688 C 455.0625 149.238281 456.007812 148.453125 457.054688 148.507812 L 478 149.960938 C 479.070312 150.035156 479.871094 150.957031 479.800781 152.019531 C 479.726562 153.039062 478.878906 153.816406 477.871094 153.816406 " fill-opacity="1" fill-rule="nonzero"/><path fill="#fed2c8" d="M 456.5 140.640625 L 476.957031 133.515625 " fill-opacity="1" fill-rule="nonzero"/><path fill="#fed2c8" d="M 456.5 142.574219 C 455.699219 142.574219 454.949219 142.074219 454.671875 141.28125 C 454.320312 140.273438 454.851562 139.171875 455.859375 138.820312 L 476.316406 131.695312 C 477.324219 131.328125 478.4375 131.875 478.785156 132.878906 C 479.140625 133.886719 478.605469 134.988281 477.597656 135.339844 L 457.140625 142.464844 C 456.929688 142.542969 456.710938 142.574219 456.5 142.574219 " fill-opacity="1" fill-rule="nonzero"/><g clip-path="url(#6dfbf8bffe)"><g clip-path="url(#eeff079032)"><g clip-path="url(#13c6f77e15)"><path fill="#faebe7" d="M 774.855469 597.976562 C 772.5625 599.5625 770.726562 600.898438 768.730469 602.121094 C 766.171875 603.761719 763.984375 605.890625 761.789062 607.824219 C 761.453125 608.109375 761.160156 608.476562 760.945312 608.796875 C 759.324219 611.398438 757.214844 613.484375 755.027344 615.609375 C 753.4375 617.203125 751.8125 618.914062 750.425781 620.691406 C 747.964844 623.570312 746.222656 626.839844 744.523438 630.183594 C 743.46875 632.371094 742.570312 634.667969 741.515625 636.855469 C 740.425781 639.160156 739.257812 641.507812 737.890625 643.671875 C 732.652344 652.394531 728.128906 661.507812 723.214844 670.445312 C 721.644531 673.320312 719.960938 676.15625 718.160156 678.964844 C 715.8125 682.574219 713.746094 686.324219 711.601562 690.121094 C 711.070312 691.117188 710.578125 692.1875 709.882812 693.078125 C 706.75 697.230469 704.214844 701.742188 701.519531 706.148438 C 700.988281 707.144531 700.335938 708.105469 699.683594 709.070312 C 697.632812 712.316406 695.097656 715.238281 692.441406 718.125 C 689.605469 721.214844 686.886719 724.339844 684.167969 727.464844 C 681.847656 730.0625 679.242188 732.328125 676.261719 734.105469 C 675.734375 734.402344 675.28125 734.660156 674.792969 735.03125 C 673.703125 735.746094 672.742188 736.6875 671.640625 737.207031 C 669.859375 738.109375 667.953125 738.785156 666.085938 739.539062 C 665.441406 739.804688 664.75 739.992188 664.101562 740.257812 C 662.429688 741 661.023438 742.390625 659.269531 742.984375 C 657.660156 743.488281 656.109375 744.265625 654.554688 745.039062 C 652.773438 745.945312 650.910156 746.695312 649 747.375 C 647.09375 748.050781 645.21875 748.609375 643.488281 749.78125 C 643.035156 750.035156 642.421875 750.183594 641.839844 750.210938 C 637.878906 750.953125 634.042969 751.917969 630.132812 752.929688 C 626.148438 753.980469 622.023438 754.609375 617.902344 755.242188 C 614.316406 755.769531 610.773438 756.371094 607.316406 757.125 C 602.976562 758.078125 598.53125 758.492188 594.121094 758.789062 C 593.730469 758.808594 593.195312 758.910156 592.871094 758.695312 C 589.816406 757.332031 586.648438 758.421875 583.539062 758.382812 C 582.140625 758.371094 580.675781 758.601562 579.246094 758.710938 C 575.640625 758.851562 572.082031 759.066406 568.683594 760.28125 C 568.039062 760.546875 567.304688 760.660156 566.574219 760.773438 C 564.871094 760.9375 563.183594 761.292969 561.5 761.839844 C 560.660156 762.117188 559.777344 762.316406 559.003906 762.351562 C 555.085938 762.46875 551.421875 763.738281 547.601562 764.199219 C 546.675781 764.324219 545.683594 764.683594 544.734375 765.117188 C 542.382812 766.242188 539.9375 767.023438 537.4375 767.535156 C 534.863281 768.089844 532.585938 769.175781 530.535156 770.828125 C 529.527344 771.695312 528.597656 772.515625 527.796875 773.566406 C 526.070312 775.628906 524.390625 777.769531 522.347656 779.621094 C 520.820312 780.976562 519.980469 782.84375 519.496094 784.808594 C 518.871094 787.050781 518.554688 789.316406 517.882812 791.484375 C 517.488281 792.902344 517.714844 794.367188 517.394531 795.742188 C 517 797.160156 516.324219 798.433594 516.078125 799.765625 C 515.761719 802.035156 515.328125 804.265625 515.757812 806.613281 C 516.128906 808.691406 516.277344 810.898438 516.578125 813.015625 C 517.027344 816.644531 518.167969 820.082031 520.136719 823.050781 C 522.238281 826.246094 523.570312 829.671875 524.828125 833.144531 C 526.042969 836.539062 527.832031 839.710938 529.878906 842.636719 C 532.554688 846.5 535.53125 850.199219 538.28125 854.019531 C 541.609375 858.515625 545.605469 862.429688 549.753906 866.261719 C 551.136719 867.472656 552.667969 868.601562 554.121094 869.773438 C 556.1875 871.492188 558.292969 873.292969 560.285156 875.054688 C 565.074219 879.320312 569.757812 883.746094 574.699219 887.929688 C 577.941406 890.679688 581.519531 893.140625 584.945312 895.6875 C 590.296875 899.539062 595.46875 903.589844 600.3125 908.125 C 602.835938 910.484375 605.46875 912.683594 608.175781 914.839844 C 611.085938 917.179688 613.550781 919.96875 615.757812 923.003906 C 617.175781 924.992188 618.21875 927.191406 618.6875 929.613281 C 619.144531 931.839844 619.722656 934.101562 620.257812 936.289062 C 621.109375 939.390625 621.457031 942.480469 621.921875 945.601562 C 622.054688 946.71875 622.035156 947.925781 622.050781 949.011719 C 622.019531 950.019531 621.640625 950.933594 621.019531 951.777344 C 619.667969 953.4375 618.355469 955.171875 617 956.828125 C 616.152344 957.804688 615.351562 958.851562 614.421875 959.675781 C 611.664062 962.023438 609.386719 964.699219 607.648438 967.96875 C 606.472656 970.121094 605.136719 972.167969 603.277344 973.8125 C 601.792969 975.246094 600.75 976.929688 599.867188 978.71875 C 598.8125 980.90625 597.796875 983.167969 596.816406 985.3125 C 595.976562 987.179688 595.050781 988.894531 593.769531 990.511719 C 592.601562 991.964844 591.589844 993.53125 590.902344 995.3125 C 590.550781 996.105469 590.160156 996.824219 589.691406 997.582031 C 588.714844 999.03125 587.976562 1000.542969 587.277344 1002.128906 C 586.371094 1004.230469 585.699219 1006.398438 584.632812 1008.394531 C 584.242188 1009.109375 584.054688 1010.011719 583.824219 1010.839844 C 582.351562 1017.238281 582.042969 1023.582031 583.410156 1030.074219 C 584.675781 1036.027344 586.738281 1041.632812 589.070312 1047.183594 C 590.296875 1050.074219 592.175781 1052.699219 593.933594 1055.289062 C 595.265625 1057.125 596.566406 1059.082031 597.824219 1060.957031 C 600.253906 1064.566406 603.351562 1067.59375 606.5625 1070.464844 C 607.375 1071.199219 608.488281 1071.765625 609.410156 1072.339844 C 611.488281 1073.558594 613.675781 1074.613281 615.796875 1075.90625 C 618.039062 1077.230469 620.375 1078.203125 622.933594 1078.851562 C 627.257812 1079.996094 631.542969 1081.0625 635.894531 1081.898438 C 636.753906 1082.007812 637.613281 1082.121094 638.429688 1082.160156 C 641.304688 1082.132812 644.117188 1082.539062 646.976562 1083.015625 C 648.074219 1083.195312 649.242188 1083.332031 650.363281 1083.199219 C 654.117188 1082.972656 657.746094 1082.523438 661.324219 1081.101562 C 663.6875 1080.171875 666.21875 1079.539062 668.855469 1079.449219 C 671.101562 1079.375 673.40625 1078.875 675.636719 1078.414062 C 676.59375 1078.171875 677.542969 1077.738281 678.417969 1077.34375 C 680.425781 1076.3125 682.464844 1075.164062 684.429688 1074.058594 C 689.15625 1071.492188 693.0625 1068 695.898438 1063.316406 C 696.113281 1062.996094 696.363281 1062.558594 696.699219 1062.269531 C 699.199219 1060.164062 700.410156 1057.195312 701.828125 1054.40625 C 702.992188 1052.058594 704.125 1049.828125 705.570312 1047.621094 C 706.578125 1046.058594 707.546875 1044.417969 708.277344 1042.714844 C 709.597656 1039.582031 710.996094 1036.40625 711.878906 1033.023438 C 712.453125 1030.511719 713.339844 1028.023438 714.074219 1025.617188 C 714.917969 1023.054688 715.601562 1020.378906 715.855469 1017.648438 C 716.199219 1014.371094 717.402344 1011.207031 718.101562 1008.027344 C 718.667969 1005.320312 719.316406 1002.765625 719.765625 1000.027344 C 720.902344 993.214844 720.992188 986.300781 719.839844 979.488281 C 719.175781 975.484375 719.210938 971.484375 719.441406 967.472656 C 719.492188 966.152344 719.664062 964.863281 719.949219 963.605469 C 720.671875 960.117188 720.917969 956.492188 721.09375 952.914062 C 721.234375 949.453125 721.222656 946.074219 721.984375 942.660156 C 722.496094 940.382812 723.207031 938.289062 724.347656 936.253906 C 727.351562 930.980469 730.757812 926.078125 734.765625 921.53125 C 737.820312 918.117188 740.671875 914.523438 743.523438 910.925781 C 745.496094 908.421875 747.714844 906.175781 749.976562 904.007812 C 752.421875 901.632812 755.03125 899.371094 757.636719 897.105469 C 758.902344 895.996094 760.242188 894.84375 761.464844 893.65625 C 764.398438 890.910156 767.414062 888.316406 770.589844 885.828125 C 771.304688 885.328125 771.976562 884.75 772.570312 884.214844 C 776.648438 880.328125 781.230469 877.148438 785.683594 873.746094 C 788.976562 871.292969 792.636719 869.128906 796.179688 866.9375 C 798.8125 865.253906 801.566406 863.601562 804.203125 861.917969 C 806.234375 860.578125 808.136719 859.007812 810.082031 857.511719 C 812.402344 855.808594 814.683594 854.023438 816.972656 852.4375 C 822.636719 848.351562 828.375 844.222656 834.238281 840.324219 C 837.359375 838.265625 840.523438 836.285156 843.515625 834.003906 C 846.402344 831.878906 849.160156 829.53125 851.796875 827.148438 C 857.476562 821.859375 862.707031 816.125 867.253906 809.882812 C 868.308594 808.394531 869.433594 806.863281 870.402344 805.226562 C 872.621094 801.390625 874.839844 797.550781 876.574219 793.390625 C 877.996094 789.902344 878.945312 786.285156 879.34375 782.578125 C 879.601562 780.742188 879.859375 778.902344 879.882812 777 C 879.910156 774.398438 880.484375 771.886719 881.414062 769.472656 C 882.105469 767.691406 882.246094 765.820312 881.804688 763.980469 C 881.425781 762.601562 881.125 761.179688 880.820312 759.757812 C 880.570312 758.605469 880.242188 757.496094 880.230469 756.410156 C 880.113281 754.085938 879.460938 751.867188 878.65625 749.734375 C 878.382812 748.894531 878.03125 748.09375 877.875 747.289062 C 877.472656 744.628906 876.835938 741.90625 876.820312 739.226562 C 876.789062 735.464844 876.414062 731.792969 876.117188 728.082031 C 875.867188 724.640625 875.738281 721.230469 876.695312 717.804688 C 876.796875 717.453125 876.808594 716.945312 876.90625 716.589844 C 878.164062 712.105469 878.480469 707.546875 878.800781 702.988281 C 879.03125 700.570312 879.453125 698.144531 879.492188 695.734375 C 879.507812 686.574219 879.597656 677.367188 879.730469 668.238281 C 879.753906 664.046875 879.707031 659.894531 879.074219 655.773438 C 878.941406 654.652344 878.808594 653.535156 878.753906 652.371094 C 878.257812 647.078125 877.226562 641.890625 874.742188 637.121094 C 873.613281 633.179688 871.203125 629.960938 869.550781 626.316406 C 867.300781 623.207031 865.796875 619.476562 862.574219 617.113281 C 861.25 615.46875 859.808594 613.796875 858.484375 612.152344 C 858.070312 611.589844 857.6875 610.910156 857.160156 610.511719 C 854.527344 608.3125 852.113281 605.792969 849.191406 603.957031 C 848.429688 603.488281 847.742188 602.980469 847.058594 602.472656 C 844.359375 600.507812 841.457031 599.0625 838.191406 598.214844 C 835.558594 597.605469 832.917969 596.804688 830.320312 596.082031 C 828.667969 595.617188 827.046875 595.039062 825.425781 594.460938 C 822.304688 593.332031 819.046875 592.679688 815.859375 591.789062 C 815.269531 591.625 814.765625 591.609375 814.183594 591.640625 C 811.632812 591.882812 808.988281 591.78125 806.46875 591.90625 C 803.875 592.074219 801.273438 592.046875 798.714844 592.097656 C 797.550781 592.152344 796.476562 592.363281 795.367188 592.6875 C 794.027344 593.144531 792.605469 593.445312 791.226562 593.824219 C 787.78125 594.773438 784.375 595.796875 780.9375 596.9375 C 778.589844 597.363281 776.617188 598.277344 774.855469 597.976562 Z M 808.691406 606.273438 C 809.171875 605.007812 809.960938 604.464844 811.378906 604.859375 C 814.449219 605.71875 817.511719 606.382812 820.546875 607.355469 C 822.363281 607.925781 824.132812 608.421875 825.9375 608.796875 C 827.226562 608.964844 828.484375 609.253906 829.742188 609.539062 C 833.113281 610.226562 836.320312 611.503906 839.289062 613.414062 C 842.019531 615.257812 844.71875 617.222656 846.820312 619.71875 C 848.175781 621.242188 849.566406 622.648438 850.847656 624.214844 C 854.230469 628.277344 857.28125 632.628906 859.164062 637.738281 C 859.480469 638.65625 859.914062 639.605469 860.425781 640.511719 C 862.726562 645.480469 864.113281 650.769531 864.425781 656.265625 C 864.765625 661.644531 865.074219 667.140625 864.761719 672.59375 C 864.507812 676.914062 864.332031 681.191406 864.464844 685.492188 C 864.550781 691.117188 864.203125 696.6875 863.542969 702.230469 C 863.292969 704.261719 863.121094 706.25 862.828125 708.207031 C 862.480469 710.589844 861.980469 713.0625 861.515625 715.414062 C 860.925781 718.433594 861.035156 721.453125 861.414062 724.425781 C 861.707031 727.242188 862.046875 730.136719 862.339844 732.957031 C 862.808594 736.972656 863.160156 740.953125 863.78125 744.878906 C 864.308594 748.464844 865.136719 751.878906 865.855469 755.453125 C 866.324219 757.875 866.480469 760.273438 866.25 762.691406 C 865.785156 768.226562 865.363281 773.839844 865.015625 779.40625 C 864.609375 786.101562 862.503906 792.261719 859.261719 798.167969 C 858.402344 799.648438 857.382812 801.019531 857.007812 802.824219 C 856.851562 803.605469 856.265625 804.335938 855.753906 805.019531 C 855.210938 805.824219 854.433594 806.558594 853.890625 807.363281 C 853.054688 808.53125 852.058594 809.589844 850.730469 810.238281 C 849.632812 810.757812 848.9375 811.644531 848.242188 812.535156 C 845.382812 815.9375 842.320312 819.15625 839.050781 822.191406 C 836.789062 824.359375 834.410156 826.496094 831.53125 827.917969 C 829.597656 828.90625 827.710938 829.972656 826.023438 831.21875 C 823.699219 832.925781 821.207031 834.332031 818.800781 835.886719 C 817.558594 836.6875 816.347656 837.367188 815.226562 838.199219 C 812.089844 840.761719 808.613281 842.71875 805.136719 844.675781 C 803.25 845.742188 801.359375 846.804688 799.71875 848.128906 C 797.921875 849.539062 795.96875 850.835938 793.917969 851.792969 C 790.273438 853.449219 786.933594 855.828125 783.160156 857.257812 C 782.363281 857.605469 781.648438 858.109375 780.9375 858.609375 C 778.0625 860.925781 774.609375 862.570312 771.820312 865.039062 C 769.132812 866.453125 766.859375 868.429688 764.546875 870.328125 C 760.441406 873.636719 756.417969 877.097656 752.4375 880.632812 C 750.390625 882.480469 748.550781 884.515625 746.378906 886.136719 C 743.308594 888.460938 740.453125 891.164062 737.628906 893.75 C 734.699219 896.496094 731.925781 899.351562 729.605469 902.648438 C 727.933594 904.984375 726.058594 907.132812 724.023438 909.175781 C 720.808594 912.480469 717.796875 915.964844 715.105469 919.671875 C 712.925781 922.691406 710.90625 925.820312 708.765625 928.914062 C 708.441406 929.394531 708.234375 929.910156 707.949219 930.46875 C 705.574219 935.789062 704.171875 941.253906 704.070312 947.082031 C 704.039062 950.382812 704.082031 953.640625 703.546875 956.925781 C 703.199219 959.3125 702.894531 961.773438 702.542969 964.15625 C 702.398438 965.136719 702.296875 966.1875 702.34375 967.15625 C 702.507812 969.75 702.675781 972.34375 703.1875 974.839844 C 704.167969 979.761719 704.609375 984.785156 704.738281 989.785156 C 704.828125 992.421875 704.640625 994.914062 703.992188 997.46875 C 702.988281 1001.519531 701.941406 1005.492188 701.097656 1009.648438 C 700.230469 1014.117188 699.050781 1018.558594 697.558594 1022.980469 C 696.945312 1024.71875 696.257812 1026.5 695.761719 1028.273438 C 695.113281 1030.828125 694.140625 1033.167969 692.8125 1035.40625 C 691.3125 1038.042969 689.8125 1040.679688 688.503906 1043.304688 C 686.457031 1047.445312 684.003906 1051.214844 680.628906 1054.410156 C 679.957031 1054.984375 679.445312 1055.671875 678.691406 1056.097656 C 676.617188 1057.363281 674.503906 1058.554688 672.34375 1059.671875 C 670.792969 1060.449219 669.144531 1060.878906 667.347656 1060.695312 C 666.371094 1060.550781 665.328125 1060.640625 664.324219 1060.808594 C 660.925781 1061.132812 657.480469 1061.378906 654.066406 1062.207031 C 652.957031 1062.535156 651.835938 1062.667969 650.71875 1062.800781 C 649.984375 1062.914062 649.285156 1062.910156 648.621094 1062.789062 C 646.78125 1062.53125 644.9375 1062.078125 643.132812 1061.703125 C 642.703125 1061.644531 642.261719 1061.394531 642.015625 1061.136719 C 640.882812 1060.183594 639.539062 1059.746094 638.132812 1059.542969 C 636.132812 1059.175781 634.203125 1058.574219 633.0625 1056.726562 C 630.109375 1054.3125 627.191406 1051.777344 623.574219 1050.132812 C 619.960938 1048.488281 617.148438 1045.792969 615.117188 1042.363281 C 614.105469 1040.742188 612.875 1039.445312 611.605469 1038.070312 C 610.824219 1037.21875 609.9375 1036.523438 609.492188 1035.382812 C 609.226562 1034.734375 608.660156 1034.257812 608.019531 1033.824219 C 607.011719 1033.097656 606.339844 1032.082031 606.132812 1031.007812 C 605.695312 1028.464844 604.300781 1026.167969 604.058594 1023.617188 C 604.039062 1023.230469 603.9375 1022.691406 603.691406 1022.433594 C 602.476562 1020.628906 602.457031 1018.648438 602.511719 1016.628906 C 602.539062 1015.617188 602.492188 1014.648438 602.324219 1013.648438 C 601.898438 1011.300781 602.375 1009.144531 603.476562 1007.03125 C 605.773438 1002.453125 608.03125 997.800781 610.402344 993.179688 C 611.425781 991.109375 612.535156 989.191406 613.238281 986.90625 C 613.699219 985.253906 614.558594 983.773438 615.859375 982.546875 C 617.046875 981.476562 617.757812 980.082031 618.582031 978.722656 C 620.757812 974.8125 623.019531 971.050781 626.039062 967.753906 C 626.960938 966.738281 627.753906 965.496094 628.429688 964.222656 C 629.460938 962.34375 630.613281 960.503906 631.851562 958.8125 C 633.488281 956.59375 634.410156 953.988281 634.78125 951.289062 C 635.296875 947.617188 635.074219 943.863281 634.464844 940.125 C 633.832031 936.003906 632.320312 932.082031 632.226562 927.855469 C 632.25 927.542969 632.125 927.316406 632.070312 927.046875 C 631.417969 924.828125 630.882812 922.640625 629.960938 920.476562 C 629.082031 918.382812 627.597656 916.632812 626.828125 914.378906 C 626.691406 913.960938 626.25 913.710938 626.003906 913.449219 C 625.597656 913.082031 625.074219 912.683594 624.894531 912.1875 C 623.980469 910.210938 622.28125 908.785156 620.882812 907.183594 C 619.527344 905.660156 618.136719 904.253906 616.929688 902.644531 C 615.640625 900.882812 614.089844 899.367188 612.617188 897.8125 C 610.734375 895.886719 608.8125 893.882812 606.929688 891.960938 C 605.660156 890.585938 604.128906 889.457031 602.457031 888.609375 C 601.664062 888.261719 600.867188 887.914062 600.257812 887.359375 C 598.507812 885.660156 596.242188 884.648438 594.488281 882.949219 C 593.507812 881.910156 592.339844 881.074219 591.433594 879.996094 C 589.289062 879.015625 587.726562 877.304688 585.875 875.960938 C 583.457031 874.140625 581.1875 872.234375 578.953125 870.210938 C 576.84375 868.414062 574.746094 866.808594 573.082031 864.5625 C 572.753906 864.152344 572.195312 863.867188 571.789062 863.5 C 568.484375 860.289062 564.78125 857.597656 561.738281 854.140625 C 560.253906 852.386719 558.585938 850.839844 556.917969 849.292969 C 554.84375 847.375 552.652344 845.429688 551.171875 842.976562 C 550.875 842.449219 550.464844 842.082031 550.058594 841.714844 C 547.699219 839.460938 545.550781 836.890625 543.632812 834.191406 C 541.296875 830.929688 538.886719 827.710938 537.988281 823.640625 C 537.832031 822.832031 537.363281 822.003906 536.9375 821.246094 C 533.984375 815.648438 531.601562 809.828125 530.207031 803.648438 C 529.957031 802.496094 529.632812 801.386719 529.003906 800.445312 C 528.332031 799.429688 528.242188 798.386719 528.183594 797.226562 C 528.125 796.0625 527.726562 794.996094 528.171875 793.847656 C 528.523438 793.054688 528.636719 792.195312 528.746094 791.335938 C 528.96875 790.316406 529.394531 789.480469 530.171875 788.742188 C 531.914062 787.0625 533.453125 785.203125 534.949219 783.265625 C 536.847656 780.804688 539.332031 779.203125 542.402344 778.46875 C 545.203125 777.789062 547.917969 776.953125 550.761719 776.347656 C 553.140625 775.804688 555.523438 775.257812 557.953125 774.980469 C 561.699219 774.5625 565.359375 773.996094 568.980469 773.347656 C 575.589844 772.011719 582.308594 771.214844 589.050781 770.996094 C 595.636719 770.667969 602.265625 770.417969 608.765625 769.242188 C 609.304688 769.136719 609.886719 769.109375 610.46875 769.082031 C 619.777344 768.113281 628.878906 766.070312 637.894531 763.878906 C 642.074219 762.816406 646.210938 761.679688 650.339844 760.351562 C 653.398438 759.421875 656.34375 758.460938 659.179688 756.960938 C 662.320312 755.292969 665.628906 753.925781 668.984375 752.632812 C 671.269531 751.742188 673.46875 750.703125 675.628906 749.585938 C 680.246094 747.183594 684.703125 744.671875 688.820312 741.558594 C 690.582031 740.265625 692.183594 738.867188 693.699219 737.316406 C 695.246094 735.648438 696.710938 733.828125 698.300781 732.238281 C 701.417969 729.289062 704.246094 726.003906 707.160156 722.871094 C 708.859375 721.117188 710.355469 719.179688 711.734375 717.207031 C 715.574219 711.660156 719.257812 706.003906 722.980469 700.425781 C 724.316406 698.378906 725.535156 696.300781 726.710938 694.144531 C 727.675781 692.507812 728.453125 690.875 729.417969 689.238281 C 731.289062 686.195312 733.316406 683.257812 735.101562 680.066406 C 738.136719 674.675781 740.933594 669.21875 743.851562 663.792969 C 744.492188 662.636719 744.941406 661.488281 745.582031 660.332031 C 747.617188 656.699219 749.8125 653.171875 751.726562 649.507812 C 753.820312 645.445312 755.867188 641.304688 757.839844 637.210938 C 759.496094 633.789062 761.441406 630.703125 764.101562 628.011719 C 765.953125 626.171875 767.730469 624.375 769.417969 622.429688 C 773.277344 617.96875 777.625 614.023438 782.089844 610.117188 C 785.140625 607.402344 788.816406 606.328125 792.765625 606.09375 C 794.582031 605.964844 796.539062 606.253906 798.265625 606.675781 C 801.898438 607.117188 805.320312 607.179688 808.691406 606.273438 Z M 808.691406 606.273438 " fill-opacity="1" fill-rule="nonzero"/></g></g></g><path fill="#e49eaa" d="M 632.160156 585.601562 C 632.523438 585.28125 635.054688 583.042969 635.054688 583.042969 C 635.054688 583.042969 671.34375 597.078125 674.230469 600.402344 C 675.753906 602.15625 657.117188 610.398438 657.117188 610.398438 C 657.117188 610.398438 650.601562 624.003906 646.429688 629.226562 C 645.511719 630.378906 643.316406 632.152344 642.890625 632.125 C 638.492188 631.832031 628.894531 588.488281 632.160156 585.601562 Z M 632.160156 585.601562 " fill-opacity="1" fill-rule="nonzero"/><g clip-path="url(#1411eb80b8)"><path fill="#e49eaa" d="M 669.84375 640.03125 C 674.992188 640.894531 681.050781 632.042969 681.664062 629.582031 C 682.273438 627.117188 660.613281 606.304688 660.613281 606.304688 L 648.796875 616.753906 C 648.792969 616.753906 664.695312 639.167969 669.84375 640.03125 Z M 669.84375 640.03125 " fill-opacity="1" fill-rule="nonzero"/></g><path fill="#f9cbd1" d="M 635.054688 583.042969 C 638.324219 580.152344 676.445312 595.84375 679.691406 599.585938 C 681.414062 601.570312 657.117188 610.398438 657.117188 610.398438 C 657.117188 610.398438 647.851562 629.703125 645.789062 629.5625 C 641.386719 629.269531 631.789062 585.929688 635.054688 583.042969 Z M 635.054688 583.042969 " fill-opacity="1" fill-rule="nonzero"/><path fill="#f9cbd1" d="M 672.632812 637.347656 C 677.976562 638.441406 683.910156 629.441406 684.453125 626.898438 C 684.996094 624.355469 661.429688 601.34375 661.429688 601.34375 L 649.609375 611.796875 C 649.609375 611.796875 667.289062 636.257812 672.632812 637.347656 Z M 672.632812 637.347656 " fill-opacity="1" fill-rule="nonzero"/><g clip-path="url(#f8a4972950)"><path fill="#faebe7" d="M 252.957031 -185.164062 C 250.183594 -184.902344 247.929688 -184.644531 245.585938 -184.554688 C 242.550781 -184.382812 239.601562 -183.601562 236.742188 -182.996094 C 236.308594 -182.910156 235.875 -182.734375 235.527344 -182.5625 C 232.839844 -181.089844 229.976562 -180.308594 227.027344 -179.527344 C 224.859375 -178.921875 222.605469 -178.226562 220.523438 -177.363281 C 216.96875 -176.0625 213.847656 -174.066406 210.726562 -171.988281 C 208.730469 -170.601562 206.824219 -169.039062 204.828125 -167.652344 C 202.746094 -166.179688 200.578125 -164.707031 198.324219 -163.492188 C 189.480469 -158.464844 181.066406 -152.742188 172.394531 -147.367188 C 169.621094 -145.632812 166.757812 -143.988281 163.808594 -142.425781 C 159.996094 -140.433594 156.351562 -138.179688 152.625 -135.925781 C 151.667969 -135.316406 150.714844 -134.625 149.675781 -134.191406 C 144.90625 -132.109375 140.484375 -129.421875 135.972656 -126.910156 C 135.019531 -126.304688 133.980469 -125.78125 132.9375 -125.261719 C 129.554688 -123.441406 125.914062 -122.140625 122.183594 -120.929688 C 118.195312 -119.628906 114.292969 -118.242188 110.390625 -116.855469 C 107.097656 -115.726562 103.714844 -115.035156 100.246094 -114.945312 C 99.636719 -114.945312 99.117188 -114.945312 98.511719 -114.859375 C 97.210938 -114.773438 95.910156 -114.425781 94.695312 -114.511719 C 92.699219 -114.601562 90.707031 -114.945312 88.710938 -115.207031 C 88.019531 -115.292969 87.324219 -115.46875 86.628906 -115.554688 C 84.808594 -115.726562 82.902344 -115.207031 81.082031 -115.554688 C 79.433594 -115.898438 77.699219 -115.988281 75.964844 -116.074219 C 73.96875 -116.160156 71.976562 -116.421875 69.980469 -116.765625 C 67.984375 -117.113281 66.078125 -117.546875 63.996094 -117.375 C 63.476562 -117.375 62.871094 -117.546875 62.347656 -117.808594 C 58.535156 -119.109375 54.71875 -120.148438 50.816406 -121.1875 C 46.828125 -122.226562 42.925781 -123.703125 39.023438 -125.175781 C 35.640625 -126.476562 32.257812 -127.691406 28.875 -128.730469 C 24.625 -130.03125 20.550781 -131.851562 16.5625 -133.757812 C 16.214844 -133.929688 15.695312 -134.105469 15.519531 -134.453125 C 13.527344 -137.136719 10.230469 -137.746094 7.542969 -139.304688 C 6.328125 -140 4.941406 -140.519531 3.640625 -141.125 C 0.433594 -142.773438 -2.777344 -144.332031 -6.332031 -144.941406 C -7.027344 -145.027344 -7.71875 -145.289062 -8.414062 -145.546875 C -9.972656 -146.242188 -11.621094 -146.761719 -13.355469 -147.109375 C -14.222656 -147.28125 -15.089844 -147.542969 -15.785156 -147.886719 C -19.253906 -149.707031 -23.070312 -150.402344 -26.625 -151.875 C -27.492188 -152.222656 -28.53125 -152.394531 -29.574219 -152.480469 C -32.175781 -152.65625 -34.691406 -153.175781 -37.117188 -153.957031 C -39.632812 -154.734375 -42.148438 -154.910156 -44.75 -154.476562 C -46.050781 -154.214844 -47.265625 -153.957031 -48.476562 -153.4375 C -50.992188 -152.480469 -53.507812 -151.441406 -56.195312 -150.835938 C -58.191406 -150.402344 -59.839844 -149.1875 -61.226562 -147.714844 C -62.875 -146.066406 -64.261719 -144.246094 -65.910156 -142.6875 C -66.949219 -141.644531 -67.46875 -140.257812 -68.421875 -139.21875 C -69.464844 -138.179688 -70.679688 -137.398438 -71.546875 -136.359375 C -72.933594 -134.539062 -74.40625 -132.804688 -75.1875 -130.550781 C -75.882812 -128.558594 -76.835938 -126.5625 -77.617188 -124.570312 C -79.003906 -121.1875 -79.695312 -117.632812 -79.4375 -114.078125 C -79.175781 -110.265625 -79.695312 -106.625 -80.304688 -102.984375 C -80.910156 -99.429688 -80.910156 -95.789062 -80.5625 -92.234375 C -80.128906 -87.554688 -79.351562 -82.871094 -78.828125 -78.191406 C -78.136719 -72.644531 -76.574219 -67.269531 -74.839844 -61.894531 C -74.234375 -60.160156 -73.453125 -58.425781 -72.757812 -56.691406 C -71.804688 -54.179688 -70.851562 -51.578125 -69.984375 -49.066406 C -67.902344 -42.996094 -65.996094 -36.84375 -63.742188 -30.773438 C -62.265625 -26.785156 -60.359375 -22.886719 -58.625 -18.984375 C -55.847656 -13.003906 -53.335938 -6.933594 -51.339844 -0.605469 C -50.300781 2.6875 -49.085938 5.894531 -47.785156 9.101562 C -46.398438 12.570312 -45.617188 16.210938 -45.183594 19.9375 C -44.921875 22.367188 -45.097656 24.792969 -45.875 27.132812 C -46.570312 29.300781 -47.175781 31.554688 -47.785156 33.722656 C -48.566406 36.84375 -49.777344 39.703125 -50.90625 42.648438 C -51.339844 43.691406 -51.945312 44.730469 -52.46875 45.683594 C -52.988281 46.550781 -53.769531 47.15625 -54.722656 47.589844 C -56.714844 48.371094 -58.710938 49.238281 -60.707031 50.019531 C -61.917969 50.453125 -63.132812 50.972656 -64.347656 51.230469 C -67.902344 51.925781 -71.199219 53.140625 -74.320312 55.132812 C -76.402344 56.433594 -78.570312 57.558594 -80.996094 58.082031 C -82.992188 58.601562 -84.726562 59.554688 -86.375 60.679688 C -88.367188 62.066406 -90.363281 63.542969 -92.269531 64.929688 C -93.917969 66.140625 -95.566406 67.183594 -97.472656 67.960938 C -99.207031 68.65625 -100.855469 69.523438 -102.332031 70.738281 C -103.023438 71.257812 -103.71875 71.691406 -104.5 72.125 C -106.058594 72.902344 -107.445312 73.855469 -108.835938 74.898438 C -110.65625 76.285156 -112.304688 77.84375 -114.210938 79.058594 C -114.90625 79.492188 -115.511719 80.183594 -116.117188 80.792969 C -120.542969 85.648438 -123.921875 91.019531 -125.917969 97.347656 C -127.738281 103.15625 -128.691406 109.050781 -129.386719 115.035156 C -129.734375 118.15625 -129.386719 121.363281 -129.125 124.484375 C -128.867188 126.738281 -128.691406 129.078125 -128.519531 131.332031 C -128.171875 135.664062 -126.957031 139.824219 -125.570312 143.898438 C -125.222656 144.941406 -124.53125 145.980469 -124.011719 146.933594 C -122.796875 149.015625 -121.410156 151.007812 -120.195312 153.175781 C -118.894531 155.429688 -117.332031 157.421875 -115.425781 159.242188 C -112.214844 162.363281 -109.007812 165.398438 -105.625 168.257812 C -104.933594 168.78125 -104.238281 169.300781 -103.542969 169.734375 C -101.03125 171.121094 -98.773438 172.855469 -96.519531 174.675781 C -95.652344 175.367188 -94.699219 176.0625 -93.660156 176.496094 C -90.277344 178.140625 -86.894531 179.527344 -83.078125 180.050781 C -80.5625 180.394531 -78.050781 181.089844 -75.707031 182.300781 C -73.714844 183.34375 -71.457031 184.035156 -69.289062 184.730469 C -68.335938 184.988281 -67.296875 185.078125 -66.34375 185.164062 C -64.085938 185.25 -61.746094 185.25 -59.492188 185.25 C -54.113281 185.335938 -49 184.210938 -44.230469 181.523438 C -43.882812 181.347656 -43.449219 181.089844 -43.015625 181.003906 C -39.804688 180.394531 -37.292969 178.402344 -34.691406 176.667969 C -32.523438 175.195312 -30.441406 173.808594 -28.097656 172.59375 C -26.449219 171.726562 -24.804688 170.773438 -23.328125 169.644531 C -20.640625 167.566406 -17.867188 165.484375 -15.4375 162.972656 C -13.703125 161.0625 -11.707031 159.332031 -9.886719 157.597656 C -7.894531 155.777344 -5.984375 153.78125 -4.425781 151.527344 C -2.515625 148.839844 0.0859375 146.675781 2.253906 144.246094 C 4.074219 142.167969 5.894531 140.257812 7.628906 138.09375 C 11.964844 132.71875 15.433594 126.738281 17.777344 120.234375 C 19.164062 116.421875 21.15625 112.953125 23.324219 109.574219 C 24.019531 108.445312 24.800781 107.40625 25.667969 106.453125 C 28.007812 103.765625 30.003906 100.730469 31.910156 97.695312 C 33.730469 94.75 35.378906 91.800781 37.722656 89.199219 C 39.28125 87.46875 40.929688 85.992188 42.925781 84.78125 C 48.128906 81.660156 53.503906 79.058594 59.226562 77.066406 C 63.5625 75.589844 67.8125 73.855469 72.0625 72.125 C 75.011719 70.910156 78.046875 70.042969 81.082031 69.261719 C 84.375 68.394531 87.757812 67.703125 91.140625 67.007812 C 92.789062 66.664062 94.523438 66.316406 96.167969 65.882812 C 100.070312 64.929688 103.972656 64.148438 107.964844 63.542969 C 108.832031 63.453125 109.699219 63.28125 110.476562 63.109375 C 115.941406 61.722656 121.492188 61.199219 127.042969 60.421875 C 131.117188 59.902344 135.367188 59.8125 139.527344 59.640625 C 142.652344 59.46875 145.859375 59.378906 148.980469 59.207031 C 151.410156 59.035156 153.835938 58.601562 156.265625 58.253906 C 159.128906 57.90625 161.988281 57.472656 164.765625 57.214844 C 171.703125 56.433594 178.726562 55.652344 185.75 55.132812 C 189.480469 54.871094 193.207031 54.699219 196.9375 54.179688 C 200.492188 53.746094 204.046875 53.050781 207.515625 52.273438 C 215.0625 50.453125 222.433594 48.023438 229.457031 44.816406 C 231.105469 44.035156 232.839844 43.257812 234.488281 42.304688 C 238.300781 40.050781 242.117188 37.796875 245.671875 35.023438 C 248.621094 32.679688 251.222656 29.992188 253.390625 26.960938 C 254.519531 25.484375 255.644531 24.011719 256.601562 22.367188 C 257.902344 20.113281 259.636719 18.203125 261.628906 16.558594 C 263.105469 15.34375 264.144531 13.785156 264.664062 11.960938 C 265.011719 10.574219 265.445312 9.1875 265.878906 7.800781 C 266.226562 6.675781 266.484375 5.546875 267.007812 4.59375 C 268.046875 2.515625 268.566406 0.261719 268.914062 -1.992188 C 269.085938 -2.859375 269.175781 -3.726562 269.433594 -4.507812 C 270.386719 -7.023438 271.167969 -9.707031 272.46875 -12.050781 C 274.289062 -15.34375 275.765625 -18.722656 277.324219 -22.105469 C 278.800781 -25.226562 280.359375 -28.261719 282.875 -30.773438 C 283.136719 -31.035156 283.394531 -31.46875 283.65625 -31.726562 C 286.953125 -35.019531 289.464844 -38.835938 291.980469 -42.648438 C 293.367188 -44.644531 294.929688 -46.550781 296.144531 -48.632812 C 300.652344 -56.605469 305.25 -64.582031 309.84375 -72.46875 C 311.925781 -76.109375 313.921875 -79.75 315.394531 -83.652344 C 315.828125 -84.691406 316.261719 -85.734375 316.78125 -86.773438 C 318.949219 -91.628906 320.597656 -96.65625 320.773438 -102.03125 C 321.726562 -106.019531 321.207031 -110.003906 321.550781 -113.992188 C 321.117188 -117.808594 321.640625 -121.796875 319.992188 -125.4375 C 319.644531 -127.515625 319.210938 -129.683594 318.863281 -131.765625 C 318.777344 -132.457031 318.777344 -133.238281 318.515625 -133.84375 C 317.304688 -137.050781 316.4375 -140.433594 314.789062 -143.46875 C 314.355469 -144.246094 314.007812 -145.027344 313.660156 -145.808594 C 312.273438 -148.839844 310.453125 -151.527344 308.023438 -153.871094 C 306.03125 -155.691406 304.121094 -157.683594 302.214844 -159.589844 C 301 -160.804688 299.871094 -162.105469 298.746094 -163.40625 C 296.578125 -165.917969 294.0625 -168.085938 291.722656 -170.425781 C 291.289062 -170.859375 290.855469 -171.121094 290.332031 -171.378906 C 287.992188 -172.421875 285.738281 -173.808594 283.484375 -174.933594 C 281.140625 -176.0625 278.886719 -177.363281 276.632812 -178.574219 C 275.589844 -179.09375 274.550781 -179.441406 273.421875 -179.703125 C 272.035156 -179.960938 270.648438 -180.394531 269.261719 -180.742188 C 265.792969 -181.609375 262.324219 -182.390625 258.769531 -183.082031 C 256.511719 -183.863281 254.34375 -184.035156 252.957031 -185.164062 Z M 278.367188 -161.324219 C 279.40625 -162.191406 280.359375 -162.277344 281.402344 -161.238281 C 283.65625 -158.984375 285.996094 -156.902344 288.164062 -154.5625 C 289.464844 -153.175781 290.765625 -151.875 292.15625 -150.660156 C 293.195312 -149.882812 294.148438 -149.015625 295.101562 -148.148438 C 297.703125 -145.894531 299.871094 -143.207031 301.519531 -140.085938 C 302.996094 -137.140625 304.382812 -134.105469 304.988281 -130.898438 C 305.421875 -128.902344 305.941406 -126.996094 306.289062 -125.003906 C 307.242188 -119.800781 307.765625 -114.511719 306.898438 -109.140625 C 306.722656 -108.183594 306.636719 -107.144531 306.636719 -106.105469 C 306.203125 -100.644531 304.816406 -95.355469 302.386719 -90.414062 C 300.046875 -85.558594 297.617188 -80.617188 294.667969 -76.023438 C 292.328125 -72.382812 290.074219 -68.742188 288.078125 -64.929688 C 285.390625 -59.988281 282.355469 -55.304688 279.058594 -50.796875 C 277.847656 -49.152344 276.71875 -47.503906 275.503906 -45.945312 C 274.03125 -44.035156 272.382812 -42.128906 270.820312 -40.308594 C 268.828125 -37.96875 267.441406 -35.28125 266.3125 -32.507812 C 265.183594 -29.90625 264.058594 -27.21875 262.929688 -24.617188 C 261.371094 -20.890625 259.722656 -17.25 258.335938 -13.523438 C 257.035156 -10.140625 256.078125 -6.761719 254.953125 -3.292969 C 254.171875 -0.953125 253.132812 1.214844 251.742188 3.207031 C 248.621094 7.800781 245.5 12.484375 242.464844 17.164062 C 238.824219 22.796875 233.964844 27.132812 228.242188 30.6875 C 226.769531 31.554688 225.207031 32.246094 223.992188 33.632812 C 223.472656 34.242188 222.605469 34.589844 221.824219 34.933594 C 220.957031 35.367188 219.917969 35.628906 219.050781 36.0625 C 217.75 36.667969 216.363281 37.101562 214.886719 37.015625 C 213.675781 36.929688 212.632812 37.363281 211.59375 37.796875 C 207.429688 39.355469 203.179688 40.65625 198.84375 41.695312 C 195.808594 42.476562 192.6875 43.171875 189.480469 42.996094 C 187.3125 42.910156 185.144531 42.910156 183.0625 43.171875 C 180.199219 43.515625 177.339844 43.515625 174.476562 43.691406 C 173.003906 43.777344 171.613281 43.777344 170.226562 43.949219 C 166.238281 44.644531 162.25 44.644531 158.261719 44.644531 C 156.09375 44.644531 153.925781 44.644531 151.84375 44.992188 C 149.589844 45.335938 147.246094 45.511719 144.992188 45.335938 C 141.003906 44.992188 136.925781 45.425781 132.9375 44.816406 C 132.070312 44.730469 131.203125 44.816406 130.335938 44.902344 C 126.695312 45.511719 122.878906 45.25 119.238281 46.03125 C 116.203125 45.945312 113.253906 46.550781 110.304688 47.070312 C 105.101562 47.9375 99.898438 48.976562 94.695312 50.105469 C 92.007812 50.710938 89.40625 51.578125 86.71875 51.925781 C 82.902344 52.445312 79.085938 53.398438 75.355469 54.265625 C 71.453125 55.21875 67.640625 56.347656 63.996094 58.082031 C 61.394531 59.292969 58.707031 60.246094 55.933594 61.027344 C 51.507812 62.328125 47.171875 63.886719 43.011719 65.796875 C 39.628906 67.355469 36.332031 69.089844 32.953125 70.738281 C 32.429688 70.996094 31.996094 71.34375 31.476562 71.691406 C 26.792969 75.15625 22.890625 79.230469 19.945312 84.257812 C 18.296875 87.121094 16.734375 89.980469 14.652344 92.582031 C 13.179688 94.488281 11.707031 96.484375 10.230469 98.390625 C 9.625 99.167969 9.015625 100.035156 8.582031 100.902344 C 7.457031 103.246094 6.328125 105.585938 5.546875 108.011719 C 3.988281 112.78125 1.90625 117.375 -0.433594 121.796875 C -1.648438 124.136719 -3.035156 126.214844 -4.859375 128.125 C -7.71875 131.15625 -10.582031 134.105469 -13.355469 137.3125 C -16.304688 140.78125 -19.515625 144.074219 -22.984375 147.195312 C -24.371094 148.40625 -25.84375 149.621094 -27.144531 150.921875 C -28.964844 152.828125 -30.960938 154.390625 -33.214844 155.691406 C -35.816406 157.25 -38.417969 158.808594 -40.847656 160.457031 C -44.664062 163.058594 -48.652344 165.136719 -53.160156 166.265625 C -54.027344 166.4375 -54.808594 166.785156 -55.675781 166.785156 C -58.105469 166.871094 -60.53125 166.871094 -62.960938 166.785156 C -64.695312 166.699219 -66.34375 166.265625 -67.816406 165.226562 C -68.597656 164.617188 -69.550781 164.183594 -70.503906 163.839844 C -73.625 162.453125 -76.75 160.976562 -80.128906 160.023438 C -81.257812 159.765625 -82.296875 159.332031 -83.339844 158.898438 C -84.03125 158.636719 -84.640625 158.289062 -85.160156 157.855469 C -86.632812 156.730469 -88.023438 155.429688 -89.410156 154.214844 C -89.757812 153.957031 -90.015625 153.523438 -90.101562 153.175781 C -90.625 151.789062 -91.578125 150.75 -92.703125 149.882812 C -94.265625 148.582031 -95.652344 147.109375 -95.738281 144.941406 C -97.128906 141.386719 -98.429688 137.746094 -100.769531 134.539062 C -103.109375 131.332031 -104.238281 127.601562 -104.324219 123.617188 C -104.410156 121.707031 -104.84375 119.976562 -105.277344 118.15625 C -105.539062 117.027344 -105.972656 115.988281 -105.800781 114.773438 C -105.710938 114.078125 -105.972656 113.386719 -106.320312 112.691406 C -106.839844 111.566406 -106.925781 110.351562 -106.578125 109.3125 C -105.710938 106.886719 -105.800781 104.199219 -104.757812 101.855469 C -104.585938 101.511719 -104.410156 100.992188 -104.5 100.644531 C -104.671875 98.476562 -103.71875 96.742188 -102.675781 95.007812 C -102.15625 94.140625 -101.722656 93.273438 -101.375 92.320312 C -100.597656 90.066406 -99.121094 88.421875 -97.128906 87.121094 C -92.878906 84.257812 -88.628906 81.3125 -84.292969 78.453125 C -82.386719 77.152344 -80.476562 76.023438 -78.742188 74.378906 C -77.527344 73.164062 -76.054688 72.296875 -74.320312 71.863281 C -72.757812 71.515625 -71.457031 70.648438 -70.070312 69.871094 C -66.253906 67.527344 -62.441406 65.363281 -58.191406 63.976562 C -56.890625 63.542969 -55.589844 62.847656 -54.375 62.066406 C -52.554688 60.941406 -50.644531 59.902344 -48.738281 59.035156 C -46.222656 57.90625 -44.140625 56.085938 -42.496094 53.917969 C -40.238281 50.972656 -38.59375 47.589844 -37.292969 44.035156 C -35.816406 40.136719 -35.210938 35.976562 -33.214844 32.246094 C -33.042969 31.988281 -33.042969 31.726562 -32.957031 31.46875 C -32.433594 29.214844 -31.828125 27.046875 -31.566406 24.707031 C -31.308594 22.453125 -31.742188 20.199219 -31.308594 17.859375 C -31.222656 17.425781 -31.480469 16.992188 -31.566406 16.644531 C -31.742188 16.125 -32 15.515625 -31.914062 14.996094 C -31.742188 12.828125 -32.523438 10.75 -32.957031 8.667969 C -33.390625 6.675781 -33.910156 4.769531 -34.167969 2.773438 C -34.429688 0.605469 -35.035156 -1.472656 -35.558594 -3.554688 C -36.25 -6.15625 -36.945312 -8.84375 -37.636719 -11.441406 C -38.070312 -13.261719 -38.851562 -14.996094 -39.894531 -16.558594 C -40.414062 -17.25 -40.933594 -17.945312 -41.195312 -18.722656 C -41.886719 -21.066406 -43.363281 -23.058594 -44.054688 -25.398438 C -44.402344 -26.785156 -45.007812 -28.085938 -45.269531 -29.472656 C -46.65625 -31.378906 -47.175781 -33.632812 -48.132812 -35.714844 C -49.34375 -38.488281 -50.386719 -41.261719 -51.339844 -44.125 C -52.292969 -46.722656 -53.335938 -49.152344 -53.679688 -51.925781 C -53.769531 -52.445312 -54.113281 -52.964844 -54.289062 -53.484375 C -55.589844 -57.90625 -57.496094 -62.066406 -58.449219 -66.574219 C -58.882812 -68.828125 -59.578125 -70.996094 -60.273438 -73.164062 C -61.140625 -75.851562 -62.09375 -78.625 -62.179688 -81.484375 C -62.179688 -82.09375 -62.351562 -82.613281 -62.527344 -83.132812 C -63.480469 -86.253906 -64.085938 -89.546875 -64.433594 -92.839844 C -64.867188 -96.828125 -65.386719 -100.816406 -64.175781 -104.804688 C -63.914062 -105.585938 -63.914062 -106.539062 -63.914062 -107.40625 C -63.742188 -113.734375 -62.960938 -119.976562 -61.140625 -126.042969 C -60.792969 -127.167969 -60.53125 -128.296875 -60.617188 -129.421875 C -60.707031 -130.636719 -60.273438 -131.589844 -59.75 -132.632812 C -59.230469 -133.671875 -59.058594 -134.796875 -58.105469 -135.578125 C -57.410156 -136.097656 -56.890625 -136.792969 -56.371094 -137.484375 C -55.675781 -138.265625 -54.894531 -138.785156 -53.855469 -139.046875 C -51.511719 -139.652344 -49.257812 -140.519531 -47.003906 -141.472656 C -44.140625 -142.6875 -41.195312 -142.859375 -38.160156 -141.992188 C -35.382812 -141.214844 -32.609375 -140.605469 -29.832031 -139.738281 C -27.492188 -139.046875 -25.152344 -138.351562 -22.894531 -137.398438 C -19.425781 -135.925781 -15.957031 -134.625 -12.488281 -133.410156 C -6.070312 -131.332031 0.171875 -128.730469 6.15625 -125.609375 C 12.050781 -122.660156 17.949219 -119.628906 24.191406 -117.460938 C 24.714844 -117.289062 25.234375 -117.027344 25.753906 -116.765625 C 34.339844 -113.039062 43.269531 -110.351562 52.203125 -107.839844 C 56.367188 -106.710938 60.527344 -105.671875 64.777344 -104.804688 C 67.898438 -104.109375 70.933594 -103.503906 74.144531 -103.417969 C 77.699219 -103.332031 81.253906 -102.898438 84.808594 -102.378906 C 87.238281 -102.03125 89.664062 -101.855469 92.09375 -101.769531 C 97.296875 -101.597656 102.414062 -101.597656 107.53125 -102.289062 C 109.699219 -102.550781 111.777344 -102.984375 113.859375 -103.589844 C 116.027344 -104.285156 118.195312 -105.152344 120.363281 -105.757812 C 124.527344 -106.796875 128.601562 -108.273438 132.679688 -109.570312 C 135.019531 -110.265625 137.273438 -111.21875 139.441406 -112.257812 C 145.511719 -115.207031 151.496094 -118.328125 157.480469 -121.363281 C 159.648438 -122.488281 161.730469 -123.703125 163.808594 -125.003906 C 165.457031 -125.957031 166.933594 -126.996094 168.578125 -127.949219 C 171.703125 -129.683594 174.910156 -131.242188 178.03125 -133.152344 C 183.320312 -136.359375 188.4375 -139.738281 193.640625 -143.035156 C 194.769531 -143.726562 195.722656 -144.507812 196.851562 -145.199219 C 200.40625 -147.367188 204.046875 -149.363281 207.515625 -151.617188 C 211.332031 -154.128906 215.148438 -156.730469 218.878906 -159.332031 C 222 -161.496094 225.207031 -163.230469 228.851562 -164.273438 C 231.363281 -164.964844 233.792969 -165.660156 236.222656 -166.527344 C 241.769531 -168.519531 247.496094 -169.820312 253.304688 -171.035156 C 257.292969 -171.898438 261.023438 -171.035156 264.578125 -169.300781 C 266.226562 -168.519531 267.785156 -167.304688 269.085938 -166.09375 C 272.035156 -163.925781 274.984375 -162.191406 278.367188 -161.324219 Z M 278.367188 -161.324219 " fill-opacity="1" fill-rule="nonzero"/></g><g fill="#af7264" fill-opacity="1"><g transform="translate(306.141745, 544.261928)"><g><path d="M 54.453125 -92.449219 C 55.472656 -96.941406 48.445312 -97.941406 47.410156 -93.589844 C 44.445312 -80.550781 41.898438 -67.558594 38.203125 -54.714844 C 34.421875 -41.4375 29.402344 -19.554688 16.984375 -11.316406 C 1.03125 -0.828125 3.3125 -35.074219 3.707031 -42.449219 C 4.742188 -57.515625 7.371094 -72.207031 9.550781 -87.125 C 10.152344 -91.566406 3.402344 -92.601562 2.664062 -88.144531 C 0.769531 -74.386719 -17.1875 4.855469 14.914062 -2.613281 C 29.871094 -6.078125 36.917969 -27.496094 41.289062 -40.5625 C 41.277344 -38.304688 41.246094 -36.1875 41.230469 -33.929688 C 41.109375 -23.058594 43.851562 4.8125 60.71875 -9.875 C 64.15625 -12.960938 59.800781 -18.789062 56.359375 -15.703125 C 50.371094 -10.339844 49.695312 -16.042969 48.863281 -21.863281 C 47.671875 -30.746094 48.269531 -39.980469 48.898438 -48.933594 C 49.996094 -63.445312 51.636719 -78.160156 54.453125 -92.449219 Z M 54.453125 -92.449219 "/></g></g></g><g fill="#af7264" fill-opacity="1"><g transform="translate(376.068242, 535.972943)"><g><path d="M 51.136719 -43.136719 C 46.59375 -46.96875 40.769531 -48.535156 34.726562 -48.382812 C 34.699219 -49.789062 34.394531 -51.164062 33.96875 -52.382812 C 31.632812 -59.011719 25.496094 -63.21875 18.386719 -62.515625 C 14.355469 -62.039062 10.644531 -60.046875 7.570312 -57.429688 C 7.734375 -58.433594 7.914062 -59.300781 8.078125 -60.308594 C 8.972656 -64.644531 2.222656 -65.675781 1.328125 -61.339844 C -4.625 -34.273438 -9.265625 -6.796875 -13.917969 20.539062 C -14.796875 25.015625 -7.910156 26.03125 -7.03125 21.558594 C -2.886719 0.625 0.53125 -20.503906 4.519531 -41.558594 C 4.640625 -41.714844 4.625 -41.855469 4.730469 -42.148438 C 7.195312 -47.515625 12.488281 -55.191406 19.210938 -55.566406 C 24.960938 -55.824219 27.261719 -51.867188 27.652344 -47.402344 C 22.296875 -46.203125 17.242188 -43.632812 13.402344 -40.355469 C 8.949219 -36.304688 2.378906 -29.886719 2.890625 -23.179688 C 3.515625 -17.898438 8.289062 -14.515625 13.351562 -15.820312 C 22.65625 -18.191406 31.671875 -30.117188 34.175781 -41.128906 C 38.96875 -41.132812 43.753906 -40.007812 46.722656 -37.539062 C 50.179688 -34.566406 54.589844 -40.164062 51.136719 -43.136719 Z M 10.070312 -24.453125 C 8.515625 -28.078125 20.625 -37.6875 23.691406 -39.179688 C 24.632812 -39.574219 25.570312 -39.964844 26.527344 -40.222656 C 26.4375 -39.789062 26.332031 -39.492188 26.105469 -39.042969 C 25.222656 -36.964844 12.585938 -18.691406 10.070312 -24.453125 Z M 10.070312 -24.453125 "/></g></g></g><g fill="#af7264" fill-opacity="1"><g transform="translate(426.810135, 529.958073)"><g><path d="M 47.390625 -106.835938 C 48.425781 -111.191406 41.539062 -112.207031 40.363281 -107.835938 C 36.632812 -91.746094 32.207031 -75.574219 28.648438 -59.222656 C 13.976562 -67.632812 -0.308594 -54.945312 -3.496094 -40.1875 C -5.785156 -29.765625 0.453125 -14.011719 13.789062 -19.257812 C 17.566406 -20.691406 20.746094 -23.605469 23.390625 -27.445312 C 22.800781 -21.734375 22.5 -15.917969 22.464844 -10.277344 C 22.453125 -5.621094 29.527344 -6.601562 29.554688 -11.117188 C 29.535156 -26.761719 32.082031 -42.148438 35.476562 -57.492188 C 40.183594 -73.699219 43.429688 -90.296875 47.390625 -106.835938 Z M 4.277344 -28.136719 C 0.402344 -33.460938 3.847656 -42.464844 6.953125 -47.203125 C 11.597656 -54.382812 18.441406 -57.308594 26.402344 -53.175781 C 26.558594 -53.054688 26.558594 -53.054688 26.699219 -53.070312 C 25.367188 -48.824219 23.742188 -44.683594 21.964844 -40.667969 C 19.621094 -35.457031 11.476562 -18.558594 4.277344 -28.136719 Z M 4.277344 -28.136719 "/></g></g></g><g fill="#af7264" fill-opacity="1"><g transform="translate(472.130285, 524.585889)"><g><path d="M 49.507812 -43.789062 C 47.410156 -38.890625 42.691406 -28.746094 36.6875 -29.441406 C 27.835938 -30.367188 30.410156 -44.347656 33.09375 -53.828125 C 34.03125 -56.617188 34.878906 -58.972656 35.375 -60.722656 C 36.84375 -64.988281 30.4375 -67.894531 28.988281 -63.492188 C 28.527344 -62.589844 28.105469 -61.414062 27.695312 -60.097656 C 9.027344 -67.75 -16.527344 -35.964844 1.273438 -22.566406 C 10.847656 -15.523438 18.480469 -22.492188 24.1875 -32.613281 C 25.199219 -27.65625 27.949219 -23.472656 33.25 -21.5625 C 44.011719 -17.621094 52.738281 -33.179688 56.035156 -41.039062 C 57.800781 -45.195312 51.253906 -48.085938 49.507812 -43.789062 Z M 13.003906 -29.453125 C 4.0625 -21.628906 1.441406 -35.414062 4.746094 -42.007812 C 8.511719 -49.503906 17.171875 -57.296875 25.78125 -53.667969 C 22.910156 -44.585938 19.394531 -35.003906 13.003906 -29.453125 Z M 13.003906 -29.453125 "/></g></g></g><g fill="#af7264" fill-opacity="1"><g transform="translate(526.069598, 518.192002)"><g><path d="M 34.570312 -46.109375 C 30.21875 -38.824219 27.09375 -30.703125 21.824219 -24.015625 C 19.355469 -21.042969 13.914062 -14.621094 9.441406 -15.5 C 1.6875 -16.695312 3.660156 -32.152344 4.058594 -37.132812 C 5.085938 -48.675781 7.085938 -60.332031 9.382812 -71.882812 C 16.75 -72.753906 24.136719 -73.488281 31.363281 -74.347656 C 35.953125 -74.890625 35.128906 -81.839844 30.523438 -81.4375 C 23.992188 -80.660156 17.457031 -79.886719 10.90625 -79.253906 C 12.894531 -88.652344 15.019531 -98.066406 17.023438 -107.328125 C 17.902344 -111.800781 10.875 -112.800781 9.996094 -108.324219 C 7.9375 -98.355469 6.015625 -88.398438 4.09375 -78.445312 C 0.617188 -78.03125 -2.71875 -77.636719 -6.054688 -77.242188 C -10.640625 -76.699219 -9.800781 -69.609375 -5.214844 -70.152344 C -2.574219 -70.464844 0.0703125 -70.777344 2.710938 -71.089844 C 1.488281 -64.742188 0.25 -58.535156 -0.832031 -52.203125 C -2.792969 -41.398438 -7.4375 -21.109375 0.0390625 -11.566406 C 5.550781 -4.324219 17.183594 -9.648438 22.683594 -14.390625 C 31.378906 -21.90625 35.5 -33.53125 41.101562 -43.359375 C 43.3125 -47.285156 36.785156 -50.035156 34.570312 -46.109375 Z M 34.570312 -46.109375 "/></g></g></g><g fill="#af7264" fill-opacity="1"><g transform="translate(563.743729, 513.726165)"><g><path d="M 35.132812 -47.304688 C 31.101562 -40.902344 26.871094 -33.777344 20.503906 -29.214844 C 16.089844 -26.015625 10.4375 -24.921875 6.230469 -29.496094 C 4.296875 -31.523438 3.722656 -33.992188 3.828125 -36.683594 C 13.476562 -38.53125 28.132812 -46.894531 24.007812 -59.09375 C 20.074219 -70.894531 6.121094 -61.34375 2.242188 -54.824219 C -4.585938 -43.441406 -7.054688 -23.835938 9.503906 -19.734375 C 23.753906 -16.066406 34.46875 -32.703125 40.578125 -43.015625 C 42.824219 -46.664062 37.640625 -51.125 35.132812 -47.304688 Z M 17.5 -56.914062 C 18.964844 -55.253906 16.351562 -51.140625 15.371094 -49.894531 C 12.816406 -46.492188 9.089844 -44.636719 5.140625 -43.464844 C 5.105469 -43.742188 5.210938 -44.039062 5.316406 -44.332031 C 6.132812 -46.96875 13.351562 -62.203125 17.5 -56.914062 Z M 17.5 -56.914062 "/></g></g></g><g fill="#af7264" fill-opacity="1"><g transform="translate(602.808037, 509.095539)"><g><path d="M 34.683594 -39.214844 C 25.84375 -36.476562 15.945312 -33.1875 7.523438 -28.101562 C 7.335938 -28.5 7.285156 -28.917969 7.238281 -29.335938 C 6.367188 -31.910156 5.480469 -34.625 4.890625 -37.234375 C 4.367188 -39.285156 3.824219 -41.476562 3.855469 -43.59375 C 3.96875 -45.019531 4.203125 -46.597656 4.457031 -48.035156 C 8.222656 -53.136719 11.609375 -53.113281 14.753906 -47.988281 C 13.5625 -43.757812 20.3125 -42.726562 21.5 -46.957031 C 24.664062 -58.328125 10.046875 -61.527344 2.371094 -56.105469 C -7.132812 -49.484375 -2.339844 -36.375 0.417969 -27.398438 C 0.703125 -26.164062 1.113281 -25.085938 1.386719 -23.988281 C -2.085938 -21.179688 -5.09375 -18.003906 -7.464844 -14.199219 C -11.953125 -6.902344 -15.601562 12.28125 -1.984375 11.796875 C 9.667969 11.402344 11.75 -1.957031 10.972656 -10.886719 C 10.703125 -14.378906 10.132812 -17.976562 9.304688 -21.402344 C 18.507812 -27.003906 30.355469 -30.523438 37.4375 -32.632812 C 41.648438 -33.976562 39.035156 -40.574219 34.683594 -39.214844 Z M 4.023438 -10.0625 C 4.246094 -6.988281 4.378906 -3.480469 3.320312 -0.535156 C 1.042969 5.234375 -4.214844 4.871094 -4.539062 -1.433594 C -4.988281 -7.585938 -1.792969 -12.757812 2.9375 -16.84375 C 3.480469 -14.652344 3.742188 -12.425781 4.023438 -10.0625 Z M 4.023438 -10.0625 "/></g></g></g><path stroke-linecap="round" transform="matrix(0.749754, 0, 0, 0.75, 173.168755, 265.72823)" fill="none" stroke-linejoin="miter" d="M 35.500203 35.497779 L 582.716508 35.497779 " stroke="#ffffff" stroke-width="71" stroke-opacity="1" stroke-miterlimit="4"/><g fill="#af7264" fill-opacity="1"><g transform="translate(337.852219, 302.903208)"><g><path d="M 10.441406 -9.613281 C 8.761719 -9.566406 5.542969 -9.40625 6.484375 -6.761719 C 6.992188 -5.3125 8.761719 -5.3125 9.542969 -6.140625 C 9.65625 -6.140625 9.773438 -6.140625 9.863281 -6.140625 C 9.910156 -6.140625 9.957031 -6.140625 9.980469 -6.140625 C 9.957031 -5.980469 9.957031 -5.839844 9.910156 -5.75 C 9.796875 -5.449219 9.613281 -5.152344 9.382812 -4.921875 C 8.253906 -3.769531 5.542969 -4.414062 4.851562 -5.839844 C 3.402344 -8.851562 6.921875 -14.761719 10.53125 -13.519531 C 12.625 -12.785156 13.542969 -16.097656 11.453125 -16.832031 C 3.128906 -19.753906 -3.632812 -3.886719 5.496094 -1.3125 C 7.382812 -0.78125 9.429688 -0.691406 11.0625 -1.839844 C 12.554688 -2.898438 13.476562 -4.714844 13.566406 -6.507812 C 13.636719 -8.644531 12.484375 -9.636719 10.441406 -9.613281 Z M 10.441406 -9.613281 "/></g></g></g><g fill="#af7264" fill-opacity="1"><g transform="translate(362.71027, 302.903208)"><g><path d="M 8.554688 -9.957031 C 7.957031 -10.371094 6.578125 -10.738281 6.300781 -11.453125 C 5.886719 -12.578125 7.425781 -13.382812 8.210938 -13.75 C 10.210938 -14.695312 8.460938 -17.660156 6.460938 -16.71875 C 3.378906 -15.269531 1.242188 -11.175781 4.324219 -8.507812 C 5.402344 -7.566406 7.542969 -7.199219 7.773438 -5.496094 C 7.863281 -4.78125 7.519531 -4.117188 6.875 -3.839844 C 6.4375 -3.65625 4.828125 -3.402344 4.460938 -3.910156 C 3.128906 -5.65625 0.136719 -3.933594 1.472656 -2.160156 C 4.183594 1.425781 10.667969 -0.09375 11.175781 -4.691406 C 11.40625 -6.804688 10.300781 -8.808594 8.554688 -9.957031 Z M 8.554688 -9.957031 "/></g></g></g><g fill="#af7264" fill-opacity="1"><g transform="translate(385.223107, 302.903208)"><g><path d="M 10.460938 -15.820312 C 7.910156 -16.140625 5.359375 -16.1875 2.78125 -15.933594 C 0.597656 -15.707031 0.574219 -12.257812 2.78125 -12.484375 C 3.472656 -12.554688 4.140625 -12.601562 4.804688 -12.625 C 4.597656 -9.265625 4.414062 -5.886719 4.207031 -2.53125 C 4.070312 -0.320312 7.519531 -0.320312 7.65625 -2.53125 C 7.863281 -5.886719 8.046875 -9.222656 8.253906 -12.578125 C 8.992188 -12.53125 9.726562 -12.464844 10.460938 -12.371094 C 12.671875 -12.09375 12.648438 -15.542969 10.460938 -15.820312 Z M 10.460938 -15.820312 "/></g></g></g><g fill="#af7264" fill-opacity="1"><g transform="translate(408.632642, 302.903208)"><g><path d="M 10.441406 -9.613281 C 8.761719 -9.566406 5.542969 -9.40625 6.484375 -6.761719 C 6.992188 -5.3125 8.761719 -5.3125 9.542969 -6.140625 C 9.65625 -6.140625 9.773438 -6.140625 9.863281 -6.140625 C 9.910156 -6.140625 9.957031 -6.140625 9.980469 -6.140625 C 9.957031 -5.980469 9.957031 -5.839844 9.910156 -5.75 C 9.796875 -5.449219 9.613281 -5.152344 9.382812 -4.921875 C 8.253906 -3.769531 5.542969 -4.414062 4.851562 -5.839844 C 3.402344 -8.851562 6.921875 -14.761719 10.53125 -13.519531 C 12.625 -12.785156 13.542969 -16.097656 11.453125 -16.832031 C 3.128906 -19.753906 -3.632812 -3.886719 5.496094 -1.3125 C 7.382812 -0.78125 9.429688 -0.691406 11.0625 -1.839844 C 12.554688 -2.898438 13.476562 -4.714844 13.566406 -6.507812 C 13.636719 -8.644531 12.484375 -9.636719 10.441406 -9.613281 Z M 10.441406 -9.613281 "/></g></g></g><g fill="#af7264" fill-opacity="1"><g transform="translate(433.490695, 302.903208)"><g><path d="M 13.429688 -13.085938 C 13.152344 -15.246094 9.703125 -15.269531 9.980469 -13.085938 C 10.300781 -10.554688 9.933594 -6.347656 7.242188 -5.058594 C 4.347656 -3.679688 4.554688 -11.933594 4.644531 -13.3125 C 4.804688 -15.523438 1.355469 -15.5 1.195312 -13.3125 C 0.917969 -9.429688 1.332031 -0.484375 7.382812 -1.519531 C 12.28125 -2.34375 13.957031 -8.945312 13.429688 -13.085938 Z M 13.429688 -13.085938 "/></g></g></g><g fill="#af7264" fill-opacity="1"><g transform="translate(458.302767, 302.903208)"><g><path d="M 9.265625 -14.832031 C 9.105469 -13.5 8.945312 -12.140625 8.761719 -10.808594 C 8.210938 -9.703125 6.507812 -7.910156 5.21875 -8.761719 C 3.933594 -9.613281 4.691406 -12.464844 5.152344 -13.519531 C 6.046875 -15.566406 2.921875 -17.015625 2.023438 -14.96875 C 0.78125 -12.09375 0.4375 -7.335938 3.769531 -5.632812 C 5.011719 -4.988281 6.347656 -5.011719 7.613281 -5.449219 C 7.199219 -4.4375 6.554688 -3.5625 5.519531 -3.105469 C 3.519531 -2.183594 4.714844 1.035156 6.761719 0.113281 C 12.074219 -2.277344 12.027344 -9.265625 12.671875 -14.234375 C 12.945312 -16.441406 9.566406 -17.039062 9.265625 -14.832031 Z M 9.265625 -14.832031 "/></g></g></g><g fill="#af7264" fill-opacity="1"><g transform="translate(285.196208, 452.782587)"><g><path d="M 24.527344 -19.585938 C 17.382812 -14.671875 9.34375 -9.546875 1.203125 -6.144531 C 4.195312 -25.515625 7.488281 -44.925781 10.257812 -64.472656 C 10.691406 -67.679688 5.722656 -68.410156 5.289062 -65.207031 C 2.273438 -44.304688 -1.453125 -23.421875 -4.570312 -2.507812 C -4.933594 -0.433594 -2.949219 0.859375 -1.089844 0.230469 C 8.890625 -3.085938 19.015625 -9.476562 27.660156 -15.484375 C 30.386719 -17.332031 27.257812 -21.4375 24.527344 -19.585938 Z M 24.527344 -19.585938 "/></g></g></g><g fill="#af7264" fill-opacity="1"><g transform="translate(318.79335, 448.80003)"><g><path d="M 35.714844 -31.589844 C 34.203125 -28.054688 30.796875 -20.738281 26.46875 -21.242188 C 20.082031 -21.90625 21.9375 -31.992188 23.875 -38.832031 C 24.550781 -40.84375 25.164062 -42.542969 25.519531 -43.808594 C 26.582031 -46.882812 21.957031 -48.980469 20.910156 -45.804688 C 20.582031 -45.15625 20.277344 -44.304688 19.980469 -43.355469 C 6.511719 -48.878906 -11.921875 -25.945312 0.917969 -16.28125 C 7.824219 -11.199219 13.332031 -16.226562 17.449219 -23.527344 C 18.179688 -19.953125 20.164062 -16.933594 23.988281 -15.554688 C 31.75 -12.714844 38.046875 -23.933594 40.425781 -29.605469 C 41.699219 -32.605469 36.976562 -34.691406 35.714844 -31.589844 Z M 9.378906 -21.25 C 2.929688 -15.601562 1.039062 -25.546875 3.425781 -30.304688 C 6.140625 -35.714844 12.390625 -41.335938 18.597656 -38.714844 C 16.527344 -32.164062 13.992188 -25.253906 9.378906 -21.25 Z M 9.378906 -21.25 "/></g></g></g><g fill="#af7264" fill-opacity="1"><g transform="translate(357.705862, 444.187398)"><g><path d="M 24.941406 -33.261719 C 21.800781 -28.007812 19.546875 -22.148438 15.746094 -17.324219 C 13.964844 -15.183594 10.039062 -10.546875 6.8125 -11.179688 C 1.214844 -12.042969 2.640625 -23.195312 2.925781 -26.789062 C 3.667969 -35.117188 5.113281 -43.523438 6.769531 -51.855469 C 12.085938 -52.488281 17.410156 -53.015625 22.628906 -53.636719 C 25.9375 -54.027344 25.34375 -59.042969 22.019531 -58.75 C 17.308594 -58.191406 12.59375 -57.632812 7.867188 -57.175781 C 9.300781 -63.953125 10.835938 -70.746094 12.28125 -77.425781 C 12.914062 -80.65625 7.847656 -81.375 7.210938 -78.148438 C 5.726562 -70.953125 4.339844 -63.773438 2.953125 -56.589844 C 0.445312 -56.292969 -1.960938 -56.007812 -4.367188 -55.722656 C -7.675781 -55.332031 -7.070312 -50.214844 -3.761719 -50.609375 C -1.855469 -50.835938 0.0507812 -51.058594 1.953125 -51.285156 C 1.074219 -46.707031 0.179688 -42.226562 -0.597656 -37.660156 C -2.015625 -29.863281 -5.363281 -15.230469 0.0273438 -8.34375 C 4.003906 -3.117188 12.394531 -6.960938 16.363281 -10.382812 C 22.636719 -15.804688 25.609375 -24.191406 29.652344 -31.28125 C 31.246094 -34.113281 26.535156 -36.097656 24.941406 -33.261719 Z M 24.941406 -33.261719 "/></g></g></g><g fill="#af7264" fill-opacity="1"><g transform="translate(384.884444, 440.965689)"><g><path d="M 25.347656 -34.125 C 22.4375 -29.507812 19.382812 -24.367188 14.789062 -21.078125 C 11.605469 -18.765625 7.53125 -17.980469 4.496094 -21.28125 C 3.101562 -22.742188 2.6875 -24.523438 2.761719 -26.464844 C 9.722656 -27.796875 20.296875 -33.832031 17.320312 -42.632812 C 14.480469 -51.144531 4.414062 -44.253906 1.617188 -39.550781 C -3.308594 -31.339844 -5.089844 -17.195312 6.855469 -14.238281 C 17.136719 -11.589844 24.867188 -23.59375 29.273438 -31.03125 C 30.894531 -33.664062 27.15625 -36.882812 25.347656 -34.125 Z M 12.625 -41.058594 C 13.683594 -39.863281 11.796875 -36.890625 11.089844 -35.996094 C 9.246094 -33.539062 6.554688 -32.203125 3.707031 -31.355469 C 3.683594 -31.558594 3.761719 -31.769531 3.835938 -31.980469 C 4.425781 -33.882812 9.632812 -44.875 12.625 -41.058594 Z M 12.625 -41.058594 "/></g></g></g><g fill="#af7264" fill-opacity="1"><g transform="translate(413.065934, 437.625096)"><g><path d="M 25.019531 -28.289062 C 18.644531 -26.3125 11.503906 -23.941406 5.429688 -20.273438 C 5.292969 -20.5625 5.257812 -20.863281 5.222656 -21.164062 C 4.59375 -23.019531 3.953125 -24.980469 3.527344 -26.859375 C 3.148438 -28.339844 2.757812 -29.921875 2.78125 -31.449219 C 2.863281 -32.476562 3.03125 -33.617188 3.214844 -34.65625 C 5.929688 -38.332031 8.375 -38.316406 10.644531 -34.621094 C 9.785156 -31.570312 14.652344 -30.824219 15.511719 -33.875 C 17.792969 -42.078125 7.246094 -44.386719 1.710938 -40.476562 C -5.148438 -35.699219 -1.6875 -26.242188 0.300781 -19.765625 C 0.507812 -18.875 0.804688 -18.097656 1 -17.304688 C -1.507812 -15.28125 -3.675781 -12.988281 -5.382812 -10.242188 C -8.625 -4.976562 -11.253906 8.859375 -1.433594 8.507812 C 6.976562 8.226562 8.476562 -1.410156 7.917969 -7.855469 C 7.71875 -10.375 7.3125 -12.96875 6.710938 -15.441406 C 13.351562 -19.480469 21.898438 -22.019531 27.007812 -23.542969 C 30.046875 -24.511719 28.160156 -29.273438 25.019531 -28.289062 Z M 2.902344 -7.261719 C 3.0625 -5.042969 3.160156 -2.511719 2.394531 -0.386719 C 0.753906 3.777344 -3.042969 3.511719 -3.277344 -1.035156 C -3.597656 -5.472656 -1.292969 -9.203125 2.121094 -12.148438 C 2.511719 -10.570312 2.699219 -8.964844 2.902344 -7.261719 Z M 2.902344 -7.261719 "/></g></g></g><g fill="#af7264" fill-opacity="1"><g transform="translate(440.846257, 434.332057)"><g><path d="M 24.941406 -33.261719 C 21.800781 -28.007812 19.546875 -22.148438 15.746094 -17.324219 C 13.964844 -15.183594 10.039062 -10.546875 6.8125 -11.179688 C 1.214844 -12.042969 2.640625 -23.195312 2.925781 -26.789062 C 3.667969 -35.117188 5.113281 -43.523438 6.769531 -51.855469 C 12.085938 -52.488281 17.410156 -53.015625 22.628906 -53.636719 C 25.9375 -54.027344 25.34375 -59.042969 22.019531 -58.75 C 17.308594 -58.191406 12.59375 -57.632812 7.867188 -57.175781 C 9.300781 -63.953125 10.835938 -70.746094 12.28125 -77.425781 C 12.914062 -80.65625 7.847656 -81.375 7.210938 -78.148438 C 5.726562 -70.953125 4.339844 -63.773438 2.953125 -56.589844 C 0.445312 -56.292969 -1.960938 -56.007812 -4.367188 -55.722656 C -7.675781 -55.332031 -7.070312 -50.214844 -3.761719 -50.609375 C -1.855469 -50.835938 0.0507812 -51.058594 1.953125 -51.285156 C 1.074219 -46.707031 0.179688 -42.226562 -0.597656 -37.660156 C -2.015625 -29.863281 -5.363281 -15.230469 0.0273438 -8.34375 C 4.003906 -3.117188 12.394531 -6.960938 16.363281 -10.382812 C 22.636719 -15.804688 25.609375 -24.191406 29.652344 -31.28125 C 31.246094 -34.113281 26.535156 -36.097656 24.941406 -33.261719 Z M 24.941406 -33.261719 "/></g></g></g></svg>